<svg width="33" height="44" viewBox="0 0 33 44" fill="none" xmlns="http://www.w3.org/2000/svg">
<path d="M32.5847 15.93C32.5047 7.15001 25.3847 0.0700073 16.5847 0.0700073C7.78472 0.0700073 0.664717 7.15001 0.584717 15.93V27.93C0.584717 36.77 7.74472 43.93 16.5847 43.93C25.4247 43.93 32.5847 36.77 32.5847 27.93V15.93ZM28.5847 15.93H18.5847V4.25001C24.2047 5.19001 28.5047 10.05 28.5847 15.93ZM14.5847 4.25001V15.93H4.58472C4.66472 10.05 8.96472 5.19001 14.5847 4.25001ZM28.5847 27.93C28.5847 34.55 23.2047 39.93 16.5847 39.93C9.96472 39.93 4.58472 34.55 4.58472 27.93V19.93H28.5847V27.93Z" fill="white"/>
</svg>
