<svg width="24" height="24" viewBox="0 0 24 24" fill="none" xmlns="http://www.w3.org/2000/svg">
<g id="twitter 1" clip-path="url(#clip0_348_121)">
<g id="Group">
<path id="Vector" d="M23.4207 5.8571L22.5935 6.6816C22.2885 6.98553 21.964 7.26916 21.6218 7.53128C21.613 7.53804 21.6041 7.54479 21.5953 7.55152C21.5956 7.56345 21.5959 7.57539 21.5962 7.58736C21.599 7.70059 21.6007 7.81549 21.6007 7.93117C21.6007 7.93152 21.6007 7.93188 21.6007 7.93223C21.6002 14.7127 16.4307 21.7847 7.74719 21.7847C5.86432 21.7847 4.01793 21.4041 2.30679 20.6711L23.4207 5.8571ZM23.4207 5.8571C22.9058 6.50498 22.3173 7.08365 21.6634 7.58548L23.4207 5.8571ZM5.37006 14.4225C5.27301 14.4489 5.17492 14.4728 5.0761 14.4941C5.03347 14.439 4.99259 14.3825 4.95355 14.3245C5.01411 14.3389 5.07514 14.3524 5.1366 14.3647L5.20626 14.0184L5.25475 14.008L5.37006 14.4225ZM5.37006 14.4225C5.60802 14.3563 5.77017 14.1355 5.76163 13.889C5.75414 13.6415 5.57704 13.4335 5.33378 13.3844M5.37006 14.4225L5.25736 14.0075L5.33314 13.9913L5.23207 13.9143L5.2302 13.9075L5.22957 13.9051L5.22926 13.904L5.33378 13.3844M5.33378 13.3844C4.08002 13.1322 3.04837 12.3232 2.47639 11.2304C2.44472 11.2239 2.41309 11.2171 2.38152 11.2101C2.67213 11.7816 3.08939 12.2825 3.60088 12.6721L4.74215 13.5412C4.86388 13.5186 4.98615 13.4906 5.10801 13.4575L5.22905 13.9032L5.33378 13.3844ZM2.54367 3.20463C2.46831 3.11331 2.36587 3.05055 2.2534 3.02369L2.47307 3.26219L2.54367 3.20463ZM2.54367 3.20463L2.47343 3.26259L3.0018 3.83625C4.90943 5.90738 7.44013 7.29586 10.1866 7.79909C10.1851 7.77598 10.1837 7.75285 10.1825 7.72972C7.20466 7.18098 4.484 5.58425 2.54367 3.20463ZM8.00945 17.1059C8.07222 17.3151 7.99995 17.5436 7.82723 17.6789C7.7467 17.742 7.66544 17.8038 7.58345 17.8642L6.57819 18.4391L8.00945 17.1059ZM8.00945 17.1059L7.98157 17.0975L7.50495 16.9544L7.50473 16.9543L6.36934 16.6133C5.706 16.4141 5.10553 16.0567 4.61759 15.5786C4.64608 15.5757 4.67454 15.5725 4.70293 15.5692L8.00945 17.1059ZM22.5618 2.56655C22.7318 2.46778 22.9398 2.46959 23.1061 2.56747L22.6629 2.7371L22.5618 2.56655ZM22.5618 2.56655C21.7648 3.03922 20.9112 3.38169 20.0203 3.58549C19.0515 2.66792 17.753 2.14832 16.4119 2.14832C13.6983 2.14832 11.4595 4.22311 11.1986 6.86933C11.2208 6.87178 11.2429 6.87418 11.2651 6.87651C11.5222 4.26279 13.7315 2.21528 16.4119 2.21525C16.4119 2.21525 16.4119 2.21525 16.4119 2.21525C17.7367 2.21525 19.0177 2.72803 19.9745 3.63388C19.9829 3.64183 19.9912 3.64981 19.9996 3.65782C20.0114 3.65517 20.0232 3.65249 20.035 3.64979C20.4413 3.55688 20.8414 3.43433 21.2334 3.28428L22.6613 2.73773L22.5618 2.56655ZM20.2604 5.80156C20.2438 5.75268 20.2346 5.70276 20.2324 5.65317C20.394 5.62027 20.5546 5.58362 20.7141 5.54334L20.7163 5.54703L20.6216 5.6774L20.2604 5.80156ZM20.2604 5.80156C20.2831 5.86747 20.3177 5.9268 20.3611 5.97744C20.3933 5.9531 20.4253 5.92854 20.4571 5.90376L20.6206 5.6788L20.2604 5.80156ZM20.9078 6.81733L20.9174 6.89748L20.9078 6.81733ZM20.9078 6.81733C20.9124 6.81394 20.9169 6.81055 20.9215 6.80716L20.9078 6.81733ZM12.3489 8.33874L12.2451 8.36263L12.1913 7.78231C12.1793 7.65256 12.1732 7.51908 12.1732 7.38705C12.1732 7.38704 12.1732 7.38703 12.1732 7.38701C12.1732 5.05108 14.076 3.14832 16.4119 3.14832C16.4119 3.14832 16.4119 3.14832 16.4119 3.14832C17.4968 3.14833 18.5493 3.56957 19.3327 4.31153L19.5119 4.48132L19.5122 4.48159L19.6323 4.59536C19.6196 4.60931 19.6072 4.62346 19.5951 4.63782C19.5447 4.61069 19.4983 4.57515 19.4581 4.53188C18.6728 3.69537 17.5621 3.21525 16.4119 3.21525C14.1116 3.21525 12.2402 5.08666 12.2402 7.38701C12.2402 7.70603 12.2764 8.02717 12.3489 8.33874ZM12.3489 8.33874L12.2452 8.36289L12.2804 8.74338C12.3558 8.62331 12.3809 8.47752 12.3489 8.33874ZM4.84007 18.1544C4.86926 18.1688 4.89856 18.1828 4.92799 18.1967C4.18445 18.4864 3.4035 18.6745 2.59845 18.7571L0.964347 18.9248C0.904848 18.888 0.845607 18.8506 0.786629 18.8128L4.84007 18.1544ZM6.11508 17.6294C6.09467 17.6411 6.07422 17.6527 6.05373 17.6642L6.0817 17.5711L6.0333 17.4865C6.05577 17.4935 6.07829 17.5005 6.10088 17.5072C6.15073 17.5222 6.20087 17.5364 6.25129 17.5499C6.20608 17.5768 6.16068 17.6033 6.11508 17.6294ZM4.97346 17.0165C4.94886 17.0278 4.9242 17.0389 4.89948 17.0498C3.89433 16.4492 3.09792 15.5176 2.67513 14.3777L3.08373 15.1004C3.53688 15.9018 4.19281 16.5598 4.97346 17.0165ZM3.89656 14.6408C3.83976 14.5404 3.78686 14.4373 3.73808 14.3316L3.9608 14.2841L4.45581 14.1785C4.50973 14.1973 4.56409 14.2153 4.61888 14.2324L3.95422 14.6082L3.95163 14.7352C3.93289 14.704 3.91453 14.6725 3.89656 14.6408ZM4.81466 14.1217C4.8116 14.1158 4.80866 14.1098 4.80585 14.1038L5.2058 14.0185L5.13593 14.3646C5.04162 14.3456 4.95718 14.2976 4.8925 14.2302C4.86914 14.1927 4.84654 14.1546 4.82471 14.116L4.81466 14.1217ZM5.22752 13.9109L5.22336 13.9077L5.22035 13.9054L4.85531 13.6274C4.91534 13.5476 5.00095 13.4872 5.10205 13.4591L5.22616 13.9052L5.22681 13.9076L5.2276 13.9104L5.22752 13.9109ZM2.07316 10.0875L2.02621 10.2272C2.01681 10.1857 2.00802 10.144 1.99986 10.1021C1.99452 10.0748 1.98945 10.0473 1.98465 10.0198L2.08023 10.0665L2.10872 10.0804L2.07316 10.0875ZM1.80912 8.94371L1.74363 8.92169L1.85763 8.8445L1.89188 8.77447C1.89904 8.78523 1.90624 8.79597 1.91348 8.80669C1.96552 8.88364 2.01966 8.95925 2.07588 9.03341L1.80912 8.94371ZM2.97278 13.3635C2.99391 13.3802 3.01517 13.3967 3.03656 13.4131C3.11883 13.476 3.20309 13.5365 3.28926 13.5945L3.0209 13.589L2.90437 13.5866L2.995 13.4676L2.97278 13.3635ZM1.35427 7.72183C1.33112 7.72412 1.30817 7.72691 1.28545 7.73016C1.0731 7.15539 0.960339 6.53918 0.960339 5.90717C0.960339 5.02956 1.18074 4.16356 1.60147 3.395L1.32358 4.18002C1.12769 4.73338 1.02728 5.31781 1.02728 5.90717C1.02728 6.53693 1.14077 7.15015 1.35427 7.72183ZM2.20324 4.49141C2.21563 4.45637 2.22849 4.4215 2.24181 4.38679C2.26643 4.41395 2.29115 4.441 2.31597 4.46794C2.34511 4.49958 2.37439 4.53107 2.4038 4.56241L2.26626 4.51372L2.16388 4.60802C2.17643 4.56896 2.18955 4.53009 2.20324 4.49141ZM3.08045 5.32745C3.08526 5.30147 3.0904 5.27556 3.09585 5.24972C5.29334 7.28377 8.10309 8.56358 11.0938 8.86947L11.8052 8.94223L11.8105 8.94277L12.0213 8.96433C11.9527 8.99231 11.8783 9.00376 11.8027 8.99172C8.54663 8.82761 5.45946 7.5162 3.08045 5.32745ZM21.5673 4.1565C21.6424 4.12762 21.7172 4.09781 21.7917 4.06707C21.7904 4.06875 21.7892 4.07043 21.788 4.0721L21.6481 4.26473L21.6223 4.30016L21.5909 4.21819L21.5318 4.17006C21.5437 4.16556 21.5555 4.16104 21.5673 4.1565ZM20.7156 5.54297C20.7171 5.54259 20.7186 5.54221 20.7201 5.54183L20.7173 5.54573L20.7156 5.54297ZM22.6368 4.77479L22.379 4.83411L22.5492 4.6252L22.5743 4.59439L22.597 4.65992L22.7266 4.75411L22.6368 4.77479ZM11.2624 7.86846C11.2649 7.89576 11.2677 7.92304 11.2706 7.95031C11.2433 7.94768 11.216 7.94496 11.1887 7.94216C11.0814 7.93114 10.9744 7.91877 10.8676 7.90508L11.1956 7.87466L11.2404 7.43645C11.2418 7.58033 11.2491 7.72455 11.2624 7.86846ZM1.96834 5.64661C1.98948 5.66769 2.01068 5.68871 2.03194 5.70966C2.02884 5.77538 2.02728 5.84123 2.02728 5.90717C2.02728 7.30701 2.72081 8.60336 3.88163 9.37905C4.0801 9.51136 4.16649 9.75779 4.09394 9.98509C4.06916 10.0624 4.02657 10.1292 3.97222 10.184L3.76687 9.88069L4.09376 9.98503L3.76643 9.88004L3.65618 9.71722L3.65592 9.71683L3.59312 9.62408L3.60152 9.35687C3.53589 9.35481 3.47033 9.35121 3.4049 9.34608L2.68568 8.28385C2.21986 7.59586 1.96034 6.77094 1.96034 5.90717C1.96034 5.82012 1.96302 5.73322 1.96834 5.64661ZM3.53942 9.54476L3.42543 9.37641C3.46056 9.36468 3.49637 9.35845 3.53233 9.35709L3.53942 9.54476Z" fill="white" stroke="white" stroke-width="2"/>
</g>
</g>
<defs>
<clipPath id="clip0_348_121">
<rect width="24" height="24" fill="white"/>
</clipPath>
</defs>
</svg>
