<svg width="134" height="26" viewBox="0 0 134 26" fill="none" xmlns="http://www.w3.org/2000/svg">
<path d="M11.188 5.484V8.592L1.08 13.072L0.52 12.036V10.356L11.188 5.484ZM11.188 14.836V18.196L0.52 13.324V11.532L1.108 10.356L11.188 14.836ZM16.216 18.308V15.172L26.576 10.58L27.136 11.616V13.324L16.216 18.308ZM16.216 8.732V5.316L27.136 10.328V12.12L26.548 13.296L16.216 8.732ZM35.3559 14.388C35.3559 15.2093 35.4306 15.9467 35.5799 16.6C35.7293 17.2347 35.9533 17.776 36.2519 18.224C36.5693 18.6533 36.9706 18.98 37.4559 19.204C37.9413 19.4093 38.5013 19.512 39.1359 19.512C39.8079 19.512 40.3866 19.3907 40.8719 19.148C41.3573 18.8867 41.7679 18.56 42.1039 18.168C42.4586 17.7573 42.7479 17.3373 42.9719 16.908L44.7359 18.168C44.3813 18.8773 43.9146 19.5027 43.3359 20.044C42.7573 20.5853 42.0573 21.0147 41.2359 21.332C40.4333 21.6307 39.4719 21.78 38.3519 21.78C36.7279 21.78 35.2999 21.4813 34.0679 20.884C32.8546 20.2867 31.9119 19.4373 31.2399 18.336C30.5679 17.216 30.2319 15.8907 30.2319 14.36C30.2319 12.8667 30.5586 11.56 31.2119 10.44C31.8839 9.32 32.7893 8.452 33.9279 7.836C35.0853 7.20133 36.3919 6.884 37.8479 6.884C39.0239 6.884 40.0506 7.06133 40.9279 7.416C41.8239 7.752 42.5706 8.26533 43.1679 8.956C43.7653 9.628 44.2226 10.4867 44.5399 11.532C44.8573 12.5587 45.0159 13.7627 45.0159 15.144H34.7399V13.156H40.8719L40.2559 13.968C40.2373 13.016 40.1813 12.2227 40.0879 11.588C39.9946 10.9533 39.8546 10.4587 39.6679 10.104C39.4813 9.73067 39.2479 9.46 38.9679 9.292C38.6879 9.124 38.3519 9.04 37.9599 9.04C37.5679 9.04 37.2133 9.14267 36.8959 9.348C36.5973 9.55333 36.3266 9.88 36.0839 10.328C35.8599 10.7573 35.6826 11.308 35.5519 11.98C35.4213 12.652 35.3559 13.4547 35.3559 14.388ZM62.5682 18.84C62.5682 19.1387 62.6802 19.344 62.9042 19.456C63.1469 19.5493 63.4922 19.624 63.9402 19.68L64.0522 19.708V21.5H57.7802V18.196L57.4442 18.42V3.692C57.4442 3.48667 57.3882 3.328 57.2762 3.216C57.1829 3.104 57.0336 3.02 56.8282 2.964C56.6416 2.88933 56.3896 2.81467 56.0722 2.74L55.8482 2.684V0.891998H62.5682V18.84ZM53.3282 6.884C54.1869 6.884 54.9336 7.01467 55.5682 7.276C56.2029 7.53733 56.7629 7.92933 57.2482 8.452C57.7336 8.97467 58.1629 9.628 58.5362 10.412L58.4522 13.212C58.0602 12.3533 57.6776 11.644 57.3042 11.084C56.9309 10.5053 56.5389 10.0853 56.1282 9.824C55.7362 9.544 55.2696 9.404 54.7282 9.404C54.2616 9.404 53.8509 9.52533 53.4962 9.768C53.1602 9.992 52.8709 10.328 52.6282 10.776C52.4042 11.2053 52.2362 11.7373 52.1242 12.372C52.0309 13.0067 51.9842 13.716 51.9842 14.5C51.9842 15.2467 52.0309 15.9187 52.1242 16.516C52.2362 17.1133 52.3949 17.6173 52.6002 18.028C52.8242 18.4387 53.0949 18.7467 53.4122 18.952C53.7482 19.1573 54.1309 19.26 54.5602 19.26C55.0829 19.26 55.5496 19.1107 55.9602 18.812C56.3709 18.4947 56.7722 18.028 57.1642 17.412C57.5562 16.796 57.9856 16.0027 58.4522 15.032L58.5082 17.804C58.0602 18.6813 57.5842 19.4187 57.0802 20.016C56.5762 20.5947 56.0069 21.0333 55.3722 21.332C54.7562 21.6307 54.0096 21.78 53.1322 21.78C51.8442 21.78 50.7149 21.4813 49.7442 20.884C48.7922 20.268 48.0456 19.4187 47.5042 18.336C46.9816 17.2347 46.7202 15.956 46.7202 14.5C46.7202 13.0067 47.0002 11.6907 47.5602 10.552C48.1202 9.39467 48.8949 8.49867 49.8842 7.864C50.8922 7.21067 52.0402 6.884 53.3282 6.884ZM71.556 7.164V16.908C71.556 17.3933 71.6027 17.7947 71.696 18.112C71.808 18.4293 71.976 18.6627 72.2 18.812C72.424 18.9427 72.7227 19.008 73.096 19.008C73.5253 19.008 73.9173 18.896 74.272 18.672C74.6453 18.448 75.0093 18.1027 75.364 17.636C75.7187 17.1507 76.064 16.516 76.4 15.732L76.456 18.364C76.064 19.1293 75.6067 19.764 75.084 20.268C74.5613 20.772 73.9733 21.1547 73.32 21.416C72.6667 21.6587 71.948 21.78 71.164 21.78C70.2307 21.78 69.4093 21.6027 68.7 21.248C67.9907 20.8747 67.44 20.3333 67.048 19.624C66.656 18.896 66.46 18 66.46 16.936V9.964C66.46 9.66533 66.3573 9.46 66.152 9.348C65.9467 9.21733 65.62 9.10533 65.172 9.012L64.92 8.956V7.164H71.556ZM80.936 7.164V18.84C80.936 19.0267 80.992 19.176 81.104 19.288C81.216 19.4 81.3747 19.484 81.58 19.54C81.7853 19.596 82.0373 19.6427 82.336 19.68L82.476 19.708V21.5H76.176V18.28L75.84 18.392V9.964C75.84 9.66533 75.7 9.45067 75.42 9.32C75.14 9.18933 74.776 9.096 74.328 9.04L73.908 8.956V7.164H80.936ZM87.2423 21.836C86.3463 21.836 85.637 21.5933 85.1143 21.108C84.6103 20.6227 84.3583 19.988 84.3583 19.204C84.3583 18.42 84.6103 17.7853 85.1143 17.3C85.637 16.8147 86.3463 16.572 87.2423 16.572C88.1383 16.572 88.8383 16.8147 89.3423 17.3C89.865 17.7853 90.1263 18.42 90.1263 19.204C90.1263 19.988 89.865 20.6227 89.3423 21.108C88.8383 21.5933 88.1383 21.836 87.2423 21.836ZM104.758 5.484V8.592L94.6503 13.072L94.0903 12.036V10.356L104.758 5.484ZM104.758 14.836V18.196L94.0903 13.324V11.532L94.6783 10.356L104.758 14.836ZM120.51 0.835999H117.066L106.818 25.448H110.262L120.51 0.835999ZM122.693 18.308V15.172L133.053 10.58L133.613 11.616V13.324L122.693 18.308ZM122.693 8.732V5.316L133.613 10.328V12.12L133.025 13.296L122.693 8.732Z" fill="white"/>
</svg>
