<svg width="456" height="798" viewBox="0 0 456 798" fill="none" xmlns="http://www.w3.org/2000/svg">
<path d="M-120.242 19.2057C-79.6718 22.9973 -53.6144 26.8147 -14.9923 39.6887C15.8374 49.9653 55.5774 54.4402 90.5148 60.4294C108.329 63.4833 127.355 64.4229 145.394 65.0671C167.5 65.8566 191.484 62 213.284 66.2265C264.271 76.1118 315.894 96.6889 357.052 128.32C410.483 169.382 449.715 224.874 454.057 293.473C457.403 346.339 424.717 407.937 385.78 442.007C326.303 494.049 250.861 497.43 175.023 498.947C129.512 499.857 86.0436 506.487 42.4633 519.688C3.31284 531.547 -25.6452 551.304 -58.0196 575.211C-86.1077 595.953 -116.937 613.733 -149.614 626.097C-178.906 637.18 -213.168 636.749 -244.042 635.114C-288.869 632.741 -344.369 626.766 -383.687 602.651C-416.811 582.335 -442.103 548.688 -464.074 517.627C-480.8 493.979 -496.568 466.131 -479.919 439.688C-470.01 423.95 -456.902 410.682 -447.455 394.342C-434.861 372.557 -424.485 351.571 -414.863 328.255C-388.321 263.942 -386.687 192.376 -356.377 129.35C-344.941 105.571 -327.037 85.8032 -307.037 68.803C-284.186 49.3801 -253.163 27.9972 -223.688 20.3651C-191.619 12.0616 -152.701 16.1721 -120.242 19.2057Z" fill="white" stroke="white" stroke-width="3" stroke-linecap="round"/>
<path d="M208.284 293.264C208.284 294.093 207.613 294.764 206.784 294.764C205.956 294.764 205.284 294.093 205.284 293.264C205.284 292.436 205.956 291.764 206.784 291.764C207.613 291.764 208.284 292.436 208.284 293.264Z" fill="black"/>
<path d="M26.4211 211.304C27.1042 211.772 27.2779 212.706 26.8092 213.389C26.3404 214.072 25.4067 214.246 24.7236 213.777C24.0406 213.308 23.8668 212.375 24.3356 211.692C24.8043 211.009 25.738 210.835 26.4211 211.304Z" fill="black"/>
<path d="M190.585 439.605C191.061 440.283 190.897 441.219 190.219 441.695C189.541 442.171 188.606 442.007 188.13 441.329C187.654 440.651 187.818 439.715 188.496 439.239C189.174 438.763 190.109 438.927 190.585 439.605Z" fill="black"/>
<path d="M-59.859 508.755C-59.281 509.745 -59.48 511.11 -60.3035 511.805C-61.127 512.5 -62.2631 512.261 -62.8411 511.271C-63.4191 510.281 -63.2201 508.916 -62.3966 508.221C-61.5732 507.526 -60.437 507.765 -59.859 508.755Z" fill="black"/>
<path d="M-113.859 605.755C-113.281 606.745 -113.48 608.11 -114.303 608.805C-115.127 609.5 -116.263 609.261 -116.841 608.271C-117.419 607.281 -117.22 605.916 -116.397 605.221C-115.573 604.526 -114.437 604.765 -113.859 605.755Z" fill="black"/>
<path d="M35.9998 428.624C36.5213 429.517 36.3418 430.749 35.5988 431.376C34.8558 432.003 33.8306 431.787 33.3091 430.894C32.7876 430.001 32.9671 428.769 33.7101 428.142C34.4532 427.515 35.4783 427.731 35.9998 428.624Z" fill="black"/>
<path d="M314.084 167.649C313.982 166.619 314.659 165.575 315.596 165.315C316.532 165.055 317.374 165.678 317.476 166.708C317.577 167.737 316.9 168.782 315.964 169.042C315.027 169.301 314.185 168.678 314.084 167.649Z" fill="black"/>
<path d="M368.605 272.944C368.211 271.988 368.557 270.792 369.379 270.273C370.201 269.754 371.187 270.108 371.581 271.064C371.975 272.02 371.629 273.216 370.807 273.735C369.985 274.254 368.999 273.9 368.605 272.944Z" fill="black"/>
<path d="M323.047 372.3C322.653 371.344 322.999 370.148 323.821 369.629C324.643 369.109 325.629 369.464 326.023 370.42C326.417 371.376 326.071 372.571 325.249 373.091C324.427 373.61 323.441 373.256 323.047 372.3Z" fill="black"/>
<path d="M191.047 309.3C190.653 308.344 190.999 307.148 191.821 306.629C192.643 306.109 193.629 306.464 194.023 307.42C194.418 308.376 194.071 309.571 193.249 310.091C192.427 310.61 191.441 310.256 191.047 309.3Z" fill="black"/>
<path d="M139.047 191.3C138.653 190.344 138.999 189.148 139.821 188.629C140.643 188.109 141.629 188.464 142.023 189.42C142.418 190.376 142.071 191.571 141.249 192.091C140.427 192.61 139.441 192.256 139.047 191.3Z" fill="black"/>
<path d="M87.0471 73.2997C86.6527 72.3437 86.9992 71.1478 87.821 70.6286C88.6429 70.1094 89.6288 70.4635 90.0232 71.4195C90.4176 72.3755 90.071 73.5714 89.2492 74.0906C88.4274 74.6098 87.4415 74.2557 87.0471 73.2997Z" fill="black"/>
<path d="M206.284 232.264C206.284 233.093 205.613 233.764 204.784 233.764C203.956 233.764 203.284 233.093 203.284 232.264C203.284 231.436 203.956 230.764 204.784 230.764C205.613 230.764 206.284 231.436 206.284 232.264Z" fill="black"/>
<path d="M-25.0067 178.437C-24.3236 178.906 -24.1499 179.84 -24.6186 180.523C-25.0874 181.206 -26.0211 181.38 -26.7041 180.911C-27.3872 180.442 -27.5609 179.509 -27.0922 178.825C-26.6234 178.142 -25.6897 177.969 -25.0067 178.437Z" fill="black"/>
<path d="M153.903 390.826C154.379 391.504 154.215 392.44 153.537 392.916C152.859 393.392 151.924 393.228 151.448 392.55C150.972 391.872 151.136 390.936 151.814 390.46C152.492 389.984 153.427 390.148 153.903 390.826Z" fill="black"/>
<path d="M3.01595 315.801C3.41789 316.374 3.27951 317.164 2.70686 317.566C2.13422 317.968 1.34416 317.829 0.942215 317.257C0.540268 316.684 0.67865 315.894 1.2513 315.492C1.82394 315.09 2.614 315.229 3.01595 315.801Z" fill="black"/>
<path d="M-104.407 437.556C-103.829 438.546 -104.028 439.912 -104.852 440.606C-105.675 441.301 -106.811 441.062 -107.389 440.072C-107.967 439.082 -107.768 437.717 -106.945 437.022C-106.121 436.328 -104.985 436.567 -104.407 437.556Z" fill="black"/>
<path d="M-158.407 534.556C-157.829 535.546 -158.028 536.912 -158.852 537.606C-159.675 538.301 -160.811 538.062 -161.389 537.072C-161.967 536.082 -161.768 534.717 -160.945 534.022C-160.121 533.328 -158.985 533.567 -158.407 534.556Z" fill="black"/>
<path d="M-4.19611 364.381C-3.67458 365.274 -3.85414 366.506 -4.59715 367.133C-5.34016 367.76 -6.36528 367.544 -6.88681 366.651C-7.40834 365.758 -7.22879 364.526 -6.48578 363.899C-5.74277 363.273 -4.71764 363.488 -4.19611 364.381Z" fill="black"/>
<path d="M323.826 242.801C323.724 241.772 324.401 240.727 325.338 240.467C326.275 240.207 327.116 240.831 327.218 241.86C327.32 242.889 326.643 243.934 325.706 244.194C324.769 244.454 323.928 243.83 323.826 242.801Z" fill="black"/>
<path d="M399.628 342.084C399.234 341.128 399.58 339.932 400.402 339.413C401.224 338.894 402.21 339.248 402.604 340.204C402.999 341.16 402.652 342.356 401.83 342.875C401.008 343.394 400.023 343.04 399.628 342.084Z" fill="black"/>
<path d="M354.07 441.44C353.676 440.484 354.022 439.288 354.844 438.769C355.666 438.25 356.652 438.604 357.046 439.56C357.441 440.516 357.094 441.712 356.272 442.231C355.451 442.75 354.465 442.396 354.07 441.44Z" fill="black"/>
<path d="M222.07 378.44C221.676 377.484 222.022 376.288 222.844 375.769C223.666 375.25 224.652 375.604 225.046 376.56C225.441 377.516 225.094 378.712 224.272 379.231C223.451 379.75 222.465 379.396 222.07 378.44Z" fill="black"/>
<path d="M170.07 260.44C169.676 259.484 170.022 258.288 170.844 257.769C171.666 257.25 172.652 257.604 173.046 258.56C173.441 259.516 173.094 260.712 172.272 261.231C171.451 261.75 170.465 261.396 170.07 260.44Z" fill="black"/>
<path d="M118.07 142.44C117.676 141.484 118.022 140.288 118.844 139.769C119.666 139.25 120.652 139.604 121.046 140.56C121.441 141.516 121.094 142.712 120.272 143.231C119.451 143.75 118.465 143.396 118.07 142.44Z" fill="black"/>
<path d="M179.284 250.264C179.284 251.093 178.613 251.764 177.784 251.764C176.956 251.764 176.284 251.093 176.284 250.264C176.284 249.436 176.956 248.764 177.784 248.764C178.613 248.764 179.284 249.436 179.284 250.264Z" fill="black"/>
<path d="M-25.4424 210.884C-24.7594 211.353 -24.5856 212.287 -25.0544 212.97C-25.5231 213.653 -26.4568 213.827 -27.1399 213.358C-27.823 212.889 -27.9967 211.956 -27.5279 211.273C-27.0592 210.589 -26.1255 210.416 -25.4424 210.884Z" fill="black"/>
<path d="M142.145 421.071C142.621 421.749 142.457 422.684 141.779 423.16C141.101 423.636 140.165 423.472 139.689 422.794C139.213 422.116 139.377 421.181 140.055 420.705C140.733 420.229 141.669 420.393 142.145 421.071Z" fill="black"/>
<path d="M-6.91426 341.344C-6.51231 341.916 -6.6507 342.706 -7.22334 343.108C-7.79599 343.51 -8.58604 343.372 -8.98799 342.799C-9.38994 342.227 -9.25156 341.437 -8.67891 341.035C-8.10626 340.633 -7.31621 340.771 -6.91426 341.344Z" fill="black"/>
<path d="M-118.687 481.702C-118.109 482.692 -118.308 484.057 -119.132 484.752C-119.955 485.446 -121.091 485.207 -121.669 484.218C-122.247 483.228 -122.048 481.862 -121.225 481.168C-120.401 480.473 -119.265 480.712 -118.687 481.702Z" fill="black"/>
<path d="M-172.687 578.702C-172.109 579.692 -172.308 581.057 -173.132 581.752C-173.955 582.446 -175.091 582.207 -175.669 581.218C-176.247 580.228 -176.048 578.862 -175.225 578.168C-174.401 577.473 -173.265 577.712 -172.687 578.702Z" fill="black"/>
<path d="M-17.0807 404.214C-16.5592 405.107 -16.7388 406.339 -17.4818 406.966C-18.2248 407.592 -19.2499 407.377 -19.7715 406.484C-20.293 405.591 -20.1134 404.359 -19.3704 403.732C-18.6274 403.105 -17.6023 403.321 -17.0807 404.214Z" fill="black"/>
<path d="M352.148 211.971C352.047 210.942 352.724 209.897 353.66 209.637C354.597 209.377 355.439 210.001 355.54 211.03C355.642 212.059 354.965 213.104 354.028 213.364C353.091 213.624 352.25 213 352.148 211.971Z" fill="black"/>
<path d="M417.844 304.391C417.45 303.435 417.796 302.239 418.618 301.719C419.44 301.2 420.426 301.554 420.82 302.51C421.215 303.466 420.868 304.662 420.046 305.181C419.225 305.701 418.239 305.347 417.844 304.391Z" fill="black"/>
<path d="M372.286 403.746C371.892 402.79 372.239 401.594 373.06 401.075C373.882 400.556 374.868 400.91 375.262 401.866C375.657 402.822 375.31 404.018 374.489 404.537C373.667 405.056 372.681 404.702 372.286 403.746Z" fill="black"/>
<path d="M240.286 340.746C239.892 339.79 240.238 338.594 241.06 338.075C241.882 337.556 242.868 337.91 243.262 338.866C243.657 339.822 243.31 341.018 242.488 341.537C241.667 342.056 240.681 341.702 240.286 340.746Z" fill="black"/>
<path d="M188.286 222.746C187.892 221.79 188.238 220.594 189.06 220.075C189.882 219.556 190.868 219.91 191.262 220.866C191.657 221.822 191.31 223.018 190.488 223.537C189.667 224.056 188.681 223.702 188.286 222.746Z" fill="black"/>
<path d="M136.286 104.746C135.892 103.79 136.238 102.594 137.06 102.075C137.882 101.556 138.868 101.91 139.262 102.866C139.657 103.822 139.31 105.018 138.488 105.537C137.667 106.056 136.681 105.702 136.286 104.746Z" fill="black"/>
<path d="M167.284 275.264C167.284 276.093 166.613 276.764 165.784 276.764C164.956 276.764 164.284 276.093 164.284 275.264C164.284 274.436 164.956 273.764 165.784 273.764C166.613 273.764 167.284 274.436 167.284 275.264Z" fill="black"/>
<path d="M-11.6191 234.924C-10.9361 235.393 -10.7623 236.327 -11.2311 237.01C-11.6998 237.693 -12.6335 237.867 -13.3166 237.398C-13.9997 236.929 -14.1734 235.995 -13.7047 235.312C-13.2359 234.629 -12.3022 234.456 -11.6191 234.924Z" fill="black"/>
<path d="M146.686 448.427C147.162 449.105 146.998 450.041 146.32 450.517C145.642 450.993 144.706 450.829 144.23 450.151C143.754 449.473 143.918 448.537 144.596 448.061C145.274 447.585 146.21 447.749 146.686 448.427Z" fill="black"/>
<path d="M-3.0795 364.447C-2.67755 365.02 -2.81593 365.81 -3.38858 366.212C-3.96123 366.614 -4.75128 366.475 -5.15323 365.903C-5.55518 365.33 -5.41679 364.54 -4.84415 364.138C-4.2715 363.736 -3.48145 363.875 -3.0795 364.447Z" fill="black"/>
<path d="M-113.173 521.632C-112.595 522.622 -112.794 523.987 -113.617 524.682C-114.44 525.376 -115.577 525.137 -116.155 524.148C-116.733 523.158 -116.534 521.792 -115.71 521.098C-114.887 520.403 -113.751 520.642 -113.173 521.632Z" fill="black"/>
<path d="M-167.173 618.632C-166.595 619.622 -166.793 620.987 -167.617 621.682C-168.44 622.376 -169.577 622.137 -170.155 621.148C-170.733 620.158 -170.534 618.792 -169.71 618.098C-168.887 617.403 -167.751 617.642 -167.173 618.632Z" fill="black"/>
<path d="M-12.1049 440.243C-11.5834 441.136 -11.763 442.368 -12.506 442.994C-13.249 443.621 -14.2741 443.405 -14.7956 442.512C-15.3172 441.619 -15.1376 440.387 -14.3946 439.761C-13.6516 439.134 -12.6264 439.35 -12.1049 440.243Z" fill="black"/>
<path d="M362.651 177.15C362.549 176.121 363.226 175.076 364.163 174.816C365.1 174.556 365.941 175.18 366.043 176.209C366.145 177.238 365.468 178.283 364.531 178.543C363.594 178.803 362.753 178.179 362.651 177.15Z" fill="black"/>
<path d="M417.847 268.02C417.453 267.064 417.799 265.868 418.621 265.349C419.443 264.829 420.429 265.184 420.823 266.14C421.218 267.096 420.871 268.291 420.049 268.811C419.228 269.33 418.242 268.976 417.847 268.02Z" fill="black"/>
<path d="M372.289 367.376C371.895 366.42 372.242 365.224 373.063 364.704C373.885 364.185 374.871 364.539 375.266 365.495C375.66 366.451 375.313 367.647 374.492 368.166C373.67 368.686 372.684 368.332 372.289 367.376Z" fill="black"/>
<path d="M240.289 304.376C239.895 303.42 240.242 302.224 241.063 301.704C241.885 301.185 242.871 301.539 243.266 302.495C243.66 303.451 243.313 304.647 242.492 305.166C241.67 305.686 240.684 305.332 240.289 304.376Z" fill="black"/>
<path d="M188.289 186.376C187.895 185.42 188.242 184.224 189.063 183.704C189.885 183.185 190.871 183.539 191.266 184.495C191.66 185.451 191.313 186.647 190.492 187.166C189.67 187.686 188.684 187.332 188.289 186.376Z" fill="black"/>
<path d="M136.289 68.3756C135.895 67.4196 136.242 66.2237 137.063 65.7045C137.885 65.1853 138.871 65.5394 139.266 66.4954C139.66 67.4514 139.313 68.6473 138.492 69.1665C137.67 69.6857 136.684 69.3316 136.289 68.3756Z" fill="black"/>
<path d="M236.284 264.264C236.284 265.093 235.613 265.764 234.784 265.764C233.956 265.764 233.284 265.093 233.284 264.264C233.284 263.436 233.956 262.764 234.784 262.764C235.613 262.764 236.284 263.436 236.284 264.264Z" fill="black"/>
<path d="M18.3529 171.808C19.0359 172.277 19.2097 173.21 18.7409 173.894C18.2722 174.577 17.3385 174.75 16.6554 174.282C15.9724 173.813 15.7986 172.879 16.2674 172.196C16.7361 171.513 17.6698 171.339 18.3529 171.808Z" fill="black"/>
<path d="M196.842 399.783C197.318 400.461 197.155 401.396 196.476 401.872C195.798 402.348 194.863 402.184 194.387 401.506C193.911 400.828 194.075 399.893 194.753 399.417C195.431 398.941 196.366 399.105 196.842 399.783Z" fill="black"/>
<path d="M39.2793 323.365C39.6812 323.938 39.5428 324.728 38.9702 325.13C38.3975 325.532 37.6075 325.394 37.2055 324.821C36.8036 324.248 36.942 323.458 37.5146 323.056C38.0873 322.654 38.8773 322.793 39.2793 323.365Z" fill="black"/>
<path d="M-52.26 450.63C-51.682 451.619 -51.881 452.985 -52.7045 453.68C-53.528 454.374 -54.6641 454.135 -55.2421 453.145C-55.8201 452.156 -55.6211 450.79 -54.7976 450.095C-53.9742 449.401 -52.838 449.64 -52.26 450.63Z" fill="black"/>
<path d="M-106.26 547.63C-105.682 548.619 -105.881 549.985 -106.704 550.68C-107.528 551.374 -108.664 551.135 -109.242 550.145C-109.82 549.156 -109.621 547.79 -108.798 547.095C-107.974 546.401 -106.838 546.64 -106.26 547.63Z" fill="black"/>
<path d="M42.8564 376.177C43.3779 377.07 43.1983 378.302 42.4553 378.929C41.7123 379.556 40.6872 379.34 40.1657 378.447C39.6441 377.554 39.8237 376.322 40.5667 375.695C41.3097 375.069 42.3349 375.284 42.8564 376.177Z" fill="black"/>
<path d="M285.98 212.457C285.878 211.428 286.555 210.383 287.492 210.123C288.429 209.864 289.27 210.487 289.372 211.516C289.473 212.546 288.796 213.59 287.86 213.85C286.923 214.11 286.081 213.486 285.98 212.457Z" fill="black"/>
<path d="M354.633 323.958C354.239 323.002 354.586 321.806 355.407 321.287C356.229 320.768 357.215 321.122 357.61 322.078C358.004 323.034 357.657 324.23 356.836 324.749C356.014 325.268 355.028 324.914 354.633 323.958Z" fill="black"/>
<path d="M309.076 423.314C308.681 422.358 309.028 421.162 309.85 420.643C310.671 420.124 311.657 420.478 312.052 421.434C312.446 422.39 312.1 423.586 311.278 424.105C310.456 424.624 309.47 424.27 309.076 423.314Z" fill="black"/>
<path d="M177.076 360.314C176.681 359.358 177.028 358.162 177.85 357.643C178.671 357.124 179.657 357.478 180.052 358.434C180.446 359.39 180.1 360.586 179.278 361.105C178.456 361.624 177.47 361.27 177.076 360.314Z" fill="black"/>
<path d="M48.9983 266.376C48.6039 265.42 48.9504 264.224 49.7722 263.704C50.5941 263.185 51.58 263.539 51.9744 264.495C52.3687 265.451 52.0222 266.647 51.2004 267.166C50.3786 267.686 49.3927 267.332 48.9983 266.376Z" fill="black"/>
<path d="M48.9983 266.376C48.6039 265.42 48.9504 264.224 49.7722 263.704C50.5941 263.185 51.58 263.539 51.9744 264.495C52.3687 265.451 52.0222 266.647 51.2004 267.166C50.3786 267.686 49.3927 267.332 48.9983 266.376Z" fill="black"/>
<path d="M-91.5258 204.437C-91.9202 203.481 -91.5737 202.285 -90.7519 201.766C-89.93 201.247 -88.9441 201.601 -88.5497 202.557C-88.1553 203.513 -88.5019 204.709 -89.3237 205.228C-90.1455 205.747 -91.1315 205.393 -91.5258 204.437Z" fill="black"/>
<path d="M183.474 482.437C183.08 481.481 183.426 480.285 184.248 479.766C185.07 479.247 186.056 479.601 186.45 480.557C186.845 481.513 186.498 482.709 185.676 483.228C184.854 483.747 183.869 483.393 183.474 482.437Z" fill="black"/>
<path d="M73.0755 124.314C72.6812 123.358 73.0276 122.162 73.8495 121.643C74.6713 121.124 75.6573 121.478 76.0516 122.434C76.446 123.39 76.0995 124.586 75.2776 125.105C74.4558 125.624 73.4699 125.27 73.0755 124.314Z" fill="black"/>
<path d="M-67.4486 62.3756C-67.843 61.4196 -67.4965 60.2237 -66.6747 59.7045C-65.8528 59.1853 -64.8669 59.5394 -64.4725 60.4954C-64.0781 61.4514 -64.4247 62.6473 -65.2465 63.1665C-66.0683 63.6857 -67.0542 63.3316 -67.4486 62.3756Z" fill="black"/>
<path d="M207.551 340.376C207.157 339.42 207.504 338.224 208.325 337.704C209.147 337.185 210.133 337.539 210.528 338.495C210.922 339.451 210.575 340.647 209.754 341.166C208.932 341.686 207.946 341.332 207.551 340.376Z" fill="black"/>
<path d="M255.284 303.264C255.284 304.093 254.613 304.764 253.784 304.764C252.956 304.764 252.284 304.093 252.284 303.264C252.284 302.436 252.956 301.764 253.784 301.764C254.613 301.764 255.284 302.436 255.284 303.264Z" fill="black"/>
<path d="M114.76 241.326C114.76 242.154 114.089 242.826 113.26 242.826C112.432 242.826 111.76 242.154 111.76 241.326C111.76 240.498 112.432 239.826 113.26 239.826C114.089 239.826 114.76 240.498 114.76 241.326Z" fill="black"/>
<path d="M389.76 519.326C389.76 520.154 389.089 520.826 388.26 520.826C387.432 520.826 386.76 520.154 386.76 519.326C386.76 518.498 387.432 517.826 388.26 517.826C389.089 517.826 389.76 518.498 389.76 519.326Z" fill="black"/>
<path d="M61.2601 178.209C61.9431 178.678 62.1169 179.612 61.6481 180.295C61.1794 180.978 60.2457 181.151 59.5626 180.683C58.8795 180.214 58.7058 179.28 59.1745 178.597C59.6433 177.914 60.577 177.74 61.2601 178.209Z" fill="black"/>
<path d="M-79.2641 116.271C-78.581 116.739 -78.4073 117.673 -78.876 118.356C-79.3447 119.039 -80.2785 119.213 -80.9615 118.744C-81.6446 118.275 -81.8183 117.342 -81.3496 116.659C-80.8808 115.976 -79.9471 115.802 -79.2641 116.271Z" fill="black"/>
<path d="M195.736 394.271C196.419 394.739 196.593 395.673 196.124 396.356C195.655 397.039 194.722 397.213 194.039 396.744C193.356 396.275 193.182 395.342 193.651 394.659C194.119 393.976 195.053 393.802 195.736 394.271Z" fill="black"/>
<path d="M234.8 420.788C235.276 421.466 235.112 422.402 234.434 422.878C233.756 423.354 232.82 423.19 232.344 422.512C231.868 421.834 232.032 420.898 232.71 420.422C233.388 419.946 234.324 420.11 234.8 420.788Z" fill="black"/>
<path d="M94.2756 358.85C94.7516 359.528 94.5877 360.464 93.9096 360.939C93.2316 361.415 92.2961 361.252 91.8201 360.574C91.3442 359.895 91.508 358.96 92.1861 358.484C92.8642 358.008 93.7997 358.172 94.2756 358.85Z" fill="black"/>
<path d="M369.276 636.85C369.752 637.528 369.588 638.464 368.91 638.939C368.232 639.415 367.296 639.252 366.82 638.574C366.344 637.895 366.508 636.96 367.186 636.484C367.864 636.008 368.8 636.172 369.276 636.85Z" fill="black"/>
<path d="M-69.1889 279.167C-68.7869 279.739 -68.9253 280.53 -69.4979 280.931C-70.0706 281.333 -70.8606 281.195 -71.2626 280.622C-71.6645 280.05 -71.5262 279.26 -70.9535 278.858C-70.3809 278.456 -69.5908 278.594 -69.1889 279.167Z" fill="black"/>
<path d="M205.811 557.167C206.213 557.739 206.075 558.53 205.502 558.931C204.93 559.333 204.139 559.195 203.737 558.622C203.336 558.05 203.474 557.26 204.047 556.858C204.619 556.456 205.409 556.594 205.811 557.167Z" fill="black"/>
<path d="M-6.16304 481.29C-5.58504 482.279 -5.78404 483.645 -6.60751 484.34C-7.43098 485.034 -8.56709 484.795 -9.1451 483.805C-9.7231 482.816 -9.52411 481.45 -8.70064 480.755C-7.87717 480.061 -6.74104 480.3 -6.16304 481.29Z" fill="black"/>
<path d="M-146.687 419.351C-146.109 420.341 -146.308 421.706 -147.132 422.401C-147.955 423.096 -149.091 422.857 -149.669 421.867C-150.247 420.877 -150.048 419.512 -149.225 418.817C-148.401 418.122 -147.265 418.362 -146.687 419.351Z" fill="black"/>
<path d="M128.313 697.351C128.891 698.341 128.692 699.706 127.868 700.401C127.045 701.096 125.909 700.857 125.331 699.867C124.753 698.877 124.952 697.512 125.775 696.817C126.599 696.122 127.735 696.362 128.313 697.351Z" fill="black"/>
<path d="M-60.163 578.29C-59.585 579.279 -59.784 580.645 -60.6075 581.34C-61.431 582.034 -62.5671 581.795 -63.1451 580.805C-63.7231 579.816 -63.5241 578.45 -62.7006 577.755C-61.8772 577.061 -60.741 577.3 -60.163 578.29Z" fill="black"/>
<path d="M-200.687 516.351C-200.109 517.341 -200.308 518.706 -201.132 519.401C-201.955 520.096 -203.091 519.857 -203.669 518.867C-204.247 517.877 -204.048 516.512 -203.225 515.817C-202.401 515.122 -201.265 515.362 -200.687 516.351Z" fill="black"/>
<path d="M74.3128 794.351C74.8908 795.341 74.6919 796.706 73.8684 797.401C73.0449 798.096 71.9088 797.857 71.3308 796.867C70.7528 795.877 70.9518 794.512 71.7753 793.817C72.5988 793.122 73.7348 793.362 74.3128 794.351Z" fill="black"/>
<path d="M84.4496 403.842C84.9712 404.735 84.7916 405.967 84.0486 406.594C83.3056 407.22 82.2805 407.005 81.7589 406.112C81.2374 405.219 81.417 403.987 82.16 403.36C82.903 402.733 83.9281 402.949 84.4496 403.842Z" fill="black"/>
<path d="M259.713 169.968C259.611 168.938 260.288 167.894 261.225 167.634C262.162 167.374 263.004 167.997 263.105 169.027C263.207 170.056 262.53 171.101 261.593 171.361C260.656 171.62 259.815 170.997 259.713 169.968Z" fill="black"/>
<path d="M317.219 290.86C316.824 289.904 317.171 288.708 317.993 288.189C318.815 287.67 319.801 288.024 320.195 288.98C320.589 289.936 320.243 291.132 319.421 291.651C318.599 292.17 317.613 291.816 317.219 290.86Z" fill="black"/>
<path d="M271.661 390.216C271.267 389.26 271.613 388.064 272.435 387.545C273.257 387.026 274.243 387.38 274.637 388.336C275.031 389.292 274.685 390.488 273.863 391.007C273.041 391.526 272.055 391.172 271.661 390.216Z" fill="black"/>
<path d="M139.661 327.216C139.267 326.26 139.613 325.064 140.435 324.545C141.257 324.026 142.243 324.38 142.637 325.336C143.031 326.292 142.685 327.488 141.863 328.007C141.041 328.526 140.055 328.172 139.661 327.216Z" fill="black"/>
<path d="M87.661 209.216C87.2666 208.26 87.6131 207.064 88.435 206.545C89.2568 206.026 90.2427 206.38 90.6371 207.336C91.0315 208.292 90.685 209.488 89.8631 210.007C89.0413 210.526 88.0554 210.172 87.661 209.216Z" fill="black"/>
<path d="M35.661 91.2162C35.2666 90.2602 35.6131 89.0643 36.4349 88.5451C37.2568 88.0259 38.2427 88.38 38.6371 89.336C39.0314 90.292 38.6849 91.4879 37.8631 92.0071C37.0413 92.5263 36.0553 92.1722 35.661 91.2162Z" fill="black"/>
<path d="M297.284 324.264C297.284 325.093 296.613 325.764 295.784 325.764C294.956 325.764 294.284 325.093 294.284 324.264C294.284 323.436 294.956 322.764 295.784 322.764C296.613 322.764 297.284 323.436 297.284 324.264Z" fill="black"/>
<path d="M102.34 155.461C103.023 155.93 103.197 156.864 102.728 157.547C102.259 158.23 101.325 158.404 100.642 157.935C99.9592 157.466 99.7854 156.532 100.254 155.849C100.723 155.166 101.657 154.993 102.34 155.461Z" fill="black"/>
<path d="M281.241 413.847C281.717 414.526 281.553 415.461 280.875 415.937C280.197 416.413 279.262 416.249 278.786 415.571C278.31 414.893 278.474 413.957 279.152 413.482C279.83 413.006 280.765 413.169 281.241 413.847Z" fill="black"/>
<path d="M110.556 335.243C110.958 335.816 110.82 336.606 110.247 337.008C109.675 337.41 108.885 337.272 108.483 336.699C108.081 336.126 108.219 335.336 108.792 334.934C109.364 334.532 110.155 334.671 110.556 335.243Z" fill="black"/>
<path d="M50.2377 471.159C50.8157 472.148 50.6167 473.514 49.7932 474.208C48.9697 474.903 47.8336 474.664 47.2556 473.674C46.6776 472.685 46.8766 471.319 47.7001 470.624C48.5235 469.93 49.6597 470.169 50.2377 471.159Z" fill="black"/>
<path d="M-3.76234 568.159C-3.18434 569.148 -3.38335 570.514 -4.20682 571.208C-5.03029 571.903 -6.1664 571.664 -6.7444 570.674C-7.3224 569.685 -7.12341 568.319 -6.29994 567.624C-5.47647 566.93 -4.34035 567.169 -3.76234 568.159Z" fill="black"/>
<path d="M135.34 394.701C135.861 395.594 135.682 396.826 134.939 397.452C134.196 398.079 133.171 397.863 132.649 396.97C132.128 396.077 132.307 394.845 133.05 394.219C133.793 393.592 134.818 393.808 135.34 394.701Z" fill="black"/>
<path d="M209.647 157.053C209.545 156.024 210.222 154.979 211.159 154.719C212.096 154.459 212.938 155.083 213.039 156.112C213.141 157.141 212.464 158.186 211.527 158.446C210.59 158.706 209.749 158.082 209.647 157.053Z" fill="black"/>
<path d="M265.556 292.949C265.162 291.993 265.508 290.797 266.33 290.278C267.152 289.759 268.138 290.113 268.532 291.069C268.927 292.025 268.58 293.221 267.758 293.74C266.936 294.259 265.951 293.905 265.556 292.949Z" fill="black"/>
<path d="M219.998 392.305C219.604 391.349 219.95 390.153 220.772 389.634C221.594 389.115 222.58 389.469 222.974 390.425C223.369 391.381 223.022 392.577 222.2 393.096C221.379 393.615 220.393 393.261 219.998 392.305Z" fill="black"/>
<path d="M87.9983 329.305C87.6039 328.349 87.9504 327.153 88.7722 326.634C89.5941 326.115 90.58 326.469 90.9744 327.425C91.3688 328.381 91.0222 329.577 90.2004 330.096C89.3786 330.615 88.3927 330.261 87.9983 329.305Z" fill="black"/>
<path d="M35.9983 211.305C35.6039 210.349 35.9504 209.153 36.7722 208.634C37.5941 208.115 38.58 208.469 38.9744 209.425C39.3688 210.381 39.0222 211.577 38.2004 212.096C37.3786 212.615 36.3927 212.261 35.9983 211.305Z" fill="black"/>
<path d="M-13.7996 84.6364C-14.194 83.6804 -13.8475 82.4845 -13.0257 81.9653C-12.2038 81.4461 -11.2179 81.8002 -10.8235 82.7562C-10.4291 83.7122 -10.7757 84.9081 -11.5975 85.4273C-12.4193 85.9465 -13.4052 85.5924 -13.7996 84.6364Z" fill="black"/>
<path d="M59.8268 387.48C59.8268 387.48 55.4452 384.225 44.5051 383.158L49.5351 399.626C58.0117 392.628 59.8268 387.48 59.8268 387.48ZM43.1236 382.909C30.6171 381.688 10.1313 383.129 -21.1524 394.272C-22.1563 394.606 -23.0854 394.93 -23.9431 395.242C-24.801 395.555 -25.587 395.855 -26.3043 396.14C-27.0216 396.425 -27.6705 396.695 -28.2532 396.947C-28.8366 397.199 -29.3537 397.434 -29.8079 397.647C-30.2628 397.861 -30.6549 398.053 -30.9863 398.222C-31.3185 398.39 -31.5908 398.536 -31.8059 398.654C-32.2376 398.891 -32.4405 399.021 -32.4405 399.021C-32.4405 399.021 -32.4126 398.979 -32.3122 398.881C-32.2116 398.784 -32.0387 398.631 -31.7492 398.411C-31.6042 398.3 -31.4303 398.173 -31.2214 398.027C-31.0126 397.881 -30.7692 397.717 -30.485 397.532C-30.201 397.347 -29.8767 397.142 -29.5068 396.915C-29.1369 396.688 -28.7205 396.439 -28.2534 396.167C-27.7856 395.895 -27.3028 395.629 -26.8153 395.37C-26.3283 395.113 -25.8364 394.864 -25.3518 394.627C-24.8662 394.39 -24.3889 394.164 -23.9287 393.952C-23.7483 393.869 -23.587 393.799 -23.4128 393.722L-53.8558 386.301L-61.7028 388.588L-40.6798 404.834L-33.2472 429.168L-41.6051 454.388L-33.7615 452.09L-12.7498 428.829C-12.9422 428.862 -13.1195 428.895 -13.3206 428.928C-13.8204 429.01 -14.3432 429.089 -14.8778 429.163C-15.4114 429.238 -15.9584 429.306 -16.5061 429.365C-17.0545 429.424 -17.6031 429.472 -18.1432 429.507C-18.6826 429.543 -19.1656 429.568 -19.5992 429.587C-20.0333 429.606 -20.4169 429.617 -20.7552 429.622C-21.0934 429.627 -21.3878 429.627 -21.642 429.622C-21.897 429.618 -22.1122 429.609 -22.2942 429.599C-22.6573 429.578 -22.886 429.548 -23.0238 429.524C-23.1617 429.499 -23.2083 429.48 -23.2083 429.48C-23.2083 429.48 -22.9666 429.474 -22.4778 429.429C-22.2327 429.407 -21.9262 429.375 -21.5565 429.33C-21.1873 429.285 -20.7547 429.225 -20.2588 429.148C-19.7629 429.071 -19.2031 428.977 -18.5791 428.86C-17.9548 428.744 -17.2659 428.605 -16.5116 428.441C-15.7581 428.277 -14.9393 428.087 -14.0534 427.866C-13.168 427.646 -12.2166 427.396 -11.1983 427.112C21.0174 418.871 38.8318 408.611 48.5286 400.604L43.1236 382.909ZM24.0205 398.345C24.0238 398.354 24.0264 398.362 24.0283 398.371C24.0337 398.386 24.0382 398.401 24.0421 398.416C24.0466 398.431 24.0518 398.445 24.0556 398.46C24.0604 398.476 24.064 398.49 24.0685 398.505C24.0732 398.52 24.077 398.535 24.0808 398.55C24.0854 398.565 24.0899 398.58 24.0937 398.595C24.0975 398.61 24.1022 398.626 24.1061 398.641C24.1099 398.656 24.1137 398.671 24.1175 398.686C24.122 398.7 24.1258 398.715 24.1297 398.73C24.1337 398.746 24.1373 398.76 24.1411 398.775C24.1451 398.791 24.1489 398.806 24.1521 398.821C24.1559 398.836 24.1597 398.851 24.1628 398.867C24.1666 398.882 24.1704 398.897 24.1742 398.912C24.1773 398.927 24.1812 398.942 24.1845 398.958C24.1876 398.973 24.1914 398.988 24.1943 399.003C24.1983 399.018 24.2014 399.034 24.2046 399.049C24.2077 399.064 24.2115 399.079 24.2146 399.094C24.2179 399.11 24.2208 399.125 24.2239 399.14C24.227 399.155 24.2301 399.17 24.2333 399.186C24.2364 399.201 24.2388 399.216 24.2419 399.232C24.245 399.247 24.2474 399.262 24.2505 399.277C24.2536 399.293 24.256 399.308 24.2591 399.323C24.2622 399.339 24.2639 399.354 24.267 399.369C24.2695 399.385 24.2726 399.4 24.275 399.416C24.2774 399.431 24.2798 399.446 24.2829 399.462C24.2853 399.477 24.2877 399.493 24.2901 399.508C24.2925 399.523 24.2949 399.539 24.2971 399.554C24.2995 399.569 24.3019 399.585 24.3043 399.6C24.3067 399.615 24.3091 399.631 24.3108 399.647C24.313 399.661 24.3149 399.678 24.3171 399.692C24.3195 399.708 24.3212 399.723 24.3236 399.739C24.3253 399.755 24.3277 399.77 24.3292 399.785C24.3309 399.801 24.3326 399.816 24.335 399.832C24.3367 399.847 24.3382 399.862 24.3399 399.878C24.3416 399.894 24.3433 399.909 24.3448 399.924C24.3465 399.94 24.3489 399.955 24.3497 399.971C24.3514 399.986 24.3531 400.002 24.3548 400.018C24.3556 400.033 24.3573 400.048 24.359 400.064C24.3598 400.079 24.3615 400.095 24.3632 400.11C24.3639 400.126 24.3656 400.141 24.3664 400.157C24.3681 400.172 24.3691 400.188 24.3699 400.203C24.3716 400.219 24.3719 400.235 24.3734 400.25C24.3744 400.266 24.3751 400.281 24.3761 400.297C24.3771 400.313 24.3779 400.328 24.3787 400.343C24.3797 400.359 24.3805 400.374 24.3815 400.39C24.3823 400.405 24.3833 400.421 24.384 400.436C24.3843 400.452 24.3851 400.467 24.3861 400.483C24.3862 400.499 24.3869 400.514 24.3872 400.53C24.388 400.545 24.3883 400.561 24.3884 400.577C24.3892 400.592 24.3895 400.608 24.3902 400.623C24.3905 400.639 24.3906 400.654 24.3907 400.67C24.391 400.686 24.3908 400.701 24.3911 400.717C24.3921 400.733 24.392 400.747 24.3916 400.764C24.3923 400.779 24.3917 400.794 24.3918 400.81C24.3921 400.826 24.3921 400.841 24.3915 400.857C24.3916 400.872 24.3917 400.888 24.3918 400.903C24.3913 400.919 24.3914 400.935 24.3908 400.95C24.3902 400.966 24.3902 400.981 24.3896 400.997C24.3897 401.012 24.3891 401.028 24.3884 401.043C24.3885 401.059 24.3879 401.074 24.3872 401.09C24.3866 401.106 24.386 401.121 24.3854 401.137C24.3847 401.152 24.3841 401.168 24.3835 401.184C24.3828 401.199 24.382 401.214 24.3814 401.23C24.3807 401.245 24.3794 401.261 24.3788 401.277C24.3781 401.292 24.3768 401.308 24.376 401.323C24.3746 401.339 24.374 401.354 24.3731 401.369C24.3718 401.385 24.3705 401.401 24.3698 401.417C24.3683 401.432 24.367 401.447 24.3663 401.463C24.3648 401.478 24.3634 401.494 24.3628 401.51C24.3613 401.525 24.3599 401.541 24.3586 401.556C24.357 401.571 24.3557 401.587 24.3542 401.602C24.3528 401.618 24.3506 401.634 24.3497 401.648C24.3477 401.664 24.3464 401.68 24.3448 401.695C24.3428 401.711 24.3412 401.727 24.3397 401.742C24.3374 401.757 24.3361 401.773 24.3338 401.788C24.3325 401.804 24.3303 401.819 24.3287 401.834C24.3267 401.85 24.3244 401.866 24.3228 401.881C24.3206 401.896 24.3183 401.911 24.3163 401.928C24.3141 401.943 24.3125 401.958 24.3103 401.973C24.3073 401.989 24.306 402.005 24.3037 402.02C24.3014 402.035 24.2985 402.051 24.2962 402.066C24.294 402.081 24.2917 402.097 24.2888 402.112C24.2872 402.127 24.2843 402.143 24.282 402.158C24.2791 402.174 24.2766 402.188 24.2743 402.204C24.2714 402.219 24.2684 402.235 24.2662 402.25C24.263 402.265 24.2609 402.281 24.258 402.297C24.255 402.312 24.2525 402.327 24.2496 402.342C24.2464 402.357 24.2435 402.373 24.2405 402.388C24.2375 402.404 24.2351 402.418 24.2314 402.434C24.2282 402.449 24.226 402.464 24.2223 402.48C24.2191 402.495 24.2162 402.51 24.213 402.525C24.21 402.541 24.2069 402.556 24.2032 402.571C24.2 402.586 24.1962 402.601 24.1932 402.617C24.19 402.632 24.1868 402.647 24.1832 402.662C24.18 402.677 24.1754 402.692 24.1725 402.708C24.1686 402.723 24.1654 402.738 24.1617 402.754C24.1579 402.769 24.1547 402.783 24.1508 402.799C24.1469 402.814 24.1431 402.829 24.1394 402.844C24.1353 402.859 24.1314 402.874 24.1275 402.889C24.1237 402.904 24.12 402.92 24.1161 402.935C24.1122 402.95 24.1082 402.964 24.1043 402.979C24.0997 402.994 24.0958 403.009 24.0919 403.025C24.088 403.04 24.0835 403.055 24.0787 403.069C24.0748 403.084 24.0709 403.099 24.0663 403.115C24.0622 403.129 24.0576 403.144 24.0531 403.16C24.049 403.174 24.0444 403.189 24.0403 403.204C24.0357 403.219 24.0311 403.234 24.0263 403.249C24.0215 403.263 24.0176 403.278 24.0128 403.293C24.0083 403.308 24.0035 403.323 23.9989 403.338C23.9941 403.353 23.9893 403.367 23.9847 403.382C23.9799 403.397 23.9744 403.412 23.9698 403.427C23.965 403.442 23.9602 403.456 23.9554 403.471C23.9499 403.485 23.9453 403.501 23.9398 403.515C23.935 403.53 23.9302 403.545 23.9247 403.559C23.9199 403.574 23.9144 403.589 23.9096 403.603C23.9041 403.618 23.8986 403.633 23.8938 403.647C23.8883 403.662 23.8826 403.676 23.8771 403.691C23.8716 403.706 23.8668 403.72 23.8613 403.735C23.8556 403.749 23.8501 403.764 23.8445 403.779C23.8388 403.793 23.8333 403.808 23.8278 403.822C23.8221 403.836 23.8166 403.851 23.8111 403.866C23.8054 403.88 23.7996 403.894 23.7934 403.909C23.7877 403.923 23.7815 403.938 23.7758 403.952C23.7701 403.966 23.7646 403.981 23.7581 403.995C23.7526 404.01 23.7462 404.025 23.7405 404.039C23.7343 404.054 23.7286 404.068 23.7222 404.082C23.7157 404.096 23.71 404.11 23.7036 404.125C23.6972 404.139 23.6914 404.153 23.685 404.167C23.6786 404.182 23.6722 404.196 23.6657 404.21C23.66 404.224 23.6536 404.238 23.6472 404.253C23.6407 404.267 23.6341 404.281 23.6277 404.295C23.6213 404.309 23.6141 404.324 23.6075 404.337C23.6011 404.352 23.5947 404.366 23.5882 404.38C23.5809 404.394 23.5745 404.408 23.5678 404.422C23.5614 404.436 23.554 404.45 23.5474 404.463C23.541 404.478 23.5336 404.492 23.5265 404.506C23.5199 404.52 23.5127 404.534 23.5061 404.548C23.4988 404.562 23.4923 404.576 23.485 404.59C23.4776 404.603 23.471 404.617 23.4637 404.631C23.4563 404.645 23.449 404.658 23.4416 404.672C23.435 404.686 23.4277 404.7 23.4203 404.713C23.413 404.727 23.4056 404.741 23.3983 404.755C23.3909 404.769 23.3836 404.782 23.3762 404.796C23.3687 404.809 23.3613 404.823 23.354 404.837C23.3467 404.851 23.3384 404.864 23.331 404.878C23.3237 404.892 23.3161 404.905 23.3081 404.919C23.3005 404.932 23.2932 404.946 23.2849 404.959C23.2776 404.973 23.2693 404.986 23.262 405C23.2537 405.013 23.2461 405.026 23.2379 405.04C23.2303 405.053 23.2223 405.067 23.214 405.08C23.2064 405.093 23.1984 405.107 23.1901 405.12C23.1826 405.133 23.1736 405.147 23.166 405.16C23.1578 405.173 23.1493 405.186 23.1413 405.2C23.1337 405.213 23.1252 405.226 23.1169 405.239C23.108 405.253 23.1004 405.266 23.0919 405.278C23.083 405.292 23.0754 405.305 23.0664 405.318C23.0582 405.332 23.0497 405.344 23.0412 405.357C23.033 405.37 23.0247 405.384 23.0155 405.396C23.0072 405.41 22.9988 405.422 22.9896 405.435C22.9813 405.448 22.9728 405.461 22.9637 405.474C22.9554 405.487 22.9462 405.5 22.937 405.513C22.9288 405.526 22.9203 405.539 22.9109 405.551C22.9026 405.564 22.8934 405.577 22.8842 405.59C22.8758 405.602 22.8666 405.615 22.8574 405.628C22.8489 405.641 22.8397 405.653 22.8306 405.666C22.8212 405.678 22.8127 405.691 22.8028 405.704C22.7941 405.716 22.7849 405.729 22.7757 405.742C22.7665 405.754 22.7571 405.766 22.748 405.779C22.7386 405.791 22.7294 405.804 22.72 405.816C22.7108 405.829 22.7014 405.841 22.692 405.853C22.6821 405.866 22.6727 405.879 22.6633 405.891C22.6539 405.903 22.6447 405.916 22.6353 405.928C22.6252 405.94 22.6158 405.952 22.6064 405.964C22.5965 405.977 22.5869 405.989 22.5775 406.001C22.5674 406.013 22.5573 406.026 22.5479 406.038C22.5385 406.05 22.5284 406.062 22.519 406.074C22.5087 406.086 22.4986 406.098 22.4892 406.11C22.4789 406.122 22.4695 406.134 22.4591 406.146C22.449 406.158 22.4396 406.17 22.4293 406.182C22.4192 406.194 22.4089 406.206 22.3986 406.217C22.3885 406.23 22.3788 406.241 22.3685 406.253C22.3584 406.265 22.3481 406.277 22.3378 406.288C22.3275 406.3 22.3171 406.311 22.3075 406.323C22.2972 406.335 22.2864 406.347 22.2759 406.358C22.2658 406.37 22.2552 406.381 22.2449 406.393C22.2346 406.404 22.2243 406.416 22.214 406.428C22.2036 406.439 22.1924 406.45 22.1821 406.462C22.1715 406.473 22.1612 406.485 22.1502 406.497C22.1397 406.507 22.1286 406.519 22.1183 406.531C22.1078 406.542 22.0965 406.553 22.0862 406.565C22.0757 406.576 22.0645 406.587 22.0541 406.598C22.0429 406.609 22.0324 406.62 22.0211 406.631C22.0106 406.642 21.9995 406.654 21.9888 406.664C21.9776 406.676 21.9663 406.687 21.956 406.698C21.9445 406.709 21.9333 406.72 21.9221 406.731C21.9115 406.742 21.9003 406.753 21.8898 406.764C21.8783 406.774 21.8671 406.786 21.8558 406.797C21.8451 406.807 21.8331 406.818 21.8224 406.829C21.8111 406.84 21.7997 406.85 21.7882 406.861C21.777 406.872 21.7658 406.883 21.755 406.893C21.7429 406.904 21.7321 406.914 21.7206 406.924C21.7087 406.936 21.698 406.946 21.6858 406.957C21.6743 406.967 21.6629 406.977 21.6514 406.988C21.64 406.998 21.6285 407.009 21.6171 407.019C21.6049 407.03 21.5934 407.04 21.582 407.051C21.5703 407.06 21.5589 407.071 21.5467 407.081C21.535 407.091 21.5236 407.102 21.5119 407.111C21.4997 407.122 21.4883 407.132 21.4759 407.142C21.4642 407.152 21.4528 407.163 21.4404 407.172C21.4288 407.182 21.4173 407.193 21.4049 407.203C21.3925 407.213 21.3811 407.223 21.3694 407.233C21.3571 407.243 21.3454 407.252 21.333 407.262C21.3213 407.272 21.309 407.282 21.2973 407.292C21.2849 407.302 21.2725 407.312 21.2607 407.321C21.2483 407.331 21.2359 407.34 21.2242 407.35C21.2116 407.359 21.1993 407.369 21.1876 407.379C21.175 407.388 21.1626 407.398 21.15 407.408C21.1377 407.417 21.1258 407.426 21.1132 407.436C21.1008 407.446 21.0882 407.455 21.0763 407.464C21.0637 407.473 21.0514 407.483 21.0388 407.492C21.0262 407.502 21.0136 407.511 21.001 407.52C20.9884 407.529 20.9758 407.539 20.9632 407.548C20.9507 407.557 20.9381 407.566 20.9255 407.575C20.9127 407.584 20.9001 407.593 20.8875 407.602C20.8747 407.611 20.8623 407.621 20.8495 407.63C20.8369 407.639 20.8241 407.647 20.8113 407.656C20.7987 407.665 20.7861 407.674 20.7726 407.683C20.7605 407.691 20.7472 407.701 20.7344 407.709C20.7216 407.718 20.7088 407.726 20.6953 407.735C20.6825 407.744 20.6699 407.753 20.6569 407.761C20.6436 407.77 20.6306 407.778 20.6178 407.787C20.605 407.795 20.5914 407.804 20.5786 407.812C20.5658 407.821 20.5521 407.829 20.5393 407.838C20.5265 407.846 20.513 407.855 20.5 407.863C20.4872 407.871 20.4734 407.879 20.4606 407.888C20.4471 407.896 20.4341 407.904 20.4204 407.912C20.4076 407.921 20.3936 407.928 20.3808 407.937C20.3671 407.945 20.3541 407.953 20.3411 407.96C20.3275 407.969 20.3145 407.977 20.3008 407.985C20.2871 407.993 20.2738 408 20.2601 408.008C20.2473 408.017 20.2334 408.024 20.2196 408.032C20.2066 408.04 20.1934 408.047 20.1797 408.055C20.1657 408.063 20.1527 408.07 20.1388 408.078C20.125 408.086 20.1118 408.093 20.0981 408.101C20.0841 408.108 20.0711 408.116 20.0572 408.123C20.0432 408.131 20.03 408.138 20.0163 408.146C20.0023 408.153 19.9884 408.161 19.9752 408.168C19.9612 408.175 19.9473 408.182 19.934 408.19C19.9201 408.197 19.9062 408.204 19.8922 408.212C19.8783 408.219 19.865 408.226 19.8509 408.233C19.8369 408.24 19.823 408.247 19.8088 408.254C19.7956 408.261 19.7815 408.268 19.7675 408.275C19.7534 408.282 19.7392 408.288 19.7253 408.296C19.7118 408.302 19.6977 408.309 19.6837 408.316C19.6696 408.323 19.6554 408.329 19.6412 408.336C19.6271 408.343 19.6136 408.349 19.5995 408.356C19.5846 408.363 19.5712 408.369 19.557 408.376C19.5429 408.382 19.5287 408.389 19.5145 408.395C19.5004 408.402 19.4862 408.409 19.4719 408.415C19.4577 408.421 19.4433 408.427 19.4292 408.434C19.415 408.441 19.4007 408.446 19.3865 408.453C19.3721 408.459 19.3578 408.465 19.3436 408.472C19.3292 408.478 19.3149 408.483 19.3007 408.49C19.2863 408.496 19.272 408.502 19.2576 408.508C19.2434 408.515 19.2288 408.52 19.2145 408.526C19.2003 408.532 19.1857 408.538 19.1714 408.543C19.1572 408.55 19.1424 408.555 19.128 408.561C19.1139 408.567 19.0993 408.572 19.0847 408.578C19.0706 408.584 19.0557 408.589 19.0407 408.595C19.0265 408.602 19.0117 408.606 18.9971 408.611C18.983 408.618 18.9682 408.622 18.9536 408.628C18.9388 408.632 18.9246 408.639 18.91 408.644C18.8952 408.649 18.8802 408.655 18.8656 408.66C18.8508 408.664 18.8364 408.67 18.8216 408.675C18.8068 408.679 18.7926 408.686 18.7778 408.691C18.763 408.695 18.7482 408.702 18.7334 408.707C18.7186 408.711 18.7044 408.718 18.6896 408.722C18.6748 408.727 18.6607 408.733 18.6459 408.738C18.6311 408.742 18.6156 408.747 18.6008 408.752C18.586 408.756 18.5711 408.761 18.5563 408.765C18.5415 408.77 18.5267 408.774 18.5119 408.779C18.5028 408.782 18.4943 408.784 18.4859 408.787C18.4711 408.791 18.4563 408.796 18.4415 408.8C18.4267 408.805 18.4112 408.81 18.3964 408.814C18.3816 408.819 18.3668 408.823 18.352 408.828C18.3371 408.832 18.3223 408.837 18.3075 408.841C18.2927 408.846 18.2766 408.848 18.2618 408.853C18.247 408.857 18.2315 408.86 18.2167 408.864C18.2019 408.869 18.1865 408.871 18.1717 408.876C18.1569 408.88 18.1407 408.883 18.1259 408.887C18.1111 408.892 18.0959 408.895 18.0811 408.9C18.0663 408.904 18.0509 408.907 18.0358 408.91C18.021 408.915 18.0049 408.917 17.9899 408.921C17.9751 408.926 17.9596 408.928 17.9446 408.932C17.9294 408.935 17.9146 408.94 17.8993 408.943C17.8839 408.945 17.8691 408.95 17.8539 408.953C17.8386 408.956 17.8229 408.96 17.8077 408.963C17.7929 408.965 17.7779 408.969 17.762 408.972C17.7465 408.975 17.7315 408.979 17.7163 408.982C17.7008 408.984 17.6858 408.988 17.6706 408.991C17.6551 408.993 17.6401 408.997 17.6247 409C17.6094 409.003 17.5942 409.006 17.579 409.009C17.5633 409.011 17.5483 409.015 17.5331 409.018C17.5176 409.02 17.5022 409.022 17.4869 409.026C17.4715 409.028 17.4567 409.03 17.4408 409.034C17.4254 409.036 17.4106 409.038 17.3952 409.041C17.3792 409.044 17.3645 409.046 17.3488 409.048C17.3336 409.051 17.3182 409.053 17.3025 409.055C17.2871 409.057 17.2716 409.06 17.2561 409.062C17.2407 409.065 17.226 409.067 17.2103 409.068C17.1949 409.071 17.1794 409.073 17.1637 409.075C17.1483 409.077 17.1328 409.08 17.1179 409.081C17.1024 409.084 17.0868 409.085 17.0711 409.087C17.0555 409.089 17.04 409.091 17.0251 409.093C17.0096 409.095 16.9939 409.097 16.979 409.098C16.9626 409.1 16.9477 409.102 16.932 409.103C16.9163 409.105 16.9014 409.107 16.8857 409.108C16.87 409.11 16.8551 409.111 16.8392 409.112C16.8238 409.115 16.8086 409.116 16.7929 409.117C16.7771 409.118 16.7614 409.12 16.7462 409.121C16.7306 409.123 16.7154 409.123 16.6997 409.125C16.6839 409.126 16.6687 409.127 16.653 409.129C16.6378 409.129 16.622 409.13 16.6063 409.132C16.5911 409.133 16.5753 409.134 16.5601 409.135C16.5442 409.136 16.5283 409.137 16.5131 409.137C16.4973 409.138 16.4821 409.139 16.4662 409.14C16.451 409.141 16.435 409.141 16.4198 409.142C16.4046 409.143 16.3887 409.144 16.3733 409.144C16.3575 409.145 16.3423 409.146 16.3269 409.146C16.3108 409.146 16.2956 409.147 16.2795 409.147C16.2644 409.148 16.249 409.148 16.2329 409.148C16.2175 409.148 16.2023 409.149 16.1862 409.149C16.1708 409.149 16.1555 409.15 16.1394 409.15C16.124 409.15 16.1086 409.15 16.0932 409.15C16.0771 409.15 16.0617 409.15 16.0463 409.15C16.0309 409.151 16.0149 409.151 16.0002 409.151C15.9839 409.15 15.9685 409.15 15.9529 409.15C15.9375 409.15 15.9219 409.149 15.9065 409.149C15.8911 409.149 15.8755 409.149 15.8592 409.148C15.8438 409.148 15.8289 409.148 15.8126 409.147C15.7972 409.147 15.7816 409.147 15.766 409.146C15.7511 409.145 15.7355 409.145 15.7192 409.144C15.7036 409.143 15.688 409.143 15.6731 409.142C15.6575 409.141 15.6419 409.141 15.6261 409.139C15.6105 409.139 15.5949 409.138 15.5793 409.138C15.5634 409.136 15.5485 409.135 15.5329 409.135C15.518 409.134 15.5022 409.133 15.4866 409.132C15.4708 409.131 15.4552 409.13 15.4401 409.128C15.4243 409.127 15.4087 409.126 15.3936 409.125C15.3779 409.124 15.3619 409.122 15.347 409.121C15.3312 409.12 15.3154 409.119 15.3003 409.117C15.2844 409.116 15.2693 409.114 15.2535 409.113C15.2384 409.111 15.2224 409.109 15.2073 409.108C15.1914 409.107 15.1763 409.105 15.1603 409.103C15.1452 409.101 15.1301 409.1 15.114 409.098C15.0989 409.096 15.0829 409.094 15.0678 409.093C15.0527 409.091 15.0373 409.089 15.0215 409.088C15.0062 409.085 14.9901 409.083 14.9748 409.081C14.9595 409.079 14.9444 409.077 14.929 409.075C14.9139 409.073 14.8979 409.071 14.8826 409.069C14.8672 409.067 14.8519 409.065 14.8366 409.062C14.8212 409.06 14.8057 409.057 14.7904 409.055C14.775 409.053 14.7597 409.05 14.7444 409.048C14.7284 409.046 14.7137 409.044 14.6982 409.041C14.6829 409.038 14.6673 409.036 14.652 409.033C14.6364 409.03 14.6211 409.028 14.6056 409.025C14.5902 409.023 14.5754 409.02 14.5599 409.017C14.5445 409.014 14.529 409.012 14.5141 409.008C14.4988 409.006 14.4833 409.003 14.4677 409C14.4529 408.997 14.4373 408.994 14.4225 408.991C14.407 408.988 14.3921 408.985 14.3766 408.982C14.361 408.979 14.346 408.975 14.3304 408.972C14.3156 408.969 14.3008 408.966 14.285 408.962C14.2702 408.959 14.2546 408.956 14.2396 408.952C14.224 408.949 14.209 408.945 14.1941 408.942C14.1786 408.939 14.1635 408.935 14.1487 408.932C14.1329 408.928 14.1179 408.924 14.103 408.921C14.0878 408.917 14.0729 408.914 14.0579 408.91C14.0421 408.906 14.0271 408.902 14.012 408.898C13.9972 408.895 13.9821 408.891 13.9668 408.887C13.952 408.883 13.9369 408.88 13.9217 408.875C13.9066 408.871 13.8916 408.867 13.8765 408.863C13.8615 408.859 13.8462 408.855 13.8311 408.851C13.8168 408.847 13.8015 408.842 13.7865 408.838C13.7712 408.834 13.7568 408.83 13.7418 408.826C13.7265 408.821 13.7122 408.817 13.6969 408.813C13.6816 408.808 13.6666 408.804 13.652 408.799C13.6367 408.795 13.6222 408.79 13.6071 408.786C13.5926 408.781 13.5773 408.777 13.5627 408.772C13.5474 408.767 13.5329 408.763 13.5183 408.758C13.503 408.753 13.4885 408.748 13.4732 408.744C13.4586 408.739 13.4441 408.734 13.4293 408.729C13.4147 408.724 13.3995 408.719 13.3849 408.715C13.3701 408.709 13.3556 408.704 13.341 408.7C13.3262 408.694 13.3109 408.689 13.2969 408.684C13.2816 408.679 13.2668 408.674 13.2523 408.669C13.2382 408.663 13.2229 408.659 13.2088 408.653C13.1941 408.647 13.1793 408.642 13.1645 408.636C13.1499 408.632 13.1352 408.626 13.1204 408.621C13.1063 408.615 13.0915 408.609 13.077 408.605C13.0627 408.598 13.0481 408.593 13.0338 408.587C13.019 408.581 13.0049 408.576 12.9902 408.57C12.9754 408.565 12.9613 408.559 12.947 408.553C12.9322 408.547 12.9175 408.542 12.9034 408.536C12.8891 408.529 12.8743 408.524 12.86 408.517C12.8459 408.512 12.8312 408.506 12.8169 408.5C12.8028 408.494 12.7878 408.488 12.7744 408.482C12.7599 408.475 12.7452 408.469 12.7318 408.463C12.7166 408.457 12.7025 408.451 12.6882 408.444C12.6741 408.439 12.6598 408.432 12.6456 408.426C12.6313 408.419 12.617 408.413 12.6027 408.407C12.5891 408.4 12.5748 408.394 12.5605 408.387C12.5462 408.381 12.5326 408.374 12.5183 408.368C12.5038 408.36 12.4903 408.354 12.476 408.347C12.4617 408.341 12.4481 408.334 12.4336 408.327C12.42 408.321 12.4055 408.313 12.3919 408.307C12.3776 408.3 12.3638 408.293 12.3502 408.286C12.3357 408.279 12.3221 408.273 12.3076 408.266C12.2938 408.258 12.2802 408.252 12.2664 408.244C12.2529 408.238 12.2384 408.23 12.2248 408.224C12.211 408.217 12.1972 408.209 12.1834 408.202C12.1696 408.194 12.1558 408.187 12.142 408.18C12.1284 408.173 12.1144 408.165 12.1008 408.158C12.0868 408.15 12.0737 408.143 12.0599 408.136C12.0461 408.128 12.0323 408.121 12.0185 408.114C12.0054 408.106 11.9913 408.098 11.9775 408.091C11.9644 408.083 11.9506 408.076 11.9373 408.067C11.9235 408.06 11.9104 408.053 11.8964 408.044C11.8833 408.037 11.8695 408.03 11.8562 408.021C11.8429 408.013 11.8291 408.006 11.8158 407.997C11.8027 407.99 11.7887 407.982 11.7754 407.974C11.7623 407.966 11.749 407.958 11.7356 407.95C11.7225 407.942 11.7092 407.934 11.6959 407.925C11.6826 407.917 11.6695 407.91 11.6562 407.901C11.6429 407.893 11.6296 407.885 11.6163 407.877C11.603 407.868 11.5904 407.86 11.577 407.852C11.5637 407.843 11.5504 407.835 11.5378 407.827C11.5245 407.818 11.511 407.809 11.4984 407.801C11.4851 407.793 11.4725 407.784 11.4589 407.775C11.4463 407.767 11.433 407.758 11.4204 407.75C11.4069 407.741 11.3943 407.733 11.3815 407.723C11.3688 407.715 11.3553 407.706 11.3427 407.697C11.3301 407.689 11.3173 407.68 11.3045 407.671C11.2919 407.662 11.2783 407.653 11.2662 407.644C11.2536 407.635 11.2401 407.626 11.2273 407.617C11.2154 407.608 11.2025 407.599 11.1897 407.59C11.1771 407.582 11.1643 407.572 11.1522 407.563C11.1394 407.554 11.1265 407.545 11.1144 407.535C11.1016 407.526 11.0888 407.517 11.0769 407.508C11.0638 407.498 11.0517 407.489 11.0389 407.48C11.0268 407.47 11.0146 407.461 11.0018 407.452C10.9897 407.442 10.9776 407.433 10.9646 407.423C10.9524 407.414 10.9403 407.404 10.9275 407.395C10.9152 407.385 10.903 407.376 10.8909 407.366C10.8786 407.356 10.8665 407.347 10.8544 407.337C10.842 407.327 10.8299 407.318 10.8183 407.308C10.8055 407.298 10.7938 407.288 10.7817 407.279C10.7694 407.269 10.7573 407.259 10.7457 407.249C10.7333 407.239 10.7212 407.229 10.7096 407.219C10.6975 407.21 10.6858 407.199 10.6735 407.189C10.6621 407.18 10.6505 407.169 10.6381 407.159C10.6258 407.149 10.6142 407.139 10.6026 407.128C10.5909 407.118 10.5795 407.109 10.5672 407.098C10.5553 407.087 10.5439 407.078 10.5323 407.067C10.5207 407.057 10.509 407.047 10.4974 407.037C10.4858 407.026 10.474 407.015 10.4623 407.005C10.4507 406.995 10.4398 406.984 10.4281 406.974C10.4165 406.963 10.4047 406.952 10.393 406.942C10.3821 406.932 10.3705 406.921 10.3594 406.91C10.3477 406.9 10.3361 406.889 10.325 406.878C10.314 406.868 10.3024 406.857 10.2913 406.846C10.2797 406.836 10.2685 406.825 10.2576 406.814C10.2467 406.803 10.2355 406.792 10.2239 406.782C10.2128 406.771 10.2016 406.759 10.1907 406.749C10.1796 406.738 10.1686 406.727 10.1575 406.716C10.1466 406.705 10.1355 406.694 10.1243 406.683C10.1132 406.672 10.103 406.661 10.0918 406.65C10.0807 406.638 10.0703 406.627 10.0593 406.616C10.0482 406.605 10.037 406.594 10.0266 406.583C10.0164 406.572 10.0051 406.56 9.99462 406.548C9.98348 406.537 9.97327 406.526 9.96213 406.515C9.9517 406.504 9.94125 406.492 9.93081 406.481C9.92017 406.469 9.90925 406.458 9.89882 406.447C9.88838 406.435 9.87795 406.424 9.8673 406.412C9.85687 406.4 9.84644 406.389 9.83601 406.377C9.82557 406.366 9.81563 406.353 9.8052 406.342C9.79476 406.331 9.78434 406.319 9.77461 406.307C9.76396 406.295 9.75422 406.284 9.74379 406.272C9.73314 406.26 9.72342 406.248 9.71299 406.237C9.70326 406.225 9.69262 406.213 9.68289 406.201C9.67294 406.189 9.6625 406.178 9.65256 406.165C9.64283 406.154 9.6329 406.141 9.62246 406.13C9.61323 406.117 9.60349 406.105 9.59284 406.093C9.58311 406.082 9.57318 406.069 9.56345 406.058C9.55422 406.045 9.54356 406.033 9.53454 406.021C9.52459 406.009 9.51486 405.997 9.50563 405.984C9.49568 405.972 9.48596 405.96 9.47672 405.948C9.46678 405.935 9.45754 405.923 9.44781 405.911C9.43787 405.899 9.42864 405.886 9.4194 405.874C9.41016 405.861 9.4002 405.849 9.39118 405.837C9.38194 405.824 9.37271 405.812 9.36277 405.799C9.35353 405.787 9.34429 405.774 9.33505 405.761C9.32582 405.749 9.3168 405.737 9.30756 405.724C9.29811 405.711 9.28886 405.699 9.28033 405.686C9.2713 405.674 9.26206 405.661 9.25261 405.648C9.24407 405.635 9.23484 405.623 9.22653 405.61C9.21707 405.597 9.20784 405.585 9.1993 405.572C9.19007 405.559 9.18153 405.546 9.17229 405.534C9.16376 405.521 9.15501 405.508 9.14647 405.495C9.13724 405.482 9.1287 405.469 9.11995 405.456C9.11142 405.443 9.10289 405.43 9.09436 405.417C9.08582 405.405 9.07728 405.392 9.06853 405.378C9.06 405.366 9.05146 405.353 9.04271 405.339C9.03488 405.326 9.02614 405.313 9.01761 405.3C9.00978 405.287 9.00103 405.273 8.9925 405.261C8.98467 405.248 8.97662 405.234 8.96809 405.221C8.96026 405.208 8.95151 405.194 8.94368 405.181C8.93564 405.168 8.92781 405.155 8.91907 405.141C8.91124 405.128 8.90249 405.115 8.89466 405.102C8.88662 405.088 8.8795 405.075 8.87096 405.062C8.86292 405.048 8.85487 405.035 8.84704 405.021C8.8397 405.008 8.83166 404.994 8.82383 404.981C8.81578 404.967 8.80866 404.954 8.80061 404.94C8.79278 404.927 8.78544 404.913 8.7774 404.899C8.76957 404.886 8.76224 404.873 8.7549 404.859C8.74686 404.845 8.73973 404.832 8.73239 404.818C8.72526 404.804 8.71723 404.791 8.70989 404.777C8.70277 404.764 8.69542 404.75 8.68808 404.736C8.68095 404.722 8.67341 404.708 8.66629 404.695C8.65895 404.681 8.6516 404.667 8.64447 404.653C8.63713 404.64 8.6298 404.626 8.62316 404.611C8.61582 404.598 8.6087 404.584 8.60207 404.57C8.59473 404.556 8.58739 404.542 8.58076 404.528C8.57342 404.514 8.567 404.501 8.56036 404.487C8.55373 404.472 8.5464 404.458 8.53976 404.444C8.53313 404.43 8.52579 404.416 8.51937 404.403C8.51273 404.389 8.5061 404.374 8.49946 404.36C8.49283 404.346 8.48619 404.332 8.47956 404.318C8.47363 404.304 8.4663 404.29 8.46037 404.275C8.45373 404.261 8.4471 404.247 8.44046 404.233C8.43453 404.218 8.42811 404.205 8.42218 404.191C8.41533 404.176 8.40941 404.161 8.40299 404.148C8.39706 404.134 8.3902 404.119 8.38427 404.104C8.37856 404.091 8.37263 404.076 8.36649 404.061C8.36077 404.048 8.35414 404.033 8.34821 404.019C8.34207 404.004 8.33614 403.99 8.33021 403.975C8.32428 403.961 8.31856 403.947 8.31241 403.932C8.30649 403.918 8.30125 403.903 8.29533 403.889C8.2894 403.874 8.28418 403.86 8.27825 403.846C8.27302 403.831 8.26709 403.817 8.26116 403.802C8.25572 403.787 8.25002 403.773 8.24479 403.759C8.23865 403.744 8.23413 403.729 8.2282 403.714C8.22298 403.7 8.21774 403.685 8.21251 403.671C8.20659 403.656 8.20137 403.642 8.19593 403.626C8.1907 403.612 8.18549 403.597 8.18026 403.583C8.17504 403.568 8.1705 403.553 8.16528 403.539C8.16006 403.524 8.15554 403.509 8.15032 403.495C8.14509 403.48 8.14036 403.465 8.13514 403.45C8.12991 403.436 8.12538 403.421 8.12086 403.406C8.11564 403.391 8.11112 403.377 8.1059 403.362C8.10116 403.346 8.09665 403.332 8.09213 403.317C8.08761 403.302 8.08238 403.287 8.07786 403.273C8.07528 403.264 8.0727 403.256 8.0699 403.247C8.06538 403.232 8.06086 403.217 8.05634 403.202C8.05182 403.187 8.0473 403.173 8.04348 403.158C8.03875 403.142 8.03423 403.127 8.03042 403.112C8.0259 403.098 8.02207 403.082 8.01755 403.068C8.01374 403.053 8.00923 403.038 8.00541 403.023C8.00068 403.007 7.99686 402.992 7.99305 402.977C7.98923 402.962 7.98472 402.948 7.9809 402.933C7.97709 402.917 7.97326 402.902 7.96923 402.887C7.96542 402.872 7.96161 402.857 7.9578 402.842C7.95398 402.827 7.95016 402.812 7.94634 402.797C7.94253 402.782 7.93872 402.767 7.9349 402.752C7.93179 402.736 7.92776 402.721 7.92465 402.705C7.92084 402.69 7.91773 402.675 7.91392 402.66C7.91081 402.645 7.90699 402.63 7.90388 402.615C7.90077 402.6 7.89696 402.585 7.89385 402.569C7.89052 402.553 7.88763 402.539 7.88381 402.524C7.88049 402.508 7.87737 402.493 7.87448 402.478C7.87115 402.462 7.86896 402.447 7.86563 402.432C7.86252 402.416 7.85964 402.402 7.85653 402.387C7.8532 402.371 7.8508 402.355 7.84768 402.34C7.84457 402.325 7.84216 402.309 7.83905 402.294C7.83686 402.279 7.83375 402.264 7.83114 402.248C7.82895 402.233 7.82584 402.218 7.82344 402.203C7.82103 402.187 7.81791 402.172 7.8155 402.156C7.8131 402.141 7.8107 402.126 7.80829 402.11C7.80589 402.095 7.80348 402.079 7.80108 402.064C7.79868 402.048 7.79627 402.033 7.79408 402.018C7.79168 402.003 7.78997 401.987 7.78757 401.972C7.78517 401.956 7.78277 401.941 7.78107 401.925C7.77937 401.909 7.77717 401.895 7.77547 401.879C7.77307 401.864 7.77136 401.848 7.76896 401.832C7.76748 401.817 7.76577 401.802 7.76337 401.786C7.76167 401.771 7.75995 401.755 7.75847 401.74C7.75677 401.724 7.75508 401.709 7.75359 401.694C7.75189 401.678 7.75019 401.663 7.74849 401.647C7.74679 401.631 7.74531 401.616 7.74361 401.601C7.74191 401.585 7.74112 401.57 7.73942 401.554C7.73772 401.538 7.73695 401.523 7.73525 401.508C7.73447 401.492 7.73277 401.477 7.73177 401.461C7.73007 401.445 7.72928 401.43 7.72828 401.414C7.7268 401.399 7.72581 401.383 7.72503 401.368C7.72403 401.352 7.72325 401.337 7.72226 401.321C7.72126 401.305 7.72048 401.29 7.71878 401.275C7.71871 401.259 7.71771 401.243 7.71693 401.228C7.71593 401.212 7.71514 401.197 7.71507 401.182C7.71407 401.166 7.7133 401.151 7.7123 401.135C7.71223 401.119 7.71124 401.104 7.71117 401.088C7.71039 401.073 7.71009 401.057 7.71001 401.042C7.70902 401.026 7.70894 401.01 7.70816 400.995C7.70787 400.979 7.7078 400.964 7.70772 400.948C7.70743 400.932 7.70735 400.917 7.70657 400.902C7.70628 400.886 7.70621 400.87 7.70613 400.855C7.70676 400.839 7.70669 400.824 7.7064 400.808C7.70633 400.792 7.70625 400.777 7.70688 400.761C7.70659 400.745 7.70672 400.731 7.70713 400.714C7.70706 400.699 7.70698 400.683 7.70761 400.668C7.70753 400.652 7.70817 400.637 7.70879 400.621C7.70872 400.606 7.70935 400.59 7.70998 400.575C7.70969 400.559 7.71053 400.544 7.71116 400.528C7.71179 400.512 7.71242 400.497 7.71283 400.481C7.71367 400.466 7.71432 400.45 7.71494 400.434C7.71557 400.419 7.7162 400.403 7.71683 400.388C7.71746 400.372 7.7188 400.356 7.71964 400.341C7.72097 400.326 7.72161 400.31 7.72223 400.294C7.72308 400.279 7.72442 400.264 7.72504 400.248C7.72638 400.232 7.72771 400.216 7.72856 400.202C7.72989 400.186 7.73143 400.171 7.73206 400.155C7.7334 400.139 7.73495 400.124 7.73558 400.108C7.73762 400.092 7.73847 400.078 7.7398 400.062C7.74135 400.047 7.74268 400.031 7.74423 400.016C7.74556 400 7.7471 399.985 7.74914 399.969C7.75069 399.954 7.75203 399.938 7.75336 399.922C7.75562 399.907 7.75717 399.892 7.7585 399.876C7.76076 399.86 7.7623 399.845 7.76434 399.829C7.76589 399.814 7.76815 399.799 7.76948 399.783C7.77174 399.768 7.77399 399.752 7.77603 399.736C7.77758 399.721 7.77984 399.706 7.78209 399.691C7.78343 399.675 7.78589 399.66 7.78815 399.645C7.79018 399.629 7.79244 399.613 7.7947 399.598C7.79696 399.583 7.79991 399.567 7.80216 399.552C7.80442 399.537 7.80668 399.521 7.80894 399.506C7.81119 399.491 7.81414 399.475 7.81639 399.46C7.81935 399.444 7.82161 399.429 7.82457 399.413C7.82682 399.398 7.8293 399.383 7.83204 399.367C7.83522 399.352 7.83746 399.337 7.84042 399.321C7.84267 399.306 7.84655 399.291 7.84881 399.276C7.85177 399.26 7.85472 399.245 7.8579 399.23C7.86015 399.215 7.86404 399.199 7.86629 399.184C7.86996 399.168 7.87242 399.154 7.87538 399.138C7.87926 399.123 7.88222 399.108 7.88518 399.092C7.88835 399.077 7.89152 399.062 7.89519 399.047C7.89836 399.032 7.90133 399.016 7.90521 399.001C7.90838 398.986 7.91204 398.971 7.91521 398.956C7.91839 398.941 7.92205 398.925 7.92593 398.91C7.9291 398.895 7.93277 398.88 7.93665 398.865C7.93983 398.85 7.94371 398.835 7.94758 398.82C7.95125 398.804 7.95513 398.789 7.95901 398.774C7.96311 398.759 7.96676 398.744 7.97064 398.729C7.97381 398.714 7.97841 398.698 7.98228 398.683C7.98616 398.668 7.99003 398.653 7.99391 398.638C7.9987 398.624 8.00238 398.608 8.00647 398.594C8.01035 398.579 8.01494 398.563 8.01882 398.548C8.02362 398.534 8.0275 398.519 8.03208 398.503C8.03617 398.489 8.04076 398.474 8.04464 398.459C8.04944 398.444 8.05403 398.429 8.0579 398.414C8.0627 398.399 8.06728 398.384 8.07208 398.369C8.07596 398.354 8.08146 398.34 8.08534 398.325C8.09014 398.31 8.09494 398.295 8.09952 398.28C8.1041 398.265 8.1089 398.25 8.1137 398.236C8.11828 398.22 8.12309 398.206 8.1286 398.191C8.1334 398.177 8.13819 398.162 8.14348 398.147C8.14827 398.132 8.15309 398.117 8.15859 398.103C8.16339 398.088 8.16889 398.073 8.17369 398.059C8.17849 398.044 8.18399 398.029 8.18878 398.015C8.19429 398 8.1998 397.985 8.2046 397.971C8.2101 397.956 8.2156 397.941 8.22111 397.926C8.2259 397.912 8.23162 397.898 8.23713 397.883C8.24263 397.868 8.24813 397.853 8.25385 397.839C8.25936 397.825 8.26486 397.81 8.27058 397.796C8.27609 397.781 8.28181 397.767 8.28732 397.752C8.29304 397.738 8.29924 397.723 8.30496 397.709C8.31047 397.694 8.31619 397.68 8.32261 397.666C8.32812 397.651 8.33383 397.637 8.34004 397.622C8.34576 397.608 8.35218 397.594 8.3579 397.58C8.36411 397.565 8.36983 397.55 8.37625 397.536C8.38197 397.522 8.3884 397.508 8.39482 397.494C8.40054 397.479 8.40696 397.465 8.41338 397.451C8.41981 397.437 8.42553 397.423 8.43266 397.408C8.43909 397.394 8.4448 397.38 8.45123 397.365C8.45765 397.351 8.46407 397.337 8.4705 397.322C8.47714 397.309 8.48427 397.294 8.49069 397.28C8.49712 397.266 8.50376 397.252 8.51018 397.238C8.51661 397.224 8.52395 397.21 8.53059 397.196C8.53701 397.182 8.54344 397.168 8.55079 397.154C8.55721 397.14 8.56455 397.126 8.57189 397.112C8.57853 397.098 8.58566 397.084 8.5923 397.07C8.59873 397.056 8.60607 397.042 8.61341 397.028C8.62076 397.015 8.6274 397.001 8.63474 396.987C8.64209 396.973 8.6492 396.959 8.65585 396.945C8.66319 396.932 8.67053 396.918 8.67788 396.904C8.68522 396.89 8.69256 396.876 8.69991 396.863C8.70747 396.849 8.71481 396.836 8.72216 396.822C8.7295 396.808 8.73707 396.795 8.74512 396.781C8.75176 396.767 8.75981 396.753 8.76737 396.74C8.77471 396.727 8.78297 396.713 8.79032 396.699C8.79766 396.686 8.80522 396.672 8.81327 396.658C8.82083 396.645 8.82909 396.632 8.83644 396.618C8.8447 396.605 8.85226 396.592 8.86031 396.578C8.86787 396.565 8.87614 396.551 8.8837 396.538C8.89245 396.524 8.9 396.511 8.90826 396.498C8.91582 396.485 8.9241 396.471 8.93236 396.458C8.94062 396.445 8.94888 396.431 8.95714 396.418C8.9647 396.405 8.97298 396.392 8.98146 396.379C8.98972 396.366 8.99797 396.352 9.00624 396.339C9.0145 396.326 9.02277 396.313 9.03125 396.3C9.04022 396.286 9.0487 396.274 9.05697 396.26C9.06523 396.247 9.07372 396.235 9.0829 396.222C9.09116 396.208 9.10034 396.196 9.1079 396.183C9.11708 396.17 9.12556 396.157 9.13453 396.144C9.14301 396.131 9.15198 396.117 9.16067 396.106C9.16964 396.092 9.17812 396.079 9.1866 396.067C9.19557 396.053 9.20497 396.041 9.21345 396.029C9.22263 396.016 9.23183 396.003 9.2403 395.99C9.24949 395.978 9.25867 395.965 9.26785 395.952C9.27704 395.939 9.28644 395.927 9.29492 395.914C9.3041 395.902 9.31328 395.889 9.32268 395.877C9.33187 395.864 9.34105 395.851 9.35045 395.839C9.35963 395.826 9.36904 395.814 9.37822 395.801C9.38762 395.789 9.39702 395.777 9.4062 395.764C9.4156 395.752 9.42571 395.74 9.4351 395.727C9.44429 395.715 9.45369 395.703 9.4638 395.69C9.4732 395.678 9.48259 395.666 9.49199 395.654C9.50188 395.641 9.51128 395.629 9.52068 395.617C9.53078 395.604 9.54019 395.592 9.5505 395.58C9.5599 395.568 9.57001 395.556 9.5794 395.544C9.58951 395.532 9.59913 395.52 9.60923 395.508C9.61955 395.496 9.62894 395.484 9.63905 395.472C9.64915 395.459 9.65878 395.448 9.66888 395.436C9.6792 395.424 9.68952 395.412 9.69892 395.4C9.70924 395.389 9.71955 395.377 9.72965 395.365C9.73997 395.353 9.75029 395.342 9.7604 395.329C9.77093 395.318 9.78055 395.307 9.79066 395.295C9.80168 395.283 9.812 395.271 9.82232 395.259C9.83264 395.248 9.84296 395.236 9.85328 395.225C9.86381 395.214 9.87413 395.202 9.88444 395.19C9.89547 395.179 9.90579 395.167 9.91632 395.156C9.92664 395.144 9.93696 395.133 9.9482 395.122C9.95874 395.111 9.96905 395.099 9.98008 395.087C9.99061 395.076 10.0012 395.065 10.0122 395.054C10.0227 395.043 10.0339 395.031 10.0443 395.02C10.0555 395.009 10.066 394.998 10.0773 394.987C10.0876 394.975 10.0989 394.964 10.1094 394.953C10.1206 394.942 10.1312 394.931 10.1424 394.92C10.1536 394.909 10.1649 394.897 10.1754 394.887C10.1869 394.876 10.1974 394.865 10.2086 394.854C10.2199 394.843 10.2313 394.833 10.2419 394.822C10.2531 394.81 10.2646 394.8 10.2758 394.789C10.2873 394.778 10.2985 394.767 10.3099 394.757C10.3205 394.746 10.3329 394.736 10.3434 394.725C10.3548 394.715 10.367 394.704 10.3775 394.693C10.3897 394.682 10.4012 394.672 10.4124 394.661C10.4238 394.65 10.4353 394.64 10.447 394.63C10.4584 394.62 10.4699 394.609 10.4813 394.599C10.4928 394.589 10.5042 394.578 10.5164 394.567C10.5279 394.557 10.5395 394.547 10.551 394.537C10.5634 394.527 10.5748 394.517 10.587 394.506C10.5986 394.496 10.6101 394.486 10.6225 394.476C10.6339 394.465 10.6456 394.456 10.658 394.446C10.6694 394.435 10.6811 394.425 10.6935 394.416C10.7049 394.405 10.7173 394.395 10.7297 394.385C10.7414 394.376 10.7537 394.366 10.7654 394.356C10.7778 394.346 10.7894 394.336 10.8018 394.326C10.8135 394.316 10.8259 394.307 10.8378 394.298C10.8501 394.288 10.8625 394.278 10.8742 394.268C10.8865 394.258 10.8991 394.249 10.9115 394.239C10.9234 394.23 10.9358 394.22 10.9481 394.21C10.9607 394.201 10.9726 394.192 10.9852 394.182C10.9976 394.172 11.0102 394.163 11.0221 394.154C11.0346 394.145 11.047 394.135 11.0596 394.126C11.0722 394.117 11.0848 394.107 11.0974 394.098C11.11 394.089 11.1226 394.08 11.1352 394.07C11.1477 394.061 11.1603 394.052 11.1729 394.043C11.1857 394.034 11.1983 394.025 11.2109 394.016C11.2235 394.006 11.2363 393.998 11.2489 393.989C11.2615 393.979 11.2741 393.97 11.2869 393.962C11.2997 393.953 11.3123 393.944 11.3251 393.935C11.3386 393.927 11.3512 393.917 11.364 393.909C11.3768 393.9 11.3903 393.891 11.4029 393.882C11.4159 393.874 11.4285 393.865 11.4415 393.857C11.4548 393.848 11.4676 393.839 11.4806 393.832C11.4934 393.823 11.507 393.814 11.5198 393.806C11.5326 393.797 11.5463 393.789 11.5591 393.781C11.5719 393.772 11.5847 393.764 11.5984 393.755C11.6119 393.747 11.625 393.739 11.6378 393.73C11.6506 393.722 11.6643 393.714 11.678 393.706C11.6908 393.697 11.7046 393.689 11.7176 393.681C11.7304 393.673 11.7441 393.665 11.7578 393.657C11.7708 393.649 11.7846 393.641 11.7976 393.633C11.8113 393.625 11.8243 393.617 11.8381 393.609C11.8511 393.601 11.865 393.594 11.8781 393.586C11.8918 393.578 11.9055 393.57 11.9187 393.563C11.9325 393.555 11.9455 393.547 11.9594 393.54C11.9727 393.533 11.9864 393.525 12.0003 393.517C12.014 393.509 12.0273 393.502 12.041 393.494C12.055 393.487 12.0682 393.48 12.0821 393.472C12.0961 393.465 12.1091 393.457 12.123 393.45C12.137 393.442 12.1509 393.435 12.1642 393.428C12.1781 393.421 12.192 393.413 12.206 393.406C12.2201 393.399 12.2334 393.392 12.2473 393.385C12.2613 393.377 12.2754 393.371 12.2893 393.363C12.3033 393.356 12.3167 393.35 12.3309 393.343C12.3448 393.336 12.359 393.329 12.3722 393.322C12.3871 393.315 12.4005 393.309 12.4147 393.302C12.4288 393.295 12.443 393.289 12.4569 393.281C12.4711 393.275 12.4853 393.268 12.4987 393.262C12.5126 393.254 12.5268 393.248 12.5412 393.242C12.5553 393.235 12.5695 393.229 12.5836 393.222C12.5978 393.215 12.6122 393.209 12.6263 393.203C12.6405 393.196 12.6548 393.19 12.669 393.184C12.6832 393.177 12.6975 393.171 12.7119 393.165C12.7254 393.159 12.7404 393.152 12.7548 393.147C12.769 393.14 12.7833 393.134 12.797 393.128C12.8119 393.121 12.8264 393.116 12.8406 393.11C12.855 393.104 12.8693 393.098 12.8837 393.092C12.8981 393.086 12.9127 393.081 12.927 393.075C12.9412 393.068 12.9558 393.063 12.9701 393.057C12.9843 393.05 12.9991 393.046 13.0135 393.04C13.0278 393.034 13.0424 393.029 13.0568 393.023C13.0712 393.017 13.0867 393.012 13.101 393.006C13.1152 392.999 13.13 392.995 13.1446 392.99C13.1594 392.985 13.1736 392.979 13.1884 392.974C13.2032 392.97 13.218 392.963 13.2328 392.958C13.2476 392.954 13.2618 392.947 13.2766 392.942C13.2914 392.938 13.3055 392.931 13.3203 392.927C13.3351 392.922 13.3493 392.916 13.3641 392.911C13.3796 392.906 13.394 392.9 13.4088 392.896C13.4236 392.891 13.4377 392.885 13.4525 392.88C13.4671 392.875 13.4826 392.87 13.4976 392.866C13.5122 392.861 13.527 392.857 13.542 392.853C13.5566 392.848 13.5714 392.843 13.5865 392.839C13.5956 392.837 13.6041 392.834 13.6125 392.831C13.6271 392.826 13.6419 392.822 13.6569 392.818C13.6715 392.813 13.6863 392.808 13.7013 392.804C13.7166 392.799 13.7314 392.794 13.7464 392.79C13.761 392.785 13.7758 392.781 13.7909 392.777C13.8057 392.772 13.8218 392.77 13.8366 392.765C13.8514 392.761 13.8666 392.758 13.8814 392.753C13.8962 392.749 13.9117 392.746 13.9265 392.742C13.9413 392.737 13.9574 392.735 13.9722 392.73C13.987 392.725 14.0025 392.723 14.0173 392.719C14.0321 392.714 14.0476 392.712 14.0631 392.707C14.0779 392.702 14.0928 392.701 14.1076 392.696C14.1231 392.692 14.1386 392.689 14.1536 392.685C14.169 392.683 14.1838 392.678 14.1991 392.675C14.2145 392.673 14.2293 392.668 14.2445 392.665C14.2598 392.662 14.2748 392.658 14.29 392.655C14.3062 392.653 14.3205 392.649 14.3357 392.646C14.3517 392.643 14.3667 392.639 14.3819 392.636C14.3976 392.634 14.4126 392.63 14.4278 392.627C14.4431 392.624 14.4583 392.621 14.4735 392.618C14.489 392.615 14.5042 392.612 14.5194 392.609C14.5349 392.607 14.5501 392.604 14.5653 392.6C14.5808 392.598 14.596 392.595 14.6115 392.593C14.6267 392.589 14.6421 392.587 14.6576 392.585C14.6723 392.582 14.6883 392.579 14.703 392.577C14.7185 392.574 14.7339 392.572 14.7494 392.57C14.7646 392.567 14.7802 392.565 14.7957 392.562C14.8109 392.559 14.8266 392.558 14.842 392.555C14.8568 392.553 14.8722 392.551 14.8879 392.549C14.9033 392.547 14.919 392.545 14.9344 392.542C14.9501 392.541 14.9648 392.539 14.9803 392.536C14.996 392.534 15.0114 392.532 15.0271 392.53C15.0427 392.529 15.0575 392.526 15.0731 392.525C15.0888 392.523 15.1042 392.521 15.1199 392.519C15.1349 392.517 15.1505 392.516 15.1662 392.514C15.1811 392.513 15.1968 392.511 15.2125 392.509C15.2274 392.508 15.2431 392.506 15.259 392.505C15.2746 392.503 15.2896 392.502 15.3055 392.501C15.3211 392.499 15.3363 392.498 15.352 392.497C15.3678 392.496 15.3828 392.494 15.3987 392.493C15.4143 392.491 15.4295 392.491 15.4454 392.49C15.4611 392.488 15.4762 392.487 15.4921 392.486C15.5071 392.485 15.5229 392.484 15.5381 392.483C15.554 392.482 15.5692 392.481 15.585 392.48C15.6002 392.479 15.6161 392.478 15.6322 392.478C15.6474 392.477 15.6625 392.476 15.6784 392.475C15.6943 392.474 15.7095 392.474 15.7248 392.474C15.7409 392.473 15.7561 392.472 15.7713 392.472C15.7874 392.471 15.8028 392.471 15.8179 392.471C15.834 392.47 15.8492 392.469 15.8653 392.469C15.8807 392.469 15.8961 392.469 15.9122 392.469C15.9276 392.469 15.9429 392.469 15.9588 392.468C15.9742 392.468 15.9896 392.467 16.005 392.467C16.0204 392.467 16.0365 392.467 16.0518 392.467C16.0674 392.468 16.0828 392.467 16.0982 392.467C16.1143 392.467 16.1299 392.468 16.1453 392.468C16.1607 392.468 16.1763 392.468 16.1917 392.468C16.2073 392.469 16.2236 392.469 16.2383 392.469C16.2539 392.47 16.2702 392.47 16.2856 392.47C16.3012 392.471 16.3168 392.471 16.3324 392.472C16.348 392.473 16.3636 392.473 16.3792 392.474C16.3939 392.474 16.4095 392.475 16.4253 392.476C16.4409 392.477 16.4565 392.477 16.4721 392.478C16.4877 392.479 16.5033 392.479 16.5191 392.481C16.534 392.481 16.5496 392.482 16.5655 392.483C16.5811 392.484 16.596 392.485 16.6118 392.486C16.6276 392.487 16.6432 392.488 16.6581 392.489C16.6739 392.49 16.6897 392.492 16.7048 392.493C16.7205 392.494 16.7363 392.495 16.7514 392.497C16.7672 392.498 16.783 392.499 16.7981 392.501C16.814 392.502 16.8291 392.504 16.8449 392.505C16.86 392.507 16.8758 392.508 16.8909 392.51C16.906 392.511 16.9221 392.513 16.9379 392.514C16.953 392.516 16.9688 392.517 16.9842 392.52C16.9993 392.521 17.0146 392.523 17.0306 392.525C17.0457 392.527 17.0616 392.528 17.0769 392.531C17.0922 392.533 17.1076 392.535 17.1234 392.536C17.1387 392.539 17.154 392.541 17.1691 392.542C17.1845 392.545 17.2005 392.547 17.2158 392.549C17.2312 392.551 17.2465 392.553 17.2618 392.556C17.2772 392.558 17.2925 392.56 17.3078 392.562C17.3231 392.565 17.3392 392.567 17.354 392.57C17.3693 392.572 17.3854 392.574 17.4002 392.577C17.4155 392.58 17.4309 392.582 17.4464 392.585C17.462 392.588 17.4773 392.59 17.4928 392.593C17.5075 392.595 17.523 392.598 17.5385 392.601C17.5539 392.604 17.5694 392.607 17.585 392.61C17.5996 392.612 17.6151 392.615 17.63 392.618C17.6455 392.621 17.6611 392.624 17.6759 392.627C17.6914 392.63 17.7063 392.633 17.7218 392.636C17.7374 392.639 17.7522 392.642 17.7678 392.645C17.7828 392.649 17.7984 392.652 17.8132 392.655C17.828 392.659 17.8438 392.662 17.8588 392.666C17.8744 392.669 17.8892 392.672 17.905 392.676C17.9191 392.679 17.9349 392.683 17.9497 392.686C17.9655 392.69 17.9805 392.694 17.9954 392.697C18.0104 392.701 18.0255 392.705 18.0412 392.708C18.0561 392.711 18.0711 392.715 18.0862 392.719C18.1012 392.723 18.1163 392.727 18.1314 392.731C18.1464 392.735 18.1615 392.739 18.1765 392.742C18.1916 392.746 18.2068 392.751 18.2219 392.755C18.2369 392.759 18.252 392.763 18.2673 392.767C18.2816 392.771 18.2967 392.775 18.3119 392.78C18.327 392.783 18.3416 392.788 18.3566 392.792C18.3719 392.797 18.3862 392.801 18.4015 392.805C18.4168 392.81 18.4318 392.814 18.4464 392.819C18.4617 392.823 18.476 392.827 18.4906 392.832C18.5058 392.837 18.5211 392.841 18.5357 392.846C18.5503 392.851 18.5655 392.855 18.5806 392.859C18.5953 392.865 18.6099 392.87 18.6245 392.874C18.6397 392.879 18.6543 392.884 18.6691 392.889C18.6844 392.894 18.6989 392.899 18.7135 392.903C18.7283 392.909 18.7428 392.914 18.7574 392.919C18.7722 392.924 18.7868 392.929 18.8013 392.934C18.8168 392.939 18.8316 392.944 18.8454 392.949C18.8609 392.955 18.8748 392.96 18.8896 392.965C18.9043 392.971 18.9191 392.976 18.9337 392.981C18.9485 392.987 18.9633 392.992 18.9773 392.998C18.9921 393.003 19.0069 393.009 19.0207 393.014C19.0357 393.02 19.0503 393.025 19.0646 393.031C19.0792 393.036 19.0939 393.042 19.1082 393.048C19.123 393.053 19.1371 393.059 19.1519 393.065C19.1662 393.071 19.1802 393.077 19.195 393.082C19.2093 393.089 19.2241 393.094 19.2384 393.101C19.2525 393.106 19.2665 393.112 19.2815 393.118C19.2956 393.124 19.3099 393.13 19.324 393.136C19.3383 393.143 19.3523 393.148 19.3666 393.155C19.3816 393.161 19.3959 393.167 19.41 393.173C19.4243 393.179 19.4388 393.187 19.4529 393.192C19.4664 393.199 19.4814 393.205 19.4957 393.212C19.5093 393.218 19.5236 393.225 19.5379 393.231C19.5522 393.237 19.5658 393.244 19.5801 393.251C19.5944 393.257 19.6079 393.264 19.6224 393.271C19.6367 393.277 19.6503 393.284 19.6648 393.291C19.6784 393.298 19.6927 393.304 19.7065 393.311C19.7208 393.318 19.7344 393.324 19.7482 393.332C19.7625 393.338 19.7763 393.345 19.7908 393.353C19.8044 393.359 19.8182 393.367 19.8317 393.373C19.8455 393.381 19.86 393.388 19.8736 393.394C19.8874 393.402 19.9012 393.409 19.915 393.416C19.9286 393.423 19.9426 393.431 19.9564 393.438C19.97 393.445 19.9838 393.452 19.9976 393.46C20.0107 393.467 20.0247 393.475 20.0383 393.482C20.0523 393.49 20.0661 393.497 20.0792 393.505C20.093 393.512 20.1068 393.519 20.1199 393.527C20.134 393.535 20.1478 393.542 20.1611 393.551C20.1749 393.558 20.188 393.566 20.202 393.574C20.2151 393.581 20.2289 393.589 20.2422 393.597C20.2553 393.604 20.2693 393.612 20.2824 393.62C20.2957 393.628 20.3088 393.636 20.3228 393.644C20.3361 393.652 20.3494 393.66 20.3625 393.668C20.3759 393.676 20.3892 393.684 20.4025 393.693C20.4158 393.701 20.4289 393.708 20.4422 393.717C20.4555 393.725 20.4688 393.733 20.4821 393.742C20.4954 393.75 20.508 393.758 20.5214 393.767C20.5347 393.775 20.548 393.783 20.5606 393.792C20.5739 393.8 20.5872 393.808 20.6 393.817C20.6133 393.825 20.6259 393.834 20.6393 393.842C20.6521 393.851 20.6654 393.86 20.678 393.868C20.6906 393.877 20.7041 393.886 20.7167 393.894C20.7296 393.903 20.7422 393.912 20.7557 393.921C20.7683 393.929 20.7811 393.938 20.7937 393.947C20.8065 393.956 20.8191 393.964 20.832 393.974C20.8455 393.983 20.8583 393.992 20.8704 394.001C20.883 394.01 20.8959 394.019 20.9087 394.028C20.9213 394.036 20.9334 394.046 20.9462 394.055C20.959 394.064 20.9719 394.073 20.984 394.083C20.9966 394.091 21.0096 394.101 21.0215 394.11C21.0346 394.12 21.0465 394.128 21.0595 394.138C21.0716 394.148 21.0845 394.157 21.0966 394.166C21.1087 394.176 21.1208 394.185 21.1336 394.194C21.146 394.204 21.1581 394.214 21.1709 394.223C21.1832 394.233 21.1953 394.242 21.2075 394.252C21.2196 394.261 21.2319 394.271 21.244 394.281C21.2564 394.291 21.2685 394.3 21.2808 394.31C21.2922 394.32 21.3043 394.329 21.3167 394.339C21.3288 394.349 21.3404 394.359 21.3527 394.369C21.3649 394.379 21.3772 394.389 21.3888 394.399C21.4009 394.408 21.4126 394.419 21.4249 394.429C21.4363 394.438 21.4486 394.449 21.4603 394.459C21.4719 394.469 21.4842 394.479 21.4959 394.49C21.5075 394.5 21.5189 394.51 21.5312 394.52C21.5428 394.53 21.5545 394.54 21.5661 394.551C21.5777 394.561 21.5894 394.571 21.601 394.582C21.6126 394.592 21.6242 394.602 21.6361 394.613C21.6477 394.624 21.6586 394.634 21.6703 394.644C21.6819 394.655 21.6935 394.665 21.7054 394.676C21.7163 394.687 21.7279 394.697 21.7388 394.707C21.7507 394.718 21.7616 394.729 21.7732 394.739C21.7841 394.75 21.796 394.761 21.8069 394.771C21.8188 394.782 21.8297 394.793 21.8408 394.804C21.8524 394.814 21.8629 394.826 21.8738 394.836C21.8856 394.847 21.8965 394.858 21.9077 394.869C21.9186 394.88 21.9297 394.891 21.9409 394.902C21.9518 394.913 21.9629 394.924 21.9741 394.935C21.9843 394.946 21.9954 394.957 22.0066 394.968C22.0177 394.98 22.0289 394.991 22.0391 395.002C22.0502 395.013 22.0606 395.024 22.0718 395.036C22.0827 395.046 22.0933 395.058 22.1036 395.069C22.1147 395.08 22.1251 395.092 22.1363 395.103C22.1467 395.114 22.1571 395.126 22.1676 395.137C22.178 395.149 22.1891 395.16 22.1996 395.171C22.21 395.183 22.2205 395.194 22.2309 395.206C22.2415 395.218 22.252 395.229 22.2624 395.241C22.2721 395.252 22.2825 395.264 22.293 395.275C22.3036 395.288 22.3141 395.299 22.3245 395.31C22.3344 395.323 22.3442 395.334 22.3546 395.346C22.365 395.357 22.375 395.37 22.3854 395.381C22.3951 395.393 22.4058 395.405 22.4155 395.417C22.4252 395.428 22.4359 395.441 22.4458 395.453C22.4556 395.465 22.4655 395.477 22.4752 395.489C22.4859 395.501 22.4956 395.512 22.5056 395.525C22.5153 395.536 22.525 395.548 22.5342 395.561C22.5449 395.573 22.5539 395.585 22.5639 395.597C22.5736 395.609 22.5835 395.621 22.5928 395.634C22.6027 395.646 22.6124 395.658 22.6217 395.67C22.6316 395.683 22.6416 395.695 22.6506 395.707C22.6598 395.72 22.6698 395.732 22.679 395.745C22.689 395.757 22.698 395.769 22.7072 395.781C22.7165 395.794 22.7264 395.806 22.7354 395.818C22.7447 395.831 22.7541 395.844 22.7633 395.857C22.7724 395.869 22.7816 395.881 22.7908 395.894C22.7994 395.907 22.8093 395.919 22.8186 395.931C22.8271 395.944 22.8363 395.957 22.8449 395.97C22.8543 395.983 22.8633 395.995 22.8719 396.008C22.8813 396.021 22.8906 396.034 22.8991 396.046C22.9083 396.059 22.9169 396.072 22.9254 396.084C22.9346 396.097 22.9432 396.11 22.9519 396.123C22.9605 396.136 22.9697 396.149 22.9782 396.162C22.9868 396.174 22.9955 396.188 23.004 396.201C23.0126 396.213 23.0211 396.226 23.0299 396.24C23.0384 396.253 23.0469 396.265 23.055 396.279C23.0635 396.292 23.072 396.305 23.0808 396.318C23.0893 396.331 23.0972 396.344 23.105 396.357C23.1137 396.371 23.1216 396.384 23.1303 396.397C23.1381 396.41 23.1469 396.424 23.1547 396.437C23.1635 396.45 23.1713 396.463 23.1791 396.476C23.1872 396.49 23.195 396.503 23.2037 396.516C23.2116 396.529 23.2196 396.543 23.2274 396.556C23.2355 396.57 23.2433 396.583 23.2514 396.597C23.2587 396.611 23.2665 396.624 23.2746 396.637C23.2826 396.651 23.2897 396.664 23.2978 396.678C23.3056 396.691 23.313 396.705 23.321 396.719C23.3281 396.732 23.3362 396.746 23.3433 396.759C23.3513 396.773 23.3587 396.786 23.366 396.8C23.3738 396.813 23.3812 396.827 23.3885 396.841C23.3956 396.855 23.403 396.868 23.4103 396.882C23.4174 396.896 23.4255 396.909 23.4321 396.924C23.4395 396.937 23.4468 396.951 23.4539 396.965C23.4613 396.979 23.4686 396.992 23.4752 397.007C23.4826 397.021 23.4897 397.034 23.4963 397.048C23.5037 397.062 23.5103 397.076 23.5176 397.09C23.5243 397.104 23.5314 397.117 23.538 397.132C23.5447 397.146 23.552 397.16 23.5586 397.174C23.5653 397.188 23.5724 397.201 23.579 397.215C23.5857 397.229 23.5923 397.244 23.5989 397.258C23.6056 397.272 23.6122 397.286 23.6188 397.3C23.6255 397.314 23.6314 397.329 23.638 397.343C23.6447 397.357 23.6511 397.37 23.6572 397.386C23.6639 397.4 23.6703 397.413 23.6762 397.428C23.6829 397.442 23.6888 397.456 23.6954 397.47C23.7013 397.485 23.7073 397.499 23.7139 397.513C23.7198 397.527 23.7258 397.542 23.7317 397.556C23.7383 397.57 23.7443 397.585 23.7502 397.599C23.7563 397.614 23.7623 397.629 23.768 397.642C23.7741 397.657 23.7798 397.671 23.786 397.686C23.7919 397.7 23.7971 397.715 23.8031 397.729C23.809 397.744 23.8142 397.758 23.8202 397.773C23.8261 397.787 23.8313 397.802 23.8372 397.816C23.8427 397.831 23.8484 397.845 23.8536 397.859C23.859 397.875 23.8643 397.889 23.8702 397.904C23.8754 397.918 23.8807 397.933 23.8859 397.947C23.8911 397.962 23.897 397.976 23.9015 397.991C23.9075 398.006 23.912 398.02 23.9179 398.035C23.9234 398.05 23.9279 398.065 23.9331 398.079C23.9383 398.094 23.9436 398.109 23.9481 398.123C23.9533 398.138 23.9587 398.153 23.9633 398.168C23.9685 398.183 23.973 398.197 23.9782 398.212C23.9828 398.227 23.9873 398.242 23.9925 398.256C23.9972 398.272 24.0022 398.286 24.007 398.301C24.0115 398.316 24.016 398.331 24.0205 398.345ZM-34.7698 428.134L-41.3415 406.62C-43.7762 407.333 -45.2579 408.996 -46.1514 410.922L-41.1793 427.201C-39.3618 428.3 -37.1998 428.864 -34.7698 428.134ZM-46.8591 411.138C-46.8591 411.138 -58.8138 405.792 -69.2213 413.547C-69.2213 413.547 -61.6543 412.249 -58.1405 413.821C-51.9718 416.582 -69.2213 413.547 -79.36 430C-61.7581 437.981 -49.1485 425.825 -52.722 431.562C-54.7576 434.829 -61.7581 437.981 -61.7581 437.981C-48.7938 438.597 -41.8667 427.483 -41.8667 427.483L-46.8591 411.138Z" fill="black"/>
<path d="M333.326 189.528L338.775 183.956L331.102 185.319C323.303 186.703 315.452 187.536 307.57 187.921L307.568 187.921C298.574 188.366 289.516 188.204 280.527 187.513L280.526 187.513C262.502 186.137 244.629 182.829 227.333 177.604C218.691 174.993 210.188 171.87 201.938 168.239C194.689 165.025 187.65 161.434 180.865 157.316L174.183 153.259L177.271 160.44C189.438 188.729 215.023 210.661 247.565 216.696C280.084 222.764 311.819 211.522 333.326 189.528ZM141.539 114.259L141.542 114.265C149.059 131.243 165.358 144.547 180.379 153.66C199.028 164.988 220.124 172.802 241.159 177.887C274.947 186.09 313.064 188.532 347.09 178.783C359.968 175.101 373.478 169.147 383.323 159.236C386.822 155.742 389.921 151.569 392.144 146.812C396.538 137.444 396.779 126.791 393.21 117.183C388.954 105.728 380.543 96.6811 371.374 89.5136C367.502 86.4786 363.592 83.8746 359.768 81.5594L353.185 77.5746L356.168 84.6672C358.464 90.1247 360.252 95.7887 361.551 101.629L361.552 101.634C361.801 102.833 362.044 103.999 362.259 105.167L362.388 105.867L362.866 106.393C363.754 107.373 364.627 108.39 365.479 109.419C370.693 115.896 375.08 123.622 373.831 131.183L373.83 131.189C373.003 136.272 369.477 140.843 364.934 144.136C355.108 151.257 342.066 154.445 329.763 156.302C294.958 161.549 257.771 156.042 224.434 144.808L224.431 144.807C220.71 143.559 217.025 142.155 213.359 140.699C195.486 133.511 176.482 123.794 165.405 108.379C159.883 100.695 158.269 91.9814 163.616 84.6203L163.62 84.6148C167.342 79.4617 173.639 75.2349 179.655 72.2466L180.302 71.9248L180.678 71.307C184.351 65.2695 188.705 59.6286 193.674 54.4562L199.07 48.8389L191.413 50.2666L191.4 50.269C190.147 50.5025 188.864 50.7418 187.555 51.0159C175.313 53.5635 162.511 57.9966 152.549 66.516C145.198 72.7905 139.48 81.5173 137.993 91.3375L137.993 91.3375L137.992 91.3441C136.822 99.2052 138.43 107.183 141.539 114.259ZM185.958 69.7095L185.952 69.7178L185.946 69.7262C182.203 75.2346 179.021 81.1416 176.486 87.3113C176.273 87.8286 176.045 88.3709 175.808 88.9344C174.469 92.1206 172.845 95.9827 171.988 99.8235C170.972 104.372 170.89 109.466 174.025 113.778C177.207 118.166 181.8 121.189 185.902 123.679L185.903 123.68C215.269 141.482 249.288 150.39 283.23 153.708L283.231 153.708C304.149 155.743 325.749 155.763 346.281 150.098L346.285 150.097C349.99 149.068 354.994 147.396 357.558 143.091C358.869 140.892 359.28 138.437 359.564 136.454L359.565 136.452C364.23 103.705 350.49 68.9903 324.685 48.3327C298.88 27.6755 261.995 21.8698 231.093 33.6199C214.732 39.8264 200.401 50.821 189.743 64.5537C188.393 66.2567 187.151 67.9846 185.958 69.7095ZM370.46 259.599C385.749 256.054 395.268 240.783 391.723 225.49C388.178 210.198 372.911 200.672 357.621 204.216C342.332 207.76 332.813 223.032 336.358 238.325C339.903 253.617 355.171 263.143 370.46 259.599ZM414.952 199.893C424.125 197.767 429.834 188.605 427.708 179.432C425.581 170.259 416.423 164.544 407.251 166.67C398.079 168.797 392.369 177.958 394.495 187.131C396.622 196.305 405.78 202.019 414.952 199.893Z" fill="black" stroke="white" stroke-width="5"/>
</svg>
