<svg width="622" height="967" viewBox="0 0 622 967" fill="none" xmlns="http://www.w3.org/2000/svg">
<path d="M994.974 554.107C1000.86 552.07 1005.58 550.985 1009.85 550.006C1010.26 549.913 1010.66 549.821 1011.05 549.729C1015.64 548.669 1019.8 547.631 1024.25 545.483C1033.13 541.186 1042.94 532.563 1060.34 511.01C1077.26 490.056 1076.56 462.344 1068.42 435.877C1060.27 409.376 1044.56 383.756 1030.84 366.55C1018.26 350.767 1003.96 336.947 989.791 323.255C986.028 319.617 982.274 315.989 978.565 312.336C960.85 294.889 944.07 276.808 931.637 254.171C925.227 242.502 920.823 229.314 916.797 215.815C915.872 212.714 914.966 209.594 914.06 206.472C911.038 196.059 908.013 185.638 904.262 175.892C889.111 136.534 852.638 109.268 813.495 96.7799C766.6 81.8189 719.554 94.3173 674.421 108.189C628.632 122.263 586.442 137.829 548.901 168.646C480.9 224.467 471.026 302.572 462.735 384.616C459.249 419.111 442.446 446.197 420.732 470.457C409.871 482.591 397.802 493.995 385.576 505.261C383.385 507.281 381.188 509.297 378.991 511.311C368.953 520.52 358.936 529.709 349.578 539.162C333.794 555.105 321.016 568.946 316.297 591.725C311.11 616.758 314.382 646.351 328.882 668.116C346.334 694.314 376.816 718.756 401.871 736.94C427.278 755.379 459.778 767.529 490.98 769.903C554.193 774.712 615.431 756.153 668.837 724.157C710.948 698.927 758.062 670.282 792.649 634.61C798.76 628.308 808.759 623.144 819.585 618.71C826.393 615.922 833.368 613.481 839.806 611.228C843.608 609.897 847.223 608.632 850.506 607.399C876.235 599.405 941.052 577.588 994.974 554.107Z" fill="white" stroke="white" stroke-width="3" stroke-linecap="round"/>
<path d="M473.859 651.659C473.36 650.997 473.493 650.056 474.155 649.558C474.817 649.06 475.757 649.193 476.255 649.854C476.754 650.516 476.621 651.457 475.959 651.955C475.297 652.453 474.357 652.321 473.859 651.659Z" fill="black"/>
<path d="M668.447 607.757C667.619 607.794 666.919 607.152 666.882 606.324C666.846 605.497 667.487 604.796 668.315 604.76C669.143 604.724 669.843 605.365 669.879 606.193C669.916 607.02 669.274 607.721 668.447 607.757Z" fill="black"/>
<path d="M399.982 524.1C399.194 523.845 398.762 522.999 399.018 522.211C399.273 521.423 400.119 520.991 400.907 521.246C401.695 521.502 402.127 522.348 401.872 523.136C401.616 523.924 400.77 524.356 399.982 524.1Z" fill="black"/>
<path d="M558.475 318.226C557.418 317.783 556.756 316.573 556.996 315.523C557.236 314.472 558.288 313.98 559.345 314.423C560.402 314.866 561.064 316.077 560.824 317.127C560.584 318.177 559.532 318.67 558.475 318.226Z" fill="black"/>
<path d="M543.276 208.254C542.219 207.811 541.557 206.6 541.797 205.55C542.037 204.5 543.089 204.007 544.146 204.45C545.203 204.893 545.865 206.104 545.625 207.154C545.385 208.205 544.333 208.697 543.276 208.254Z" fill="black"/>
<path d="M530.087 439.898C529.134 439.499 528.536 438.406 528.753 437.459C528.969 436.511 529.918 436.067 530.872 436.467C531.825 436.866 532.423 437.959 532.206 438.906C531.99 439.854 531.041 440.298 530.087 439.898Z" fill="black"/>
<path d="M464.886 815.648C465.586 816.409 465.673 817.651 465.081 818.422C464.489 819.193 463.442 819.201 462.742 818.439C462.041 817.678 461.954 816.436 462.546 815.665C463.138 814.894 464.185 814.886 464.886 815.648Z" fill="black"/>
<path d="M357.998 764.318C358.888 764.844 359.331 766.008 358.986 766.917C358.642 767.826 357.641 768.136 356.751 767.61C355.861 767.083 355.419 765.919 355.763 765.01C356.108 764.101 357.108 763.791 357.998 764.318Z" fill="black"/>
<path d="M334.638 657.54C335.528 658.067 335.97 659.231 335.626 660.14C335.282 661.049 334.281 661.359 333.391 660.832C332.501 660.306 332.058 659.142 332.403 658.233C332.747 657.324 333.748 657.014 334.638 657.54Z" fill="black"/>
<path d="M477.985 628.481C478.875 629.007 479.318 630.171 478.973 631.08C478.629 631.989 477.629 632.299 476.738 631.773C475.848 631.246 475.406 630.082 475.75 629.173C476.095 628.264 477.095 627.954 477.985 628.481Z" fill="black"/>
<path d="M590.5 691.477C591.39 692.004 591.832 693.168 591.488 694.077C591.143 694.986 590.143 695.296 589.253 694.769C588.363 694.243 587.92 693.079 588.265 692.17C588.609 691.261 589.609 690.951 590.5 691.477Z" fill="black"/>
<path d="M703.014 754.474C703.904 755 704.346 756.164 704.002 757.073C703.658 757.982 702.657 758.292 701.767 757.766C700.877 757.239 700.434 756.075 700.779 755.166C701.123 754.257 702.124 753.947 703.014 754.474Z" fill="black"/>
<path d="M512.145 699.19C511.647 698.528 511.779 697.587 512.441 697.089C513.103 696.591 514.043 696.723 514.542 697.385C515.04 698.047 514.907 698.987 514.245 699.486C513.584 699.984 512.643 699.851 512.145 699.19Z" fill="black"/>
<path d="M729.3 603.083C728.472 603.12 727.772 602.478 727.736 601.651C727.699 600.823 728.341 600.123 729.169 600.086C729.996 600.05 730.697 600.691 730.733 601.519C730.769 602.347 730.128 603.047 729.3 603.083Z" fill="black"/>
<path d="M458.626 541.008C457.838 540.753 457.406 539.907 457.662 539.119C457.917 538.331 458.763 537.899 459.551 538.154C460.339 538.41 460.771 539.256 460.516 540.044C460.26 540.832 459.414 541.264 458.626 541.008Z" fill="black"/>
<path d="M624.295 510.196C623.63 509.98 623.265 509.266 623.481 508.6C623.697 507.935 624.411 507.57 625.077 507.786C625.742 508.001 626.107 508.716 625.891 509.381C625.675 510.047 624.961 510.411 624.295 510.196Z" fill="black"/>
<path d="M636.888 348.315C635.831 347.872 635.169 346.661 635.409 345.611C635.649 344.56 636.7 344.068 637.757 344.511C638.814 344.954 639.477 346.165 639.236 347.215C638.996 348.265 637.945 348.758 636.888 348.315Z" fill="black"/>
<path d="M621.689 238.342C620.632 237.899 619.969 236.688 620.21 235.638C620.45 234.588 621.501 234.095 622.558 234.539C623.615 234.982 624.277 236.192 624.037 237.242C623.797 238.293 622.746 238.785 621.689 238.342Z" fill="black"/>
<path d="M600.839 467.047C599.885 466.647 599.288 465.555 599.504 464.607C599.721 463.659 600.67 463.215 601.623 463.615C602.577 464.015 603.175 465.107 602.958 466.055C602.741 467.002 601.793 467.447 600.839 467.047Z" fill="black"/>
<path d="M411.902 761.467C412.602 762.228 412.69 763.47 412.098 764.241C411.506 765.012 410.458 765.02 409.758 764.259C409.058 763.498 408.97 762.256 409.562 761.485C410.154 760.714 411.202 760.706 411.902 761.467Z" fill="black"/>
<path d="M291.629 727.739C292.519 728.266 292.962 729.43 292.617 730.339C292.273 731.248 291.272 731.558 290.382 731.031C289.492 730.505 289.05 729.341 289.394 728.432C289.738 727.523 290.739 727.213 291.629 727.739Z" fill="black"/>
<path d="M268.269 620.962C269.159 621.489 269.601 622.652 269.257 623.562C268.912 624.471 267.912 624.781 267.022 624.254C266.132 623.728 265.689 622.564 266.034 621.655C266.378 620.746 267.379 620.436 268.269 620.962Z" fill="black"/>
<path d="M411.616 591.903C412.506 592.429 412.949 593.593 412.604 594.502C412.26 595.411 411.259 595.721 410.369 595.195C409.479 594.668 409.037 593.504 409.381 592.595C409.726 591.686 410.726 591.376 411.616 591.903Z" fill="black"/>
<path d="M524.13 654.899C525.021 655.426 525.463 656.589 525.119 657.498C524.774 658.408 523.774 658.718 522.884 658.191C521.994 657.664 521.551 656.501 521.896 655.592C522.24 654.682 523.24 654.372 524.13 654.899Z" fill="black"/>
<path d="M636.645 717.895C637.535 718.422 637.977 719.586 637.633 720.495C637.289 721.404 636.288 721.714 635.398 721.187C634.508 720.661 634.065 719.497 634.41 718.588C634.754 717.679 635.755 717.369 636.645 717.895Z" fill="black"/>
<path d="M522.889 668.57C522.391 667.908 522.524 666.968 523.186 666.47C523.847 665.971 524.788 666.104 525.286 666.766C525.784 667.428 525.652 668.368 524.99 668.866C524.328 669.365 523.388 669.232 522.889 668.57Z" fill="black"/>
<path d="M710.133 576.899C709.305 576.935 708.605 576.294 708.569 575.466C708.532 574.638 709.174 573.938 710.001 573.902C710.829 573.865 711.529 574.507 711.566 575.335C711.602 576.162 710.961 576.863 710.133 576.899Z" fill="black"/>
<path d="M449.829 509.773C449.041 509.518 448.61 508.672 448.865 507.884C449.121 507.096 449.966 506.664 450.755 506.92C451.543 507.175 451.974 508.021 451.719 508.809C451.463 509.597 450.618 510.029 449.829 509.773Z" fill="black"/>
<path d="M616.866 483.817C616.201 483.601 615.836 482.887 616.052 482.221C616.268 481.556 616.982 481.191 617.648 481.407C618.313 481.623 618.678 482.337 618.462 483.003C618.246 483.668 617.532 484.033 616.866 483.817Z" fill="black"/>
<path d="M621.745 304.458C620.688 304.015 620.026 302.804 620.266 301.754C620.506 300.704 621.557 300.211 622.614 300.654C623.671 301.097 624.334 302.308 624.094 303.358C623.854 304.408 622.802 304.901 621.745 304.458Z" fill="black"/>
<path d="M606.546 194.485C605.489 194.042 604.827 192.831 605.067 191.781C605.307 190.731 606.358 190.239 607.415 190.682C608.472 191.125 609.135 192.335 608.895 193.386C608.654 194.436 607.603 194.928 606.546 194.485Z" fill="black"/>
<path d="M587.175 427.475C586.222 427.075 585.624 425.983 585.841 425.035C586.057 424.087 587.006 423.643 587.96 424.043C588.914 424.443 589.511 425.535 589.295 426.483C589.078 427.43 588.129 427.875 587.175 427.475Z" fill="black"/>
<path d="M407.818 803.132C408.518 803.893 408.605 805.135 408.013 805.906C407.421 806.677 406.374 806.685 405.674 805.923C404.973 805.162 404.886 803.92 405.478 803.149C406.07 802.378 407.118 802.37 407.818 803.132Z" fill="black"/>
<path d="M299.747 768.809C300.637 769.336 301.079 770.5 300.735 771.409C300.391 772.318 299.39 772.628 298.5 772.101C297.61 771.575 297.168 770.411 297.512 769.502C297.856 768.593 298.857 768.283 299.747 768.809Z" fill="black"/>
<path d="M276.386 662.032C277.276 662.559 277.719 663.722 277.374 664.631C277.03 665.541 276.03 665.851 275.14 665.324C274.249 664.797 273.807 663.634 274.151 662.725C274.496 661.816 275.496 661.505 276.386 662.032Z" fill="black"/>
<path d="M419.734 632.972C420.624 633.499 421.066 634.663 420.722 635.572C420.378 636.481 419.377 636.791 418.487 636.265C417.597 635.738 417.155 634.574 417.499 633.665C417.843 632.756 418.844 632.446 419.734 632.972Z" fill="black"/>
<path d="M532.248 695.969C533.138 696.495 533.581 697.659 533.236 698.568C532.892 699.477 531.891 699.788 531.001 699.261C530.111 698.734 529.669 697.571 530.013 696.661C530.357 695.752 531.358 695.442 532.248 695.969Z" fill="black"/>
<path d="M644.762 758.965C645.652 759.492 646.095 760.656 645.751 761.565C645.406 762.474 644.406 762.784 643.516 762.257C642.626 761.731 642.183 760.567 642.527 759.658C642.872 758.749 643.872 758.439 644.762 758.965Z" fill="black"/>
<path d="M517.44 641.38C516.942 640.718 517.075 639.778 517.736 639.279C518.398 638.781 519.339 638.914 519.837 639.576C520.335 640.237 520.203 641.178 519.541 641.676C518.879 642.174 517.938 642.042 517.44 641.38Z" fill="black"/>
<path d="M684.631 566.007C683.803 566.043 683.103 565.402 683.066 564.574C683.03 563.747 683.672 563.046 684.499 563.01C685.327 562.974 686.027 563.615 686.064 564.443C686.1 565.27 685.458 565.971 684.631 566.007Z" fill="black"/>
<path d="M429.748 490.649C428.96 490.393 428.528 489.547 428.784 488.759C429.039 487.971 429.885 487.54 430.673 487.795C431.461 488.051 431.893 488.896 431.638 489.685C431.382 490.473 430.536 490.904 429.748 490.649Z" fill="black"/>
<path d="M599.907 467.666C599.242 467.45 598.877 466.736 599.093 466.07C599.309 465.405 600.023 465.04 600.688 465.256C601.354 465.471 601.719 466.186 601.503 466.851C601.287 467.517 600.573 467.882 599.907 467.666Z" fill="black"/>
<path d="M593.324 275.874C592.267 275.431 591.604 274.22 591.844 273.17C592.084 272.12 593.136 271.627 594.193 272.07C595.25 272.514 595.912 273.724 595.672 274.774C595.432 275.825 594.381 276.317 593.324 275.874Z" fill="black"/>
<path d="M578.124 165.901C577.067 165.458 576.405 164.248 576.645 163.197C576.885 162.147 577.937 161.655 578.994 162.098C580.051 162.541 580.713 163.751 580.473 164.802C580.233 165.852 579.181 166.344 578.124 165.901Z" fill="black"/>
<path d="M561.531 401.684C560.577 401.284 559.979 400.192 560.196 399.244C560.413 398.296 561.361 397.852 562.315 398.252C563.269 398.652 563.867 399.744 563.65 400.692C563.433 401.639 562.485 402.083 561.531 401.684Z" fill="black"/>
<path d="M420.37 837.268C421.07 838.029 421.158 839.271 420.566 840.042C419.974 840.813 418.926 840.821 418.226 840.06C417.526 839.298 417.438 838.056 418.03 837.285C418.622 836.515 419.67 836.506 420.37 837.268Z" fill="black"/>
<path d="M321.62 797.868C322.51 798.395 322.952 799.559 322.608 800.468C322.263 801.377 321.263 801.687 320.373 801.16C319.483 800.634 319.04 799.47 319.385 798.561C319.729 797.652 320.73 797.342 321.62 797.868Z" fill="black"/>
<path d="M298.259 691.091C299.149 691.617 299.591 692.781 299.247 693.69C298.903 694.599 297.902 694.91 297.012 694.383C296.122 693.856 295.68 692.693 296.024 691.784C296.368 690.874 297.369 690.564 298.259 691.091Z" fill="black"/>
<path d="M441.607 662.031C442.497 662.558 442.939 663.722 442.595 664.631C442.25 665.54 441.25 665.85 440.36 665.323C439.47 664.797 439.027 663.633 439.372 662.724C439.716 661.815 440.717 661.505 441.607 662.031Z" fill="black"/>
<path d="M554.121 725.028C555.011 725.554 555.453 726.718 555.109 727.627C554.765 728.536 553.764 728.846 552.874 728.32C551.984 727.793 551.542 726.629 551.886 725.72C552.23 724.811 553.231 724.501 554.121 725.028Z" fill="black"/>
<path d="M666.635 788.024C667.525 788.551 667.968 789.715 667.623 790.624C667.279 791.533 666.278 791.843 665.388 791.316C664.498 790.79 664.056 789.626 664.4 788.717C664.744 787.808 665.745 787.498 666.635 788.024Z" fill="black"/>
<path d="M468.931 691.668C468.433 691.006 468.566 690.065 469.227 689.567C469.889 689.069 470.83 689.202 471.328 689.863C471.826 690.525 471.694 691.466 471.032 691.964C470.37 692.462 469.429 692.33 468.931 691.668Z" fill="black"/>
<path d="M698.647 634.458C697.819 634.494 697.119 633.853 697.083 633.025C697.046 632.198 697.688 631.497 698.515 631.461C699.343 631.425 700.043 632.066 700.08 632.894C700.116 633.721 699.475 634.422 698.647 634.458Z" fill="black"/>
<path d="M418.935 559.678C418.147 559.423 417.715 558.577 417.97 557.789C418.226 557.001 419.072 556.569 419.86 556.825C420.648 557.08 421.08 557.926 420.824 558.714C420.569 559.502 419.723 559.934 418.935 559.678Z" fill="black"/>
<path d="M590.775 525.963C590.109 525.747 589.745 525.033 589.96 524.367C590.176 523.702 590.89 523.337 591.556 523.553C592.222 523.769 592.586 524.483 592.37 525.149C592.155 525.814 591.44 526.179 590.775 525.963Z" fill="black"/>
<path d="M587.364 369.234C586.307 368.791 585.645 367.58 585.885 366.53C586.125 365.48 587.176 364.988 588.233 365.431C589.29 365.874 589.953 367.084 589.712 368.135C589.472 369.185 588.421 369.677 587.364 369.234Z" fill="black"/>
<path d="M572.165 259.261C571.108 258.818 570.445 257.608 570.686 256.558C570.926 255.507 571.977 255.015 573.034 255.458C574.091 255.901 574.753 257.112 574.513 258.162C574.273 259.212 573.222 259.704 572.165 259.261Z" fill="black"/>
<path d="M556.153 485.922C555.2 485.523 554.602 484.43 554.819 483.483C555.035 482.535 555.984 482.091 556.938 482.491C557.892 482.89 558.489 483.983 558.272 484.93C558.056 485.878 557.107 486.322 556.153 485.922Z" fill="black"/>
<path d="M460.388 762.946C461.088 763.707 461.176 764.949 460.584 765.72C459.992 766.491 458.944 766.499 458.244 765.738C457.544 764.977 457.456 763.735 458.048 762.964C458.64 762.193 459.688 762.185 460.388 762.946Z" fill="black"/>
<path d="M338.478 715.158C339.368 715.685 339.81 716.849 339.466 717.758C339.122 718.667 338.121 718.977 337.231 718.451C336.341 717.924 335.899 716.76 336.243 715.851C336.587 714.942 337.588 714.632 338.478 715.158Z" fill="black"/>
<path d="M315.117 608.381C316.007 608.908 316.45 610.072 316.105 610.981C315.761 611.89 314.761 612.2 313.871 611.673C312.981 611.147 312.538 609.983 312.882 609.074C313.227 608.165 314.227 607.855 315.117 608.381Z" fill="black"/>
<path d="M458.465 579.322C459.355 579.848 459.797 581.012 459.453 581.921C459.109 582.83 458.108 583.14 457.218 582.614C456.328 582.087 455.886 580.923 456.23 580.014C456.574 579.105 457.575 578.795 458.465 579.322Z" fill="black"/>
<path d="M617.286 577.338C618.177 577.865 618.619 579.029 618.275 579.938C617.93 580.847 616.93 581.157 616.04 580.631C615.15 580.104 614.707 578.94 615.051 578.031C615.396 577.122 616.396 576.812 617.286 577.338Z" fill="black"/>
<path d="M617.286 577.338C618.177 577.865 618.619 579.029 618.275 579.938C617.93 580.847 616.93 581.157 616.04 580.631C615.15 580.104 614.707 578.94 615.051 578.031C615.396 577.122 616.396 576.812 617.286 577.338Z" fill="black"/>
<path d="M766.806 542.304C767.696 542.831 768.138 543.994 767.794 544.903C767.45 545.813 766.449 546.123 765.559 545.596C764.669 545.07 764.226 543.906 764.571 542.997C764.915 542.088 765.916 541.777 766.806 542.304Z" fill="black"/>
<path d="M379.902 485.604C380.792 486.131 381.235 487.295 380.891 488.204C380.546 489.113 379.546 489.423 378.656 488.896C377.765 488.37 377.323 487.206 377.667 486.297C378.012 485.388 379.012 485.078 379.902 485.604Z" fill="black"/>
<path d="M683.493 705.314C684.383 705.841 684.826 707.005 684.482 707.914C684.137 708.823 683.137 709.133 682.247 708.607C681.357 708.08 680.914 706.916 681.258 706.007C681.603 705.098 682.603 704.788 683.493 705.314Z" fill="black"/>
<path d="M833.013 670.28C833.903 670.807 834.345 671.97 834.001 672.879C833.657 673.789 832.656 674.099 831.766 673.572C830.876 673.045 830.433 671.882 830.778 670.973C831.122 670.063 832.123 669.753 833.013 670.28Z" fill="black"/>
<path d="M446.109 613.58C446.999 614.107 447.442 615.271 447.097 616.18C446.753 617.089 445.753 617.399 444.862 616.872C443.972 616.346 443.53 615.182 443.874 614.273C444.219 613.364 445.219 613.054 446.109 613.58Z" fill="black"/>
<path d="M430.295 671.938C429.797 671.276 429.93 670.335 430.592 669.837C431.253 669.339 432.194 669.471 432.692 670.133C433.19 670.795 433.058 671.736 432.396 672.234C431.734 672.732 430.794 672.6 430.295 671.938Z" fill="black"/>
<path d="M579.815 636.903C579.316 636.241 579.449 635.301 580.111 634.803C580.773 634.304 581.713 634.437 582.211 635.099C582.71 635.761 582.577 636.701 581.915 637.199C581.253 637.698 580.313 637.565 579.815 636.903Z" fill="black"/>
<path d="M192.911 580.204C192.413 579.542 192.546 578.601 193.207 578.103C193.869 577.605 194.81 577.737 195.308 578.399C195.806 579.061 195.674 580.002 195.012 580.5C194.35 580.998 193.409 580.865 192.911 580.204Z" fill="black"/>
<path d="M660.518 655.151C659.69 655.187 658.99 654.546 658.954 653.718C658.917 652.89 659.559 652.19 660.386 652.154C661.214 652.117 661.914 652.759 661.951 653.586C661.987 654.414 661.346 655.114 660.518 655.151Z" fill="black"/>
<path d="M810.037 620.116C809.209 620.152 808.509 619.511 808.473 618.683C808.436 617.856 809.078 617.155 809.905 617.119C810.733 617.083 811.433 617.724 811.47 618.552C811.506 619.379 810.865 620.08 810.037 620.116Z" fill="black"/>
<path d="M423.134 563.417C422.306 563.453 421.606 562.811 421.569 561.984C421.533 561.156 422.174 560.456 423.002 560.419C423.83 560.383 424.53 561.025 424.566 561.852C424.603 562.68 423.961 563.38 423.134 563.417Z" fill="black"/>
<path d="M375.976 565.726C375.188 565.47 374.756 564.625 375.012 563.837C375.267 563.048 376.113 562.617 376.901 562.872C377.689 563.128 378.121 563.974 377.866 564.762C377.61 565.55 376.764 565.981 375.976 565.726Z" fill="black"/>
<path d="M525.495 530.691C524.707 530.436 524.276 529.59 524.531 528.802C524.786 528.014 525.632 527.582 526.42 527.838C527.209 528.093 527.64 528.939 527.385 529.727C527.129 530.515 526.283 530.947 525.495 530.691Z" fill="black"/>
<path d="M138.592 473.992C137.804 473.736 137.372 472.89 137.628 472.102C137.883 471.314 138.729 470.883 139.517 471.138C140.305 471.393 140.737 472.239 140.482 473.028C140.226 473.816 139.38 474.247 138.592 473.992Z" fill="black"/>
<path d="M704.014 496.036C703.349 495.82 702.984 495.106 703.2 494.44C703.416 493.775 704.13 493.41 704.796 493.626C705.461 493.842 705.826 494.556 705.61 495.222C705.394 495.887 704.68 496.252 704.014 496.036Z" fill="black"/>
<path d="M317.111 439.336C316.446 439.121 316.081 438.406 316.297 437.741C316.512 437.075 317.227 436.711 317.892 436.926C318.558 437.142 318.923 437.857 318.707 438.522C318.491 439.188 317.777 439.552 317.111 439.336Z" fill="black"/>
<path d="M532.096 372.464C531.039 372.021 530.377 370.811 530.617 369.76C530.857 368.71 531.908 368.218 532.965 368.661C534.022 369.104 534.685 370.315 534.445 371.365C534.205 372.415 533.153 372.907 532.096 372.464Z" fill="black"/>
<path d="M681.615 337.43C680.558 336.987 679.896 335.776 680.136 334.726C680.376 333.676 681.428 333.183 682.485 333.627C683.542 334.07 684.204 335.28 683.964 336.33C683.724 337.381 682.672 337.873 681.615 337.43Z" fill="black"/>
<path d="M294.712 280.73C293.655 280.287 292.993 279.077 293.233 278.026C293.473 276.976 294.524 276.484 295.581 276.927C296.638 277.37 297.301 278.58 297.061 279.631C296.82 280.681 295.769 281.173 294.712 280.73Z" fill="black"/>
<path d="M516.897 262.492C515.84 262.049 515.178 260.838 515.418 259.788C515.658 258.737 516.709 258.245 517.766 258.688C518.823 259.131 519.486 260.342 519.246 261.392C519.006 262.442 517.954 262.935 516.897 262.492Z" fill="black"/>
<path d="M666.416 227.457C665.359 227.014 664.697 225.804 664.937 224.753C665.177 223.703 666.228 223.211 667.285 223.654C668.343 224.097 669.005 225.307 668.765 226.358C668.525 227.408 667.473 227.9 666.416 227.457Z" fill="black"/>
<path d="M279.513 170.758C278.456 170.315 277.794 169.104 278.034 168.054C278.274 167.003 279.325 166.511 280.382 166.954C281.439 167.397 282.101 168.608 281.861 169.658C281.621 170.708 280.57 171.201 279.513 170.758Z" fill="black"/>
<path d="M506.285 488.837C505.332 488.437 504.734 487.345 504.951 486.397C505.167 485.45 506.116 485.006 507.07 485.405C508.023 485.805 508.621 486.897 508.404 487.845C508.188 488.793 507.239 489.237 506.285 488.837Z" fill="black"/>
<path d="M506.928 781.094C507.628 781.855 507.716 783.097 507.124 783.868C506.532 784.639 505.484 784.647 504.784 783.886C504.084 783.125 503.996 781.883 504.588 781.112C505.181 780.341 506.228 780.333 506.928 781.094Z" fill="black"/>
<path d="M388.275 719.098C389.166 719.624 389.608 720.788 389.264 721.697C388.919 722.606 387.919 722.916 387.029 722.39C386.139 721.863 385.696 720.699 386.04 719.79C386.385 718.881 387.385 718.571 388.275 719.098Z" fill="black"/>
<path d="M364.915 612.321C365.805 612.847 366.247 614.011 365.903 614.92C365.559 615.829 364.558 616.139 363.668 615.613C362.778 615.086 362.336 613.922 362.68 613.013C363.024 612.104 364.025 611.794 364.915 612.321Z" fill="black"/>
<path d="M508.262 583.261C509.153 583.788 509.595 584.951 509.251 585.86C508.906 586.77 507.906 587.08 507.016 586.553C506.126 586.027 505.683 584.863 506.027 583.954C506.372 583.045 507.372 582.734 508.262 583.261Z" fill="black"/>
<path d="M620.777 646.257C621.667 646.784 622.109 647.948 621.765 648.857C621.421 649.766 620.42 650.076 619.53 649.55C618.64 649.023 618.197 647.859 618.542 646.95C618.886 646.041 619.887 645.731 620.777 646.257Z" fill="black"/>
<path d="M733.291 709.254C734.181 709.78 734.623 710.944 734.279 711.853C733.935 712.762 732.934 713.072 732.044 712.546C731.154 712.019 730.712 710.855 731.056 709.946C731.4 709.037 732.401 708.727 733.291 709.254Z" fill="black"/>
<path d="M384.111 680.421C383.612 679.759 383.745 678.819 384.407 678.321C385.069 677.823 386.009 677.955 386.507 678.617C387.006 679.279 386.873 680.219 386.211 680.718C385.549 681.216 384.609 681.083 384.111 680.421Z" fill="black"/>
<path d="M641.38 698.031C640.553 698.068 639.852 697.426 639.816 696.599C639.78 695.771 640.421 695.071 641.249 695.034C642.077 694.998 642.777 695.639 642.813 696.467C642.85 697.295 642.208 697.995 641.38 698.031Z" fill="black"/>
<path d="M343.048 599.203C342.26 598.948 341.828 598.102 342.084 597.314C342.339 596.526 343.185 596.094 343.973 596.35C344.761 596.605 345.193 597.451 344.937 598.239C344.682 599.027 343.836 599.459 343.048 599.203Z" fill="black"/>
<path d="M526.687 559.343C526.021 559.127 525.656 558.413 525.872 557.747C526.088 557.082 526.802 556.717 527.468 556.933C528.133 557.149 528.498 557.863 528.282 558.529C528.066 559.194 527.352 559.559 526.687 559.343Z" fill="black"/>
<path d="M493.13 414.48C492.073 414.037 491.411 412.827 491.651 411.776C491.891 410.726 492.942 410.234 493.999 410.677C495.057 411.12 495.719 412.33 495.479 413.381C495.239 414.431 494.187 414.923 493.13 414.48Z" fill="black"/>
<path d="M477.931 304.508C476.874 304.064 476.212 302.854 476.452 301.804C476.692 300.753 477.743 300.261 478.8 300.704C479.857 301.147 480.52 302.358 480.28 303.408C480.04 304.458 478.988 304.951 477.931 304.508Z" fill="black"/>
<path d="M471.126 526.748C470.173 526.348 469.575 525.256 469.792 524.308C470.008 523.361 470.957 522.916 471.911 523.316C472.865 523.716 473.462 524.808 473.246 525.756C473.029 526.704 472.08 527.148 471.126 526.748Z" fill="black"/>
<path d="M554.694 761.299C555.394 762.061 555.482 763.302 554.89 764.073C554.298 764.844 553.25 764.852 552.55 764.091C551.85 763.33 551.762 762.088 552.354 761.317C552.946 760.546 553.994 760.538 554.694 761.299Z" fill="black"/>
<path d="M428.293 686.357C429.183 686.883 429.626 688.047 429.281 688.956C428.937 689.865 427.936 690.175 427.046 689.649C426.156 689.122 425.714 687.958 426.058 687.049C426.402 686.14 427.403 685.83 428.293 686.357Z" fill="black"/>
<path d="M404.933 579.579C405.823 580.106 406.265 581.27 405.921 582.179C405.576 583.088 404.576 583.398 403.686 582.872C402.796 582.345 402.353 581.181 402.698 580.272C403.042 579.363 404.043 579.053 404.933 579.579Z" fill="black"/>
<path d="M548.28 550.52C549.17 551.046 549.613 552.21 549.268 553.119C548.924 554.028 547.923 554.339 547.033 553.812C546.143 553.285 545.701 552.122 546.045 551.212C546.39 550.303 547.39 549.993 548.28 550.52Z" fill="black"/>
<path d="M660.794 613.516C661.684 614.043 662.127 615.207 661.783 616.116C661.438 617.025 660.438 617.335 659.548 616.808C658.658 616.282 658.215 615.118 658.559 614.209C658.904 613.3 659.904 612.99 660.794 613.516Z" fill="black"/>
<path d="M776.763 684.763C777.653 685.289 778.096 686.453 777.751 687.362C777.407 688.271 776.406 688.581 775.516 688.055C774.626 687.528 774.184 686.364 774.528 685.455C774.872 684.546 775.873 684.236 776.763 684.763Z" fill="black"/>
<path d="M377.978 614.528L383.427 608.956L375.754 610.318C367.955 611.703 360.104 612.536 352.222 612.92L352.22 612.921C343.226 613.366 334.168 613.204 325.179 612.513L325.178 612.513C307.154 611.137 289.281 607.829 271.985 602.603C263.343 599.993 254.84 596.87 246.59 593.239C239.341 590.025 232.302 586.434 225.517 582.315L218.835 578.259L221.923 585.44C234.09 613.729 259.675 635.661 292.217 641.696C324.736 647.763 356.471 636.522 377.978 614.528ZM186.191 539.259L186.194 539.265C193.711 556.243 210.01 569.547 225.031 578.66C243.68 589.988 264.776 597.802 285.811 602.887C319.599 611.09 357.716 613.531 391.742 603.783C404.62 600.101 418.13 594.147 427.975 584.236C431.474 580.742 434.574 576.569 436.796 571.812C441.19 562.444 441.431 551.791 437.862 542.183C433.606 530.728 425.195 521.681 416.026 514.513C412.154 511.478 408.244 508.874 404.42 506.559L397.837 502.574L400.82 509.667C403.116 515.125 404.904 520.789 406.203 526.628L406.204 526.634C406.453 527.833 406.696 528.999 406.911 530.167L407.04 530.866L407.518 531.393C408.406 532.373 409.279 533.389 410.131 534.418C415.345 540.896 419.732 548.622 418.483 556.183L418.482 556.189C417.655 561.272 414.129 565.843 409.586 569.136C399.76 576.257 386.718 579.445 374.415 581.302C339.61 586.549 302.423 581.042 269.086 569.808L269.083 569.806C265.362 568.559 261.677 567.154 258.011 565.699C240.138 558.51 221.134 548.794 210.057 533.379C204.535 525.695 202.921 516.981 208.268 509.62L208.272 509.615C211.994 504.462 218.291 500.235 224.307 497.246L224.954 496.925L225.33 496.307C229.003 490.269 233.357 484.628 238.326 479.456L243.722 473.839L236.065 475.266L236.052 475.269C234.799 475.502 233.516 475.742 232.207 476.016C219.965 478.563 207.163 482.996 197.201 491.516C189.85 497.79 184.132 506.517 182.645 516.337L182.645 516.337L182.644 516.344C181.474 524.205 183.082 532.183 186.191 539.259ZM230.61 494.709L230.604 494.718L230.598 494.726C226.855 500.234 223.673 506.141 221.138 512.311C220.925 512.828 220.697 513.371 220.46 513.934C219.121 517.12 217.497 520.983 216.64 524.823C215.624 529.372 215.542 534.466 218.677 538.778C221.859 543.166 226.452 546.189 230.554 548.679L230.555 548.679C259.921 566.482 293.94 575.389 327.882 578.707L327.883 578.708C348.801 580.743 370.401 580.763 390.933 575.098L390.937 575.097C394.642 574.068 399.646 572.396 402.21 568.09C403.521 565.892 403.932 563.437 404.216 561.454L404.217 561.452C408.882 528.705 395.142 493.99 369.337 473.333C343.532 452.675 306.647 446.87 275.745 458.62C259.384 464.826 245.053 475.821 234.395 489.554C233.045 491.257 231.803 492.984 230.61 494.709ZM415.112 684.598C430.401 681.054 439.92 665.783 436.375 650.49C432.83 635.197 417.563 625.672 402.273 629.216C386.984 632.76 377.465 648.032 381.01 663.324C384.555 678.617 399.823 688.143 415.112 684.598ZM459.604 624.893C468.777 622.767 474.486 613.605 472.36 604.432C470.233 595.259 461.075 589.544 451.903 591.67C442.731 593.797 437.021 602.958 439.147 612.131C441.274 621.305 450.432 627.019 459.604 624.893Z" fill="black" stroke="white" stroke-width="5"/>
</svg>
