<svg width="110" height="110" viewBox="0 0 110 110" fill="none" xmlns="http://www.w3.org/2000/svg">
<path d="M55 16C76.5537 16 94 33.4429 94 55C94 76.5537 76.5571 94 55 94C33.4463 94 16 76.5571 16 55C16 33.4463 33.4429 16 55 16ZM55 8.5C29.3187 8.5 8.5 29.3187 8.5 55C8.5 80.6813 29.3187 101.5 55 101.5C80.6813 101.5 101.5 80.6813 101.5 55C101.5 29.3187 80.6813 8.5 55 8.5ZM55 19C35.1177 19 19 35.1177 19 55C19 74.8823 35.1177 91 55 91C74.8823 91 91 74.8823 91 55C91 35.1177 74.8823 19 55 19ZM55 27.25C58.7279 27.25 61.75 30.2721 61.75 34C61.75 37.7279 58.7279 40.75 55 40.75C51.2721 40.75 48.25 37.7279 48.25 34C48.25 30.2721 51.2721 27.25 55 27.25ZM77.0764 45.6293C71.6929 46.9004 66.6681 48.0196 61.6752 48.5931C61.8348 67.5349 63.9826 71.6654 66.3696 77.7721C67.0478 79.5083 66.1902 81.4654 64.4539 82.1436C62.7175 82.8218 60.7604 81.9642 60.0822 80.2279C58.45 76.0452 56.8786 72.6087 55.9082 65.5H54.0921C53.1233 72.5971 51.5545 76.039 49.918 80.2279C49.2402 81.9633 47.2836 82.8222 45.5464 82.1436C43.8102 81.4654 42.9526 79.5081 43.6307 77.7721C46.0144 71.6706 48.1654 67.5456 48.3252 48.5931C43.3323 48.0198 38.3074 46.9006 32.9237 45.6293C31.3112 45.2485 30.3126 43.6328 30.6934 42.0201C31.0742 40.4074 32.6897 39.409 34.3026 39.7898C52.4312 44.0702 57.6057 44.0616 75.6979 39.7898C77.3103 39.4092 78.9263 40.4074 79.3071 42.0201C79.6876 43.6328 78.6889 45.2487 77.0764 45.6293Z" fill="white"/>
</svg>
