<svg width="110" height="110" viewBox="0 0 110 110" fill="none" xmlns="http://www.w3.org/2000/svg">
<g clip-path="url(#clip0_1330_370)">
<path fill-rule="evenodd" clip-rule="evenodd" d="M52.4595 6.6619C54.0319 5.78197 55.9679 5.78197 57.538 6.6619C65.3075 11.0107 88.6876 24.1011 96.4594 28.4499C98.0318 29.3275 98.9998 30.9535 98.9998 32.7133C98.9998 41.411 98.9998 67.5894 98.9998 76.2871C98.9998 78.0469 98.0318 79.6728 96.4594 80.5527C88.6899 84.9016 65.3098 97.9919 57.538 102.341C55.9656 103.221 54.0296 103.221 52.4595 102.341C44.69 97.9919 21.3099 84.9016 13.5381 80.5527C11.968 79.6728 11 78.0492 11 76.2894C11 67.5917 11 41.4133 11 32.7156C11 30.9558 11.968 29.3299 13.5404 28.4499C21.3076 24.1011 44.6923 11.0107 52.4595 6.6619Z" fill="white"/>
<path fill-rule="evenodd" clip-rule="evenodd" d="M11.704 78.5289C11.088 77.7067 11 76.9261 11 75.8752C11 67.2284 11 41.2001 11 32.5509C11 30.8003 11.9657 29.1836 13.5335 28.3106C21.2751 23.9872 44.5766 10.9731 52.3182 6.64732C53.886 5.77201 56.0096 5.79048 57.5774 6.66579C65.319 10.9892 88.5417 23.8925 96.2834 28.2159C96.9086 28.567 97.3857 28.9896 97.8118 29.5462L11.704 78.5289Z" fill="white"/>
<path fill-rule="evenodd" clip-rule="evenodd" d="M54.9999 22.1672C72.894 22.1672 87.4209 36.6549 87.4209 54.5005C87.4209 72.3462 72.894 86.8338 54.9999 86.8338C37.1058 86.8338 22.5789 72.3462 22.5789 54.5005C22.5789 36.6549 37.1058 22.1672 54.9999 22.1672ZM54.9999 38.3339C63.9458 38.3339 71.2104 45.5766 71.2104 54.5005C71.2104 63.4222 63.9458 70.6672 54.9999 70.6672C46.054 70.6672 38.7894 63.4222 38.7894 54.5005C38.7894 45.5766 46.0517 38.3339 54.9999 38.3339Z" fill="black"/>
<path fill-rule="evenodd" clip-rule="evenodd" d="M97.8072 29.5693C99.0021 30.6848 98.979 32.3662 98.979 33.6895C98.979 42.4542 98.9048 67.3831 98.9998 76.1478C99.0091 77.0623 98.7057 78.0254 98.2518 78.7506L54.0574 54.5006L97.8072 29.5693Z" fill="white"/>
</g>
<defs>
<clipPath id="clip0_1330_370">
<rect width="88" height="97" fill="white" transform="translate(11 6)"/>
</clipPath>
</defs>
</svg>
