<svg width="110" height="111" viewBox="0 0 110 111" fill="none" xmlns="http://www.w3.org/2000/svg">
<g id="Icon">
<path id="css" d="M23.2634 21.0093C22.5159 25.1704 21.868 28.7266 21.8182 28.8916C21.7351 29.2032 23.1969 29.2215 50.8212 29.2215C78.4454 29.2215 79.9072 29.2399 79.8241 29.5332C79.7743 29.7165 79.4421 31.6412 79.06 33.8042C78.678 35.9673 78.2959 38.1303 78.1962 38.6069L78.0301 39.4868L48.9441 39.5235L19.8581 39.5784L18.496 47.2774C17.7319 51.5118 17.1173 55.0313 17.1173 55.1046C17.1006 55.1963 30.1736 55.2513 46.1534 55.2513H75.1896L73.6448 63.8118C72.781 68.5411 72.0501 72.5739 72.0003 72.7939C71.9173 73.1605 70.605 73.6738 60.3393 77.4316C53.9773 79.7413 48.6783 81.6477 48.5621 81.6477C48.3793 81.6477 28.3962 73.2888 28.2965 73.1605C28.2799 73.1422 28.5457 71.5291 28.9111 69.5677C29.26 67.6063 29.559 65.8465 29.559 65.6632C29.559 65.3516 29.2434 65.3332 22.466 65.3699L15.3731 65.4249L13.6622 74.8469C12.7319 80.0346 11.9678 84.2873 12.001 84.3056C12.0177 84.324 19.5757 87.5135 28.7949 91.3997L45.5555 98.457L64.7579 91.3997C75.3225 87.5319 84.0267 84.2873 84.0932 84.214C84.1928 84.104 96.9668 14.0986 97 13.4937C97 13.4754 80.7211 13.457 60.8044 13.457H24.6255L23.2634 21.0093Z" fill="white"/>
</g>
</svg>
