<svg width="110" height="110" viewBox="0 0 110 110" fill="none" xmlns="http://www.w3.org/2000/svg">
<g clip-path="url(#clip0_1362_335)">
<path d="M91.9461 11H17.9382C14.1064 11 11 14.1064 11 17.9382V91.9461C11 95.778 14.1064 98.8844 17.9382 98.8844H91.9461C95.778 98.8844 98.8844 95.778 98.8844 91.9461V17.9382C98.8844 14.1064 95.778 11 91.9461 11Z" fill="white"/>
<path d="M-0.50592 -0.505859L110.506 110.506M110.506 -0.505859L-0.50592 110.506M71.0447 -0.505859V110.506M38.9553 -0.505859V110.506M110.506 71.0447H-0.50592M110.506 38.9554H-0.50592" stroke="#2879FF" stroke-opacity="0.2" stroke-width="2.62812"/>
<path d="M55 77.5492C67.4536 77.5492 77.5492 67.4536 77.5492 55C77.5492 42.5463 67.4536 32.4507 55 32.4507C42.5463 32.4507 32.4507 42.5463 32.4507 55C32.4507 67.4536 42.5463 77.5492 55 77.5492Z" stroke="#2879FF" stroke-opacity="0.2" stroke-width="2.62812"/>
<path d="M-0.50592 55.0001H110.506M55 -0.505859V110.506" stroke="#2879FF" stroke-opacity="0.2" stroke-width="2.62812"/>
<path d="M55 89.6912C74.1594 89.6912 89.6912 74.1594 89.6912 55C89.6912 35.8406 74.1594 20.3088 55 20.3088C35.8406 20.3088 20.3088 35.8406 20.3088 55C20.3088 74.1594 35.8406 89.6912 55 89.6912Z" fill="url(#paint0_radial_1362_335)"/>
<path opacity="0.2" d="M91.9461 11H17.9382C14.1222 11 11 14.1222 11 17.9382V18.5164C11 14.7004 14.1222 11.5782 17.9382 11.5782H91.9461C95.7622 11.5782 98.8844 14.7004 98.8844 18.5164V17.9382C98.8844 14.1222 95.7622 11 91.9461 11Z" fill="#2879FF"/>
<path opacity="0.1" d="M92.0039 98.364H17.996C14.18 98.364 11.0578 95.2418 11.0578 91.4258V92.004C11.0578 95.82 14.18 98.9422 17.996 98.9422H92.0039C95.82 98.9422 98.9422 95.82 98.9422 92.004V91.4258C98.9422 95.2418 95.82 98.364 92.0039 98.364Z" fill="black"/>
<path d="M39.6723 50.0737L25.5125 35.9197L40.9617 62.418C39.925 60.5539 39.2759 58.4994 39.0533 56.3781C38.8308 54.2568 39.0393 52.1124 39.6665 50.0737H39.6723Z" fill="url(#paint1_radial_1362_335)"/>
<path d="M58.4518 70.6112L53.2654 89.9573L68.6221 63.0947C67.5327 64.979 66.067 66.6188 64.3163 67.9119C62.5655 69.2051 60.5673 70.1239 58.446 70.6112H58.4518Z" fill="url(#paint2_radial_1362_335)"/>
<path d="M66.6216 44.2631L85.9446 39.0999H54.9249C51.2951 39.1004 47.7759 40.3487 44.9571 42.6356C42.1384 44.9224 40.1914 48.1087 39.4427 51.6604C38.6939 55.2121 39.1889 58.9132 40.8446 62.1434C42.5003 65.3735 45.2161 67.9362 48.5367 69.402C51.8573 70.8678 55.5809 71.1476 59.0832 70.1943C62.5856 69.2411 65.6538 67.1128 67.7735 64.1663C69.8932 61.2198 70.9355 57.6342 70.7258 54.0105C70.5161 50.3868 69.067 46.9454 66.6216 44.2631Z" fill="url(#paint3_radial_1362_335)"/>
<mask id="mask0_1362_335" style="mask-type:luminance" maskUnits="userSpaceOnUse" x="9" y="9" width="92" height="92">
<path d="M55 89.6912C64.2006 89.6912 73.0245 86.0363 79.5303 79.5304C86.0362 73.0245 89.6912 64.2007 89.6912 55C89.6912 45.7994 86.0362 36.9755 79.5303 30.4697C73.0245 23.9638 64.2006 20.3088 55 20.3088C45.7993 20.3088 36.9755 23.9638 30.4696 30.4697C23.9637 36.9755 20.3088 45.7994 20.3088 55C20.3088 64.2007 23.9637 73.0245 30.4696 79.5304C36.9755 86.0363 45.7993 89.6912 55 89.6912Z" stroke="white" stroke-width="21.025"/>
</mask>
<g mask="url(#mask0_1362_335)">
<path d="M55 89.6912C64.2006 89.6912 73.0245 86.0363 79.5303 79.5304C86.0362 73.0245 89.6912 64.2007 89.6912 55C89.6912 45.7994 86.0362 36.9755 79.5303 30.4697C73.0245 23.9638 64.2006 20.3088 55 20.3088C45.7993 20.3088 36.9755 23.9638 30.4696 30.4697C23.9637 36.9755 20.3088 45.7994 20.3088 55C20.3088 64.2007 23.9637 73.0245 30.4696 79.5304C36.9755 86.0363 45.7993 89.6912 55 89.6912Z" stroke="black" stroke-width="9"/>
</g>
<mask id="mask1_1362_335" style="mask-type:luminance" maskUnits="userSpaceOnUse" x="28" y="28" width="54" height="54">
<path d="M55 71.1892C63.941 71.1892 71.1892 63.9411 71.1892 55C71.1892 46.059 63.941 38.8108 55 38.8108C46.0589 38.8108 38.8107 46.059 38.8107 55C38.8107 63.9411 46.0589 71.1892 55 71.1892Z" stroke="white" stroke-width="21.025"/>
</mask>
<g mask="url(#mask1_1362_335)">
<path d="M55 71.1892C63.941 71.1892 71.1892 63.9411 71.1892 55C71.1892 46.059 63.941 38.8108 55 38.8108C46.0589 38.8108 38.8107 46.059 38.8107 55C38.8107 63.9411 46.0589 71.1892 55 71.1892Z" stroke="black" stroke-width="6"/>
</g>
<path d="M55 38.8109H85.6439V39.9673H55V38.8109ZM69.021 63.0947L53.6991 89.6335L52.6988 89.0553L68.0208 62.5165L69.021 63.0947ZM40.979 63.0947L25.657 36.556L26.6573 35.9778L41.9792 62.5165L40.979 63.0947Z" fill="black"/>
</g>
<defs>
<radialGradient id="paint0_radial_1362_335" cx="0" cy="0" r="1" gradientUnits="userSpaceOnUse" gradientTransform="translate(15860.3 14804.3) scale(105600)">
<stop stop-color="white" stop-opacity="0.12"/>
<stop offset="1" stop-color="white" stop-opacity="0"/>
</radialGradient>
<radialGradient id="paint1_radial_1362_335" cx="0" cy="0" r="1" gradientUnits="userSpaceOnUse" gradientTransform="translate(-21.514 76.2495) scale(31978.5 54849.3)">
<stop stop-color="#1A237E" stop-opacity="0.2"/>
<stop offset="1" stop-color="#1A237E" stop-opacity="0"/>
</radialGradient>
<radialGradient id="paint2_radial_1362_335" cx="0" cy="0" r="1" gradientUnits="userSpaceOnUse" gradientTransform="translate(19920.1 5378.12) scale(35994.1 62962.6)">
<stop stop-color="#1A237E" stop-opacity="0.12"/>
<stop offset="1" stop-color="#1A237E" stop-opacity="0"/>
</radialGradient>
<radialGradient id="paint3_radial_1362_335" cx="0" cy="0" r="1" gradientUnits="userSpaceOnUse" gradientTransform="translate(29269.6 39.0999) scale(40637.5 27457.6)">
<stop stop-color="#1A237E" stop-opacity="0.15"/>
<stop offset="1" stop-color="#1A237E" stop-opacity="0"/>
</radialGradient>
<clipPath id="clip0_1362_335">
<rect width="88" height="88" fill="white" transform="translate(11 11)"/>
</clipPath>
</defs>
</svg>
