<svg width="110" height="110" viewBox="0 0 110 110" fill="none" xmlns="http://www.w3.org/2000/svg">
<path d="M55 55.5C55 51.5821 56.5196 47.8246 59.2245 45.0542C61.9293 42.2837 65.5978 40.7273 69.4231 40.7273C73.2483 40.7273 76.9168 42.2837 79.6217 45.0542C82.3265 47.8246 83.8462 51.5821 83.8462 55.5C83.8462 59.418 82.3265 63.1755 79.6217 65.9459C76.9168 68.7163 73.2483 70.2727 69.4231 70.2727C65.5978 70.2727 61.9293 68.7163 59.2245 65.9459C56.5196 63.1755 55 59.418 55 55.5Z" fill="white"/>
<path d="M26.1539 85.0454C26.1539 81.1275 27.6734 77.37 30.3783 74.5996C33.0831 71.8292 36.7517 70.2727 40.5769 70.2727H55V85.0454C55 88.9634 53.4804 92.7209 50.7756 95.4913C48.0707 98.2617 44.4022 99.8182 40.5769 99.8182C36.7517 99.8182 33.0831 98.2617 30.3783 95.4913C27.6734 92.7209 26.1539 88.9634 26.1539 85.0454Z" fill="white"/>
<path d="M55 11.1819V40.7273H69.4231C73.2483 40.7273 76.9168 39.1709 79.6217 36.4005C82.3265 33.63 83.8462 29.8726 83.8462 25.9546C83.8462 22.0366 82.3265 18.2791 79.6217 15.5087C76.9168 12.7383 73.2483 11.1819 69.4231 11.1819H55Z" fill="white"/>
<path d="M26.1539 25.9546C26.1539 29.8726 27.6734 33.63 30.3783 36.4005C33.0831 39.1709 36.7517 40.7273 40.5769 40.7273H55V11.1819H40.5769C36.7517 11.1819 33.0831 12.7383 30.3783 15.5087C27.6734 18.2791 26.1539 22.0366 26.1539 25.9546Z" fill="white"/>
<path d="M26.1539 55.5C26.1539 59.418 27.6734 63.1755 30.3783 65.9459C33.0831 68.7163 36.7517 70.2727 40.5769 70.2727H55V40.7273H40.5769C36.7517 40.7273 33.0831 42.2837 30.3783 45.0542C27.6734 47.8246 26.1539 51.5821 26.1539 55.5Z" fill="white"/>
</svg>
