<svg width="110" height="110" viewBox="0 0 110 110" fill="none" xmlns="http://www.w3.org/2000/svg">
<g id="Icon">
<g id="Clip path group">
<mask id="mask0_1333_402" style="mask-type:luminance" maskUnits="userSpaceOnUse" x="0" y="0" width="110" height="110">
<g id="a">
<path id="Vector" d="M0 0H109.865V109.865H0V0Z" fill="white"/>
</g>
</mask>
<g mask="url(#mask0_1333_402)">
<g id="Group">
<path id="Vector_2" d="M107.795 50.0406L59.8255 2.07457C59.1684 1.41703 58.3881 0.895421 57.5293 0.539541C56.6706 0.183661 55.7501 0.000488281 54.8205 0.000488281C53.8909 0.000488281 52.9704 0.183661 52.1116 0.539541C51.2528 0.895421 50.4726 1.41703 49.8155 2.07457L39.8581 12.0367L52.4914 24.67C53.9766 24.1656 55.5734 24.0868 57.1011 24.4427C58.6288 24.7985 60.0264 25.5747 61.1359 26.6835C62.2516 27.8003 63.0304 29.2086 63.3833 30.7473C63.7362 32.2859 63.6489 33.8929 63.1315 35.3842L75.3116 47.5608C76.8033 47.0426 78.4109 46.9554 79.95 47.3089C81.4891 47.6625 82.8974 48.4427 84.0135 49.5599C84.7953 50.3415 85.4155 51.2695 85.8386 52.2909C86.2617 53.3122 86.4795 54.4069 86.4795 55.5125C86.4795 56.618 86.2617 57.7127 85.8386 58.734C85.4155 59.7554 84.7953 60.6834 84.0135 61.465C82.433 63.0439 80.2903 63.9308 78.0562 63.9308C75.8221 63.9308 73.6794 63.0439 72.0988 61.465C70.9247 60.2889 70.1247 58.7918 69.7996 57.1621C69.4745 55.5323 69.6389 53.8429 70.2719 52.3063L58.9132 40.9512V70.8389C60.1121 71.4312 61.1526 72.3005 61.9487 73.3749C62.7447 74.4494 63.2733 75.698 63.4906 77.0175C63.708 78.3369 63.6079 79.6891 63.1986 80.9621C62.7894 82.2351 62.0827 83.3923 61.1371 84.3378C60.3555 85.1196 59.4275 85.7398 58.4061 86.1629C57.3848 86.586 56.2901 86.8038 55.1846 86.8038C54.079 86.8038 52.9843 86.586 51.963 86.1629C50.9416 85.7398 50.0136 85.1196 49.232 84.3378C48.45 83.5562 47.8297 82.6281 47.4065 81.6066C46.9833 80.5852 46.7654 79.4903 46.7654 78.3847C46.7654 77.279 46.9833 76.1842 47.4065 75.1627C47.8297 74.1413 48.45 73.2132 49.232 72.4315C50.0197 71.6422 50.956 71.0168 51.9868 70.5914V40.4287C50.9602 40.0059 50.0273 39.3844 49.2416 38.5999C48.456 37.8154 47.8331 36.8835 47.4086 35.8576C46.9842 34.8316 46.7667 33.732 46.7685 32.6217C46.7704 31.5115 46.9916 30.4126 47.4194 29.388L34.9631 16.9294L2.0683 49.8158C0.742752 51.1439 -0.00171661 52.9437 -0.00171661 54.8202C-0.00171661 56.6966 0.742752 58.4964 2.0683 59.8246L50.0403 107.797C51.3684 109.122 53.1679 109.866 55.0441 109.866C56.9202 109.866 58.7198 109.122 60.0479 107.797L107.795 60.0494C109.121 58.7212 109.865 56.9214 109.865 55.045C109.865 53.1685 109.121 51.3687 107.795 50.0406Z" fill="white"/>
</g>
</g>
</g>
</g>
</svg>
