<svg width="110" height="110" viewBox="0 0 110 110" fill="none" xmlns="http://www.w3.org/2000/svg">
<g id="Icon">
<path id="Vector" fill-rule="evenodd" clip-rule="evenodd" d="M54.854 7C27.839 7 6 29 6 56.217C6 77.973 19.993 96.389 39.405 102.907C41.832 103.397 42.721 101.848 42.721 100.545C42.721 99.404 42.641 95.493 42.641 91.418C29.051 94.352 26.221 85.551 26.221 85.551C24.037 79.847 20.801 78.381 20.801 78.381C16.353 75.366 21.125 75.366 21.125 75.366C26.059 75.692 28.648 80.418 28.648 80.418C33.015 87.914 40.052 85.796 42.883 84.492C43.287 81.314 44.582 79.114 45.957 77.892C35.118 76.751 23.714 72.514 23.714 53.609C23.714 48.231 25.654 43.831 28.728 40.409C28.243 39.187 26.544 34.134 29.214 27.371C29.214 27.371 33.339 26.067 42.64 32.423C46.6221 31.3457 50.7288 30.7976 54.854 30.793C58.979 30.793 63.184 31.364 67.067 32.423C76.369 26.067 80.494 27.371 80.494 27.371C83.164 34.134 81.464 39.187 80.979 40.409C84.134 43.831 85.994 48.231 85.994 53.609C85.994 72.514 74.59 76.669 63.67 77.892C65.45 79.44 66.986 82.373 66.986 87.018C66.986 93.618 66.906 98.915 66.906 100.544C66.906 101.848 67.796 103.397 70.222 102.908C89.634 96.388 103.627 77.973 103.627 56.217C103.707 29 81.788 7 54.854 7Z" fill="white"/>
</g>
</svg>
