<svg width="110" height="111" viewBox="0 0 110 111" fill="none" xmlns="http://www.w3.org/2000/svg">
<g id="Icon">
<g id="html">
<path d="M23.9781 2.45703H28.7495V7.17123H33.1143V2.45703H37.886V16.7328H33.1145V11.9524H28.7497V16.7328H23.9783L23.9781 2.45703Z" fill="white"/>
<path d="M44.1606 7.19108H39.96V2.45703H53.135V7.19108H48.9325V16.7328H44.1608L44.1606 7.19108Z" fill="white"/>
<path d="M55.2259 2.45703H60.2013L63.2618 7.4731L66.3192 2.45703H71.2964V16.7328H66.5446V9.65693L63.2618 14.7328H63.1797L59.8947 9.65693V16.7328H55.2259V2.45703Z" fill="white"/>
<path d="M73.6711 2.45703H78.444V12.014H85.1541V16.7328H73.6711V2.45703Z" fill="white"/>
<path fill-rule="evenodd" clip-rule="evenodd" d="M17 23.2615L23.8255 99.817L54.4541 108.32L85.1673 99.805L92 23.2615H17ZM42.0756 57.9144H76.2926L76.0635 60.4357L73.7159 86.7407L54.5 92.0664V92.068L54.4568 92.0799L35.2237 86.7407L33.9083 71.9983H43.3336L44.002 79.4866L54.4589 82.3102L54.4675 82.3079L64.9395 79.4806L66.0293 67.3035H33.4887L30.9563 38.9104H77.9877L77.147 48.2997H41.2175L42.0756 57.9144Z" fill="white"/>
</g>
</g>
</svg>
