<svg width="110" height="110" viewBox="0 0 110 110" fill="none" xmlns="http://www.w3.org/2000/svg">
<path d="M42.3407 79.8234C42.3407 79.8234 38.8027 81.8822 44.8619 82.5769C52.2036 83.4156 55.9554 83.2953 64.0438 81.7664C64.0438 81.7664 66.1746 83.0987 69.1448 84.2535C51.0065 92.0242 28.0959 83.803 42.3407 79.8234ZM40.1231 69.6814C40.1231 69.6814 36.1538 72.6197 42.2183 73.2476C50.061 74.0573 56.253 74.1234 66.9732 72.0601C66.9732 72.0601 68.4524 73.563 70.7821 74.3839C48.8564 80.7964 24.4354 74.8886 40.1231 69.6814Z" fill="white"/>
<path d="M58.8062 52.4745C63.2779 57.6216 57.6335 62.2491 57.6335 62.2491C57.6335 62.2491 68.9808 56.3925 63.7707 49.0552C58.9027 42.216 55.171 38.819 75.3748 27.1013C75.3748 27.1021 43.6604 35.0205 58.8062 52.4745Z" fill="white"/>
<path d="M82.7944 87.3262C82.7944 87.3262 85.4136 89.486 79.9088 91.1551C69.4425 94.3258 36.3379 95.2817 27.1437 91.282C23.8402 89.8437 30.0375 87.8494 31.9872 87.4286C34.0201 86.9885 35.1809 87.0686 35.1809 87.0686C31.5048 84.4806 11.4212 92.1526 24.981 94.3532C61.9575 100.347 92.3842 91.6539 82.7944 87.3262ZM44.0441 59.1713C44.0441 59.1713 27.2068 63.1709 38.0821 64.6249C42.6747 65.2394 51.8259 65.0984 60.3559 64.3829C67.325 63.7974 74.3186 62.5468 74.3186 62.5468C74.3186 62.5468 71.8635 63.5999 70.0852 64.8127C52.9837 69.3111 19.9549 67.2159 29.4645 62.6173C37.5039 58.729 44.0441 59.1713 44.0441 59.1713ZM74.2489 76.0538C91.6316 67.0236 83.5938 58.3452 77.9836 59.5142C76.612 59.7999 75.9967 60.0486 75.9967 60.0486C75.9967 60.0486 76.5073 59.2477 77.4811 58.9034C88.579 55.0032 97.1127 70.4095 73.9015 76.5118C73.9015 76.5103 74.168 76.2691 74.2489 76.0538Z" fill="white"/>
<path d="M63.7707 8.17773C63.7707 8.17773 73.3954 17.8084 54.6396 32.6128C39.5984 44.4922 51.2099 51.2639 54.6344 59.0042C45.8535 51.0829 39.4128 44.1085 43.7331 37.6181C50.0773 28.0929 67.6531 23.4727 63.7707 8.17773Z" fill="white"/>
<path d="M45.7526 100.531C62.434 101.598 88.0573 99.9374 88.6636 92.0435C88.6636 92.0435 87.4977 95.036 74.876 97.4102C60.6364 100.091 43.0703 99.7785 32.6552 98.0589C32.6552 98.0596 34.789 99.826 45.7526 100.531Z" fill="white"/>
</svg>
