<svg width="110" height="111" viewBox="0 0 110 111" fill="none" xmlns="http://www.w3.org/2000/svg">
<g id="Icon">
<path id="JavaScript" d="M12 13.457V98.457H97V13.457H12ZM57.5357 79.4838C57.5357 87.758 52.6482 91.7917 45.5731 91.7917C39.1829 91.7917 35.4737 88.4828 33.5915 84.489L40.0955 80.552C41.3497 82.7776 42.3021 84.6597 45.04 84.6597C47.3167 84.6597 49.1875 83.6333 49.1875 79.6394V52.9213H57.5357V79.4838ZM76.3856 91.602C68.969 91.602 64.1763 88.2551 61.8369 83.6333L68.3504 79.8633C70.058 82.6599 72.2874 84.5231 76.2243 84.5231C79.5333 84.5231 81.4552 83.0584 81.4552 80.7759C81.4552 78.0381 79.4763 77.0685 75.824 75.4634L73.828 74.6058C68.064 72.1545 64.2427 69.0732 64.2427 62.5673C64.2427 56.5775 68.8058 52.2022 75.9378 52.2022C81.017 52.2022 84.6655 53.7808 87.2933 58.4027L81.0625 62.4079C79.6926 59.9547 78.2165 58.9927 75.9284 58.9927C73.589 58.9927 72.1052 60.4765 72.1052 62.4079C72.1052 64.8042 73.589 65.7738 77.0117 67.2575L79.0077 68.1132C85.7982 71.0237 89.6213 73.9949 89.6213 80.6659C89.6232 87.8567 83.9749 91.602 76.3856 91.602Z" fill="white"/>
</g>
</svg>
