<svg width="110" height="110" viewBox="0 0 110 110" fill="none" xmlns="http://www.w3.org/2000/svg">
<g clip-path="url(#clip0_1362_335)">
<path d="M99.8786 20.3416C98.8924 26.7901 91.5962 29.9495 86.253 26.6055L80.5412 32.3167C100.657 54.5461 90.2539 90.8506 60.8637 98.6242C30.8401 106.565 3.31766 78.83 11.4422 48.8204C19.3814 19.4955 55.5933 9.29671 77.6756 29.4386L83.3709 23.7433C80.517 19.1984 82.2873 12.7393 87.7281 10.6214C94.1533 8.12036 100.92 13.5335 99.8786 20.3416ZM69.4953 66.468H72.4537C72.8748 66.4644 72.9826 66.3383 73.0184 65.9034V57.565C74.119 57.0103 75.0448 56.6974 75.776 56.8142C76.5989 56.9458 76.9532 57.5347 76.9188 58.8289V65.9034C76.9236 66.1384 76.9476 66.4741 77.5111 66.468H80.4695C80.8244 66.4659 80.9898 66.3522 81.0065 65.9034V58.2366C81.0457 55.9149 80.7073 53.7772 78.6478 53.1708C76.851 52.6362 74.5686 53.0852 72.5066 54.794C71.9559 53.5753 70.765 53.0315 69.2924 52.9634C67.9601 52.9019 66.4251 53.3488 65.0279 54.4802L65.0296 53.798C65.0007 53.4795 64.9408 53.2046 64.4416 53.2063H61.5028C61.1762 53.2011 60.9444 53.3334 60.9419 53.798V65.9027C60.946 66.2912 61.0986 66.467 61.5028 66.4674H64.4416C64.9266 66.4735 65.0108 66.2349 65.0296 65.9027V57.5644C67.889 56.1521 68.9935 56.7424 68.93 58.7478V65.9034C68.9399 66.2904 69.0697 66.4603 69.4953 66.468ZM58.8418 54.6477C58.9321 54.3036 58.891 54.0646 58.7208 53.9288C57.1104 52.9433 53.2209 52.5932 51.041 53.3869C49.009 54.1267 48.3406 55.7587 48.2977 57.2529C48.2788 60.1986 50.4532 60.9598 53.5965 61.3523C54.6607 61.4917 55.1457 61.6488 55.1024 62.4576C55.1605 64.0359 51.5621 63.3989 49.3735 63.1059C48.5959 62.9605 48.6204 63.2103 48.5121 63.5624L48.2165 64.8428C48.0801 65.5292 48.1318 65.751 49.1308 66.1233C53.1105 67.1768 57.3287 66.9235 58.8006 64.3894C59.6779 62.7949 59.4794 60.0528 57.7199 59.0372C56.5891 58.3364 55.2527 58.2353 54.1766 58.0611C53.0668 57.8414 52.3485 57.7928 52.3867 57.106C52.4461 56.2008 52.8999 56.1302 54.7006 56.2206C56.6163 56.2972 58.0515 56.6596 58.3177 56.4897C58.5588 56.3312 58.661 55.4278 58.8418 54.6477ZM44.6042 54.1151C43.1068 52.7907 39.2738 52.561 35.3572 53.5829C34.7358 53.8712 34.4244 53.9719 34.4964 54.6317C34.7215 55.5707 34.7694 56.4105 35.0746 56.4879C35.961 56.6063 38.6051 56.0339 40.5485 56.3392C41.4227 56.5443 41.7617 56.8418 41.7049 58.2624H38.6112C34.8579 58.2313 33.4053 59.8763 33.4464 62.7274C33.4415 64.9035 34.1334 66.5837 37.0985 66.6833C38.7774 66.7396 40.6942 66.0468 42.0618 64.8175C42.2068 65.3752 42.3583 65.7705 42.8318 66.1394C43.337 66.533 44.6469 66.7562 45.9157 66.5623C46.7879 66.4291 47.3162 66.2297 47.3005 65.7417V64.0195C47.2901 63.661 47.1731 63.6002 46.7352 63.5624C45.8551 63.4896 45.7406 63.3114 45.741 62.2708V58.0215C45.6301 56.4232 45.6287 55.0213 44.6042 54.1151ZM38.2065 63.556C37.7874 63.4475 37.579 63.1683 37.5888 62.5142C37.5781 61.3169 38.1155 60.913 39.2035 60.8731H41.6238H41.6244V62.6758C40.4786 63.3401 39.1165 63.7915 38.2065 63.556ZM27.6603 65.9033C27.6603 66.2794 27.8311 66.468 28.2262 66.468H31.1847C31.419 66.4541 31.7381 66.4737 31.7487 65.904V58.2642C31.7967 55.891 31.395 54.6617 30.5019 53.8371C28.9754 52.4277 25.7852 52.7715 23.3839 54.5299L23.3839 53.7992C23.3547 53.3127 23.2085 53.2177 22.8187 53.2075H19.8873C19.4398 53.2063 19.3085 53.407 19.2956 53.7992V65.904C19.3285 66.1268 19.2931 66.4702 19.8873 66.4686H22.8187C23.1685 66.4608 23.3561 66.4036 23.3839 65.904V57.5656C25.5749 56.6053 27.6933 56.0457 27.6603 58.8559V65.9033Z" fill="white"/>
</g>
<defs>
<clipPath id="clip0_1362_335">
<rect width="90" height="90" fill="white" transform="translate(10 10)"/>
</clipPath>
</defs>
</svg>
