<svg width="110" height="110" viewBox="0 0 110 110" fill="none" xmlns="http://www.w3.org/2000/svg">
<path d="M66.25 92.5253H28.75V85.0253H66.25V92.5253ZM92.5 25L74.7437 47.3312L73.9187 48.3437L52.8062 75.3062C52.1101 76.0063 51.2827 76.5621 50.3714 76.9418C49.4601 77.3215 48.4829 77.5176 47.4956 77.519C46.5084 77.5204 45.5306 77.327 44.6183 76.9498C43.7059 76.5726 42.877 76.0192 42.1789 75.3211C41.4808 74.623 40.9273 73.7941 40.5502 72.8817C40.173 71.9694 39.9796 70.9916 39.981 70.0043C39.9823 69.0171 40.1785 68.0399 40.5582 67.1286C40.9379 66.2173 41.4937 65.3899 42.1937 64.6937L92.5 25ZM19.9184 37.1294C14.5028 45.8049 12.5555 56.2027 14.4645 66.25H17.5V62.5C17.4598 55.1166 19.671 47.8963 23.8389 41.8015L19.9184 37.1294ZM55 17.5C49.2651 17.4992 43.5936 18.6988 38.3502 21.0216C33.1067 23.3444 28.4075 26.7389 24.5548 30.9869L28.8437 36.0982C33.9347 31.4179 40.5847 28.7987 47.5 28.75C54.4526 28.7986 61.136 31.4441 66.2383 36.1672L79.5542 25.6597C72.4644 20.3613 63.8508 17.4989 55 17.5ZM80.6128 51.9989L79.7375 53.0774L77.0079 56.5635C77.3272 58.5264 77.4918 60.5113 77.5 62.5V66.25H95.5354C97.3154 56.8658 95.7463 47.1545 91.1015 38.8084L80.6128 51.9989Z" fill="white"/>
</svg>
