<svg width="110" height="110" viewBox="0 0 110 110" fill="none" xmlns="http://www.w3.org/2000/svg">
<g clip-path="url(#clip0_1333_390)">
<path d="M41.0169 59.9681C37.8439 61.1687 35.7622 63.2739 34.3909 65.3774C35.7043 63.8448 37.4637 62.4383 39.8369 61.5414C42.2643 60.624 44.3352 60.6306 46.0463 61.0709V59.2868C44.5866 59.1089 42.9132 59.2507 41.0169 59.9681ZM34.2458 44.9705L22.4617 49.1099C22.4617 49.1099 22.6765 49.5144 23.0742 50.0542L33.0656 46.5438C33.0656 46.5438 32.924 48.9763 31.6945 51.1524C34.0203 48.8062 34.2458 44.9705 34.2458 44.9705ZM44.1099 81.8967C27.5265 87.8521 18.7528 62.2275 16.0965 48.9274C14.8692 42.7882 14.3335 38.1385 14.1907 35.1381C14.1754 34.8265 14.1825 34.5638 14.199 34.3232C13.3387 34.3924 12.9269 34.9887 13.0107 36.7117C13.1534 39.7105 13.6892 44.3598 14.9164 50.501C17.5716 63.7992 26.3465 89.4237 42.9299 83.4684C46.5395 82.1719 49.2513 79.8103 51.287 76.7957C49.4107 79.0551 47.0623 80.8346 44.1099 81.8967ZM47.2263 29.2881V30.8617H53.7309C53.5974 30.3046 53.463 29.8026 53.3295 29.2881H47.2263Z" fill="#737373"/>
<path d="M55.1847 42.2483C58.11 43.356 59.6571 46.0906 60.4749 48.5106L63.7365 49.7458C63.7365 49.7458 63.2916 41.2761 57.5459 39.1001C52.1707 37.0638 48.863 43.0822 48.4607 43.861C50.0243 42.3757 52.3076 41.1596 55.1847 42.2483ZM81.1483 48.5497C75.7682 46.5043 72.4618 52.5351 72.0653 53.3031C73.6302 51.8194 75.9123 50.603 78.7881 51.6966C81.7087 52.806 83.2546 55.5373 84.0748 57.959L87.3412 59.1987C87.3412 59.1987 86.8891 50.7274 81.1483 48.5497ZM77.9078 70.8812L50.7748 60.7674C50.7748 60.7674 51.0686 62.753 52.1956 65.3241L75.0404 73.8394C76.9211 72.3885 77.9078 70.8812 77.9078 70.8812ZM59.0964 92.651C37.6124 84.971 40.2097 48.4729 43.6861 31.1778C45.1175 24.0503 46.589 18.7527 47.8094 15.2015C47.0812 15.0016 46.4782 15.513 45.8823 17.1289C44.5866 20.6328 42.9297 26.338 41.3262 34.3247C37.8507 51.6195 35.2534 88.1162 56.7365 95.7963C66.8625 99.4133 74.751 93.916 80.6314 85.2825C75.0497 92.0232 67.9233 95.8025 59.0964 92.651Z" fill="#737373"/>
<path d="M47.2263 73.3439V65.9787L31.8786 71.7814C31.8786 71.7814 33.0127 62.9956 41.0169 59.9682C43.4443 59.0509 45.5154 59.0571 47.2263 59.4977V29.2882H54.9109C54.0742 25.8409 53.2648 23.1868 52.5849 21.3426C51.4603 18.2903 50.3075 20.3137 47.6902 23.2324C45.8468 25.2857 41.188 29.6661 34.1774 32.185C27.1666 34.7055 21.4988 34.037 19.134 33.491C15.7814 32.7198 14.0279 31.7382 14.1919 35.1382C14.3347 38.1371 14.8704 42.7867 16.0977 48.9276C18.7528 62.2261 27.5277 87.8506 44.1111 81.8952C48.4429 80.339 51.5005 77.263 53.6198 73.3422H47.2263V73.3439ZM22.4606 49.1101L34.2458 44.9707C34.2458 44.9707 33.9023 51.0157 29.4842 52.5686C25.0649 54.1199 22.4606 49.1101 22.4606 49.1101Z" fill="white"/>
<path d="M91.5799 29.6375C88.5165 30.3536 81.167 31.2456 72.0843 27.9995C62.9991 24.7554 56.9711 19.0816 54.5829 16.4147C51.1974 12.6337 49.7081 10.0062 48.2425 13.9806C46.9468 17.4861 45.2899 23.1913 43.6861 31.178C40.2109 48.4728 37.6136 84.9696 59.0964 92.6496C80.5748 100.323 92.0094 66.9823 95.4848 49.6859C97.0885 41.7009 97.7918 35.6543 97.9853 31.7555C98.206 27.339 95.9307 28.621 91.5799 29.6375ZM48.4171 43.9463C48.4171 43.9463 51.8026 36.9255 57.5446 39.1016C63.2904 41.2777 63.7353 49.7473 63.7353 49.7473L48.4171 43.9463ZM62.4337 75.4506C52.3337 71.5059 50.776 60.7673 50.776 60.7673L77.9078 70.8814C77.9078 70.8798 72.4312 79.3461 62.4337 75.4506ZM72.0264 53.3818C72.0264 53.3818 75.4073 46.366 81.1483 48.5483C86.8891 50.7277 87.3412 59.1973 87.3412 59.1973L72.0264 53.3818Z" fill="white"/>
<path d="M41.863 68.0068L31.8786 71.7798C31.8786 71.7798 32.9632 63.5417 40.3183 60.2769L34.6647 31.9871L34.1761 32.185C27.1654 34.7059 21.4976 34.0371 19.1328 33.4911C15.7803 32.7202 14.0267 31.7382 14.1907 35.1386C14.3335 38.1374 14.8693 42.7867 16.0965 48.9279C18.7516 62.2261 27.5265 87.8506 44.1099 81.8953L44.5984 81.6907L41.863 68.0068ZM22.4606 49.1105L34.2458 44.9707C34.2458 44.9707 33.9023 51.0157 29.4842 52.5686C25.0649 54.1199 22.4606 49.1105 22.4606 49.1105Z" fill="white"/>
<path d="M62.8892 75.5984L62.4325 75.4503C52.3325 71.5059 50.7748 60.7673 50.7748 60.7673L64.7656 65.9816L72.1727 28.0311L72.083 27.9995C62.9978 24.7554 56.9702 19.0816 54.5817 16.4147C51.1961 12.6337 49.7069 10.0062 48.2413 13.9806C46.9468 17.4861 45.2899 23.1913 43.6861 31.178C40.2109 48.4728 37.6136 84.9696 59.0964 92.6492L59.5367 92.7815L62.8892 75.5984ZM48.4171 43.9463C48.4171 43.9463 51.8026 36.9255 57.5446 39.1016C63.2904 41.2777 63.7353 49.7473 63.7353 49.7473L48.4171 43.9463Z" fill="white"/>
<path d="M42.3717 67.8133L39.6941 68.8265C40.3267 73.5812 41.4416 78.1442 43.1917 82.1753C43.4963 82.0856 43.7984 82.0085 44.1086 81.8952C44.9217 81.6027 45.6757 81.2405 46.4016 80.8456C44.4462 76.9767 43.1528 72.5208 42.3717 67.8133ZM41.3262 34.3249C39.9502 41.1723 38.7192 51.0281 39.0581 60.9137C39.6645 60.5628 40.3053 60.2358 41.0169 59.9665L41.5126 59.8188C40.9083 49.2594 42.2146 38.4992 43.6861 31.178C44.0592 29.326 44.4332 27.6033 44.806 25.9968C44.2054 26.5064 43.5588 27.0287 42.8223 27.5668C42.3256 29.6109 41.8241 31.8451 41.3262 34.3249Z" fill="white"/>
</g>
<defs>
<clipPath id="clip0_1333_390">
<rect width="85" height="85" fill="white" transform="translate(13 12)"/>
</clipPath>
</defs>
</svg>
