<svg width="110" height="110" viewBox="0 0 110 110" fill="none" xmlns="http://www.w3.org/2000/svg">
<g clip-path="url(#clip0_1362_335)">
<mask id="mask0_1362_335" style="mask-type:luminance" maskUnits="userSpaceOnUse" x="-32" y="-32" width="174" height="174">
<path d="M141.148 55.182C141.148 102.812 102.526 141.39 54.9392 141.39C7.35224 141.39 -31.2691 102.812 -31.2691 55.182C-31.2691 7.55187 7.35224 -31.0264 54.9392 -31.0264C102.526 -31.0264 141.148 7.55187 141.148 55.182Z" fill="white"/>
</mask>
<g mask="url(#mask0_1362_335)">
<path d="M46.9294 21.3882C46.9294 24.4917 44.4106 27.0104 41.3071 27.0104C38.2036 27.0104 35.6848 24.4917 35.6848 21.3882C35.6848 18.2847 38.2036 15.7659 41.3071 15.7659C44.4106 15.7659 46.9294 18.2847 46.9294 21.3882Z" fill="black"/>
<path d="M54.3957 10.2036C50.6925 10.2186 47.1468 10.541 44.0283 11.0807C34.8489 12.6924 33.1772 16.0433 33.1772 22.2391V30.4251H54.8755V33.15H25.0362C18.7242 33.15 13.2069 36.8982 11.479 44.0273C9.48869 52.1983 9.38374 57.3071 11.479 65.8267C13.0157 72.1799 16.6927 76.704 23.0009 76.704H29.3841V65.8417C29.3841 58.7689 35.5911 52.5619 42.9563 52.5619H65.6703C71.7011 52.5619 77.4134 47.6405 77.4134 41.6547V22.284C77.4134 16.4706 71.57 12.0927 65.6703 11.1257C61.9521 10.511 58.0877 10.2336 54.3883 10.2486M42.6602 16.7779C44.9016 16.7779 46.7307 18.622 46.7307 20.8934C46.7307 23.1499 44.9016 24.964 42.6602 24.964C40.4038 24.964 38.5746 23.1499 38.5746 20.8934C38.5746 18.6258 40.3888 16.7779 42.6602 16.7779Z" fill="white"/>
<path d="M73.1817 88.8557C73.1817 91.9592 70.6629 94.478 67.5594 94.478C64.4409 94.478 61.9221 91.9592 61.9221 88.8557C61.9221 85.7522 64.4409 83.2334 67.5594 83.2334C70.6629 83.2334 73.1817 85.7522 73.1817 88.8557Z" fill="black"/>
<path d="M80.5019 33.1426V42.6742C80.5019 50.0544 74.1637 55.3993 66.9447 55.3993H43.1362C37.2065 55.3993 32.2852 61.314 32.2852 67.1874V87.6262C32.2852 93.4397 37.3939 96.8505 43.1362 98.5185C50.0028 100.509 57.4842 100.891 65.7003 98.5185C71.1614 96.9517 76.5513 93.8033 76.5513 87.6262V79.4402H54.883V76.7153H87.4173C93.7142 76.7153 96.0718 72.3524 98.2683 65.838C100.536 59.1175 100.42 52.6444 98.2683 44.0386C96.7015 37.8166 93.7292 33.1613 87.4173 33.1613M67.0796 84.9051C69.321 84.9051 71.1501 86.7192 71.1501 88.9756C71.1501 91.232 69.336 93.0911 67.0796 93.0911C64.8232 93.0911 62.9941 91.232 62.9941 88.9756C62.9941 86.7192 64.8232 84.9051 67.0796 84.9051Z" fill="white"/>
</g>
</g>
<defs>
<clipPath id="clip0_1362_335">
<rect width="96" height="96" fill="white" transform="translate(7 7)"/>
</clipPath>
</defs>
</svg>
