<svg width="110" height="110" viewBox="0 0 110 110" fill="none" xmlns="http://www.w3.org/2000/svg">
<path d="M64.4222 96.9737C58.7499 97.0126 53.0775 97.0515 46.8158 96.7501C38.8377 95.2229 32.6335 91.7035 27.0487 86.8538C19.8018 80.5609 15.5583 72.5144 13.0263 63.4223C12.9874 57.7499 12.9485 52.0775 13.2499 45.8158C14.7771 37.8377 18.2965 31.6335 23.1462 26.0487C29.4391 18.8018 37.4856 14.5583 46.5778 12.0263C52.2501 11.9874 57.9225 11.9485 64.1842 12.2499C72.1623 13.7771 78.3665 17.2965 83.9513 22.1462C91.1982 28.4391 95.4417 36.4856 97.9737 45.5778C98.0126 51.2501 98.0515 56.9225 97.75 63.1842C96.2229 71.1623 92.7035 77.3665 87.8538 82.9513C81.5609 90.1982 73.5144 94.4417 64.4222 96.9737ZM33.867 22.5754C32.9182 23.2784 31.9404 23.9456 31.0251 24.6898C17.2438 35.8941 12.9912 55.6642 20.9219 71.6065C28.8644 87.5724 46.894 96.2864 63.9153 92.0899C79.9187 88.1444 90.1712 77.8991 93.2619 61.8299C96.3488 45.7811 90.9424 32.1333 77.2978 22.8396C63.4032 13.3755 48.833 13.5396 33.867 22.5754Z" fill="#52B221"/>
<path d="M34.1383 22.4042C48.833 13.5396 63.4031 13.3756 77.2978 22.8396C90.9424 32.1333 96.3487 45.7811 93.2619 61.8299C90.1711 77.8991 79.9186 88.1445 63.9153 92.09C46.894 96.2864 28.8644 87.5724 20.9219 71.6065C12.9912 55.6642 17.2437 35.8942 31.0251 24.6898C31.9404 23.9457 32.9182 23.2784 34.1383 22.4042ZM58.1459 49.1324C48.5828 50.006 39.4186 52.2384 30.9431 56.9371C28.7566 58.1493 28.4412 59.3848 29.9279 61.4894C33.1462 66.0451 36.2623 70.6817 39.2095 75.4164C40.653 77.7353 41.8559 78.0192 44.0836 76.3423C52.3438 70.1243 59.4961 63.092 63.1348 52.7984C64.9049 51.9024 66.741 51.1154 68.4325 50.0898C73.2247 47.1838 78.0624 44.3281 82.6286 41.0944C83.58 40.4207 84.2035 37.6992 83.6212 36.8243C82.7939 35.5811 80.5985 34.3933 79.1898 34.5949C77.1395 34.8883 75.0778 36.189 73.3585 37.5022C68.4499 41.2513 63.7117 45.2236 58.1459 49.1324Z" fill="#FEFEFE"/>
<path d="M62.6558 52.8659C59.4962 63.0919 52.3439 70.1242 44.0836 76.3422C41.856 78.0191 40.653 77.7352 39.2096 75.4163C36.2624 70.6816 33.1463 66.045 29.928 61.4893C28.4413 59.3847 28.7567 58.1492 30.9431 56.937C39.4187 52.2383 48.5829 50.0059 58.6812 49.3855C60.3629 50.7144 61.5093 51.7902 62.6558 52.8659Z" fill="#D0D1D2"/>
<path d="M62.8953 52.8321C61.5093 51.7901 60.3628 50.7144 59.0615 49.3733C63.7117 45.2234 68.4499 41.2512 73.3585 37.5021C75.0778 36.1889 77.1395 34.8881 79.1898 34.5947C80.5985 34.3932 82.7939 35.581 83.6213 36.8242C84.2035 37.699 83.58 40.4205 82.6286 41.0943C78.0624 44.3279 73.2247 47.1836 68.4325 50.0896C66.741 51.1153 64.9049 51.9023 62.8953 52.8321Z" fill="#AB7F56"/>
</svg>
