<svg width="110" height="110" viewBox="0 0 110 110" fill="none" xmlns="http://www.w3.org/2000/svg">
<g id="Scss 1" clip-path="url(#clip0_1330_541)">
<path id="Vector" d="M94.6602 63.1926C90.8145 63.2213 87.4844 64.453 84.6914 66.2864C83.6602 63.565 82.6289 61.1874 82.457 59.4114C82.2637 57.3489 82.0274 56.0885 82.2637 53.6249C82.5 51.1614 83.5742 47.6666 83.5742 47.3801C83.5527 47.1223 83.3379 45.8619 81.125 45.8333C78.9121 45.8046 77 46.4062 76.7852 47.1796C76.5703 47.953 76.1406 49.7291 75.8613 51.5624C75.4746 54.2551 71.4356 63.7942 69.1367 68.8072C68.3848 66.8593 67.7402 65.1405 67.6113 63.7655C67.418 61.703 67.1816 60.4426 67.418 57.9791C67.6543 55.5155 68.7285 52.0208 68.7285 51.7343C68.707 51.4765 68.4922 50.2161 66.2793 50.1874C64.0664 50.1588 62.1543 50.7603 61.9395 51.5338C61.7246 52.3072 61.4883 54.1405 61.0156 55.9166C60.5645 57.6926 55.1934 73.6197 53.7969 77.7734C53.0879 79.8932 52.4649 81.5833 52.0137 82.7291C51.5625 83.8749 51.9922 82.815 51.9492 82.9296C51.5625 83.9036 51.3477 84.4478 51.3477 84.4478V84.4765C51.0469 85.1926 50.7246 85.8801 50.5742 85.8801C50.4668 85.8801 50.252 83.9609 50.6172 81.3254C51.4121 75.7968 53.3457 67.1744 53.3242 66.8593C53.3242 66.7161 53.6895 65.1978 52.0781 64.4244C50.5098 63.651 49.9512 64.94 49.8223 64.94C49.6934 64.94 49.5859 65.3984 49.5859 65.3984C49.5859 65.3984 51.3262 55.6874 46.2559 55.6874C43.0762 55.6874 38.6934 60.2994 36.5234 64.5103C35.1484 65.5129 32.2266 67.6327 29.1328 69.8958C27.9512 70.7551 26.7266 71.6718 25.5664 72.5025L25.3301 72.1588C19.1856 63.4218 7.82032 57.2343 8.29298 45.4895C8.46485 41.2213 9.58204 29.9635 30.1211 16.328C46.9434 5.15617 60.4141 8.22128 62.7559 15.039C66.0859 24.7786 55.5586 42.8827 38.0703 45.4895C31.4102 46.4921 27.9082 43.0546 27.0274 41.7655C26.1035 40.4192 25.9746 40.3619 25.6309 40.6197C25.0723 41.0208 25.416 42.2239 25.6309 42.94C26.1465 44.7447 28.2949 47.953 31.9473 49.5572C35.1484 50.9609 42.9688 51.7343 52.4219 46.8645C63.0137 41.3932 71.2852 26.2109 68.8574 13.5208C66.3867 0.601487 50.3164 -3.6381 35.127 3.55201C26.082 7.84888 16.2852 14.552 9.23829 23.3463C0.859384 33.7734 -0.472648 42.8827 0.085946 46.664C2.04102 60.1562 15.9844 68.9504 21.5703 75.453C21.291 75.6536 21.0332 75.8541 20.7969 76.026C18.0039 77.8593 7.36915 85.2786 4.70509 93.1275C1.69727 102.008 5.17774 108.396 7.49806 109.255C14.6738 111.919 22.0215 107.135 25.9961 99.2577C29.9492 91.3801 29.4766 81.1536 27.6504 76.4843L27.5859 76.3124L29.7774 74.5937C31.1953 73.4765 32.5918 72.4452 33.8164 71.5572C33.1289 74.0494 32.6348 76.9999 32.377 81.2968C32.0762 86.3385 33.6231 92.8697 35.6641 95.4478C36.5664 96.565 37.6406 96.5937 38.3066 96.5937C40.6699 96.5937 41.7441 93.9869 42.9258 90.8645C44.3867 87.0546 45.6758 82.6432 45.6758 82.6432C45.6758 82.6432 44.0645 94.5885 48.4688 94.5885C50.0801 94.5885 51.6914 91.8098 52.4219 90.3775V90.4062C52.4219 90.4062 52.4649 90.3202 52.5508 90.1197C52.7227 89.776 52.8086 89.5755 52.8086 89.5755V89.5182C53.4531 88.0286 54.8926 84.6197 57.041 78.9765C59.8125 71.7005 62.4766 62.5911 62.4766 62.5911C62.4766 62.5911 62.7344 64.8254 63.5293 68.4921C64.002 70.6692 65.0332 73.0468 65.8281 75.3671C65.1836 76.5702 64.7969 77.2577 64.7969 77.2577L64.8184 77.2864C64.3027 78.203 63.7227 79.177 63.1211 80.151C60.9297 83.6458 58.3086 87.6275 57.9648 88.7734C57.5566 90.1197 57.6426 91.1223 58.4375 91.9244C59.0176 92.4973 60.0488 92.6119 61.1445 92.4973C63.1211 92.3254 64.4961 91.6666 65.1836 91.2656C66.2578 90.7499 67.4824 89.9765 68.6641 88.8307C70.8125 86.7109 72.1231 83.7031 71.9941 79.6926C71.9297 77.4869 71.3926 75.3098 70.7266 73.2473C70.9199 72.8749 71.1133 72.5025 71.3066 72.1015C74.7012 65.4843 77.3223 58.2083 77.3223 58.2083C77.3223 58.2083 77.5801 60.4426 78.375 64.1093C78.7832 65.9713 79.5996 68.0051 80.3301 70.0103C77.1504 73.4765 75.1524 77.4869 74.4649 80.1223C73.1973 84.9921 74.1856 87.1978 76.0547 87.7135C76.8926 87.9426 78.0957 87.427 78.9981 86.9114C80.1152 86.4244 81.4688 85.5937 82.7149 84.3619C84.8633 82.2421 86.9258 79.2916 86.8184 75.3098C86.7539 73.4765 86.3887 71.6718 85.8945 69.953C88.6016 68.4635 92.1035 67.6041 96.5508 68.3202C106.111 69.8098 108.002 77.7734 107.637 81.0963C107.271 84.4192 105.273 86.2525 104.607 86.8255C103.941 87.3697 103.727 87.5702 103.791 87.9713C103.877 88.5728 104.178 88.5442 104.758 88.4296C105.553 88.2577 109.785 85.7083 109.957 79.578C110.215 71.7004 104.607 63.1067 94.6602 63.1926ZM20.9258 96.3359C17.7676 100.948 13.3203 102.695 11.4297 101.206C9.38868 99.6301 10.1836 92.8411 14.0723 87.9426C16.4356 84.9635 19.5078 82.2135 21.5274 80.5234C21.9785 80.151 22.666 79.6067 23.4824 78.9478C23.6113 78.8333 23.6973 78.776 23.6973 78.776C23.8477 78.6614 24.0195 78.5182 24.1914 78.3749C25.6309 85.3645 24.2559 91.4947 20.9258 96.3359ZM44.0215 75.3958C42.9258 78.9765 40.6055 88.1718 39.209 87.6562C38.0059 87.2265 37.2754 80.2655 38.9727 73.3905C39.832 69.9244 41.6582 65.7994 42.7324 64.1952C44.4727 61.6171 46.3633 60.7577 46.8359 61.8176C47.3945 63.1926 44.709 73.1614 44.0215 75.3958ZM63.0781 87.5416C62.6055 87.8567 62.1758 88.0859 61.9824 87.914C61.832 87.7994 62.1758 87.3697 62.1758 87.3697C62.1758 87.3697 64.5606 83.9609 65.5059 82.3853C66.043 81.4687 66.6875 80.4088 67.375 79.2057V79.5494C67.375 83.6744 64.4102 86.4244 63.0781 87.5416ZM77.7734 83.0728C77.4297 82.7291 77.4727 81.6692 78.6328 78.3463C79.084 77.0286 80.1152 74.8228 81.8984 72.7317C82.1133 73.5911 82.2422 74.4218 82.2207 75.1952C82.1992 80.3515 79.4492 82.2708 77.7734 83.0728Z" fill="white"/>
</g>
<defs>
<clipPath id="clip0_1330_541">
<rect width="110" height="110" fill="white"/>
</clipPath>
</defs>
</svg>
