<svg width="110" height="110" viewBox="0 0 110 110" fill="none" xmlns="http://www.w3.org/2000/svg">
<path fill-rule="evenodd" clip-rule="evenodd" d="M16.9844 12H94.0156C96.2161 12 98 13.7839 98 15.9844V93.0156C98 95.2161 96.2161 97 94.0156 97H16.9844C14.7839 97 13 95.2161 13 93.0156V15.9844C13 13.7839 14.7839 12 16.9844 12ZM62.3147 87.3671V78.053C63.9979 79.4694 65.826 80.5319 67.7993 81.2398C69.7726 81.9484 71.7652 82.3023 73.7773 82.3023C74.9574 82.3023 75.9875 82.1954 76.8677 81.9822C77.748 81.7691 78.4831 81.4729 79.0732 81.0944C79.6632 80.7159 80.1035 80.2696 80.3937 79.7556C80.6839 79.2416 80.8287 78.6838 80.8287 78.0821C80.8287 77.2671 80.5969 76.5394 80.1321 75.8991C79.6679 75.2588 79.0345 74.667 78.2317 74.1236C77.4288 73.5803 76.476 73.0564 75.3733 72.5519C74.2706 72.0475 73.0808 71.5332 71.8039 71.0093C68.5538 69.6511 66.1308 67.992 64.5347 66.0322C62.9386 64.0724 62.1406 61.7051 62.1406 58.9304C62.1406 56.7571 62.5759 54.8895 63.4465 53.3275C64.317 51.7655 65.502 50.48 67.0013 49.4709C68.5006 48.4619 70.2369 47.7197 72.2102 47.2443C74.1835 46.7689 76.2729 46.5312 78.4783 46.5312C80.6454 46.5312 82.5652 46.6622 84.2386 46.9242C85.9121 47.1861 87.4547 47.5888 88.8671 48.1321V56.8347C88.1705 56.3496 87.4115 55.9228 86.5894 55.5541C85.7666 55.1854 84.9206 54.8798 84.05 54.6373C83.1795 54.3947 82.3135 54.2152 81.4529 54.0988C80.5916 53.9824 79.7748 53.9241 79.0006 53.9241C77.9366 53.9241 76.9693 54.026 76.0988 54.2298C75.2282 54.4335 74.493 54.7197 73.8933 55.0884C73.2936 55.457 72.8293 55.8985 72.5004 56.4127C72.1715 56.9269 72.0071 57.5042 72.0071 58.1445C72.0071 58.843 72.1909 59.4688 72.5584 60.0218C72.926 60.5748 73.4483 61.0987 74.1255 61.5936C74.8026 62.0884 75.6247 62.5735 76.5921 63.0489C77.5594 63.5243 78.6524 64.0142 79.8711 64.5187C81.5352 65.2172 83.0294 65.9595 84.3548 66.7453C85.6796 67.5312 86.8165 68.4189 87.7641 69.4085C88.7124 70.3981 89.4376 71.5284 89.9409 72.7993C90.4436 74.0703 90.6953 75.5499 90.6953 77.238C90.6953 79.5664 90.255 81.5214 89.3752 83.1025C88.4946 84.6843 87.3 85.9646 85.7912 86.9448C84.2818 87.9249 82.5267 88.6282 80.5239 89.0552C78.5219 89.4821 76.4083 89.6953 74.1835 89.6953C71.9007 89.6953 69.7291 89.5014 67.6687 89.1129C65.6084 88.7251 63.8238 88.1427 62.3147 87.3671ZM58.8203 54.8682H46.6697V89.0312H37.0443V54.8682H24.9531V47.1953H58.8203V54.8682Z" fill="white"/>
</svg>
