<svg width="110" height="110" viewBox="0 0 110 110" fill="none" xmlns="http://www.w3.org/2000/svg">
<path d="M94.0476 27.2856L57.0863 93.3785C56.323 94.7429 54.3627 94.751 53.5878 93.3931L15.8939 27.2918C15.0501 25.8119 16.3152 24.0195 17.992 24.319L54.9932 30.9329C55.2293 30.9751 55.4709 30.9747 55.7068 30.9317L91.934 24.3286C93.6052 24.024 94.8767 25.8029 94.0476 27.2856Z" fill="white"/>
<path d="M72.7148 16.1351L72.7148 16.1351C73.0849 16.0625 73.401 16.4069 73.2964 16.7701C73.2964 16.7701 73.2964 16.7701 73.2964 16.7702L68.1802 34.5057L68.1802 34.5057C67.8689 35.5854 68.8075 36.6127 69.9109 36.4L69.911 36.4L77.7494 34.8872C77.7494 34.8872 77.7494 34.8871 77.7495 34.8871C78.1608 34.8079 78.4835 35.2344 78.2961 35.6082L78.7431 35.8323L78.2961 35.6083L56.0202 80.064L55.6318 80.6641L56.0451 80.9315L55.6318 80.6641C55.3284 81.1331 54.6016 80.8345 54.7145 80.2883L54.2249 80.1871L54.7145 80.2882L58.31 62.8853L57.8204 62.7842L58.3101 62.8853C58.5409 61.7676 57.4916 60.8099 56.3994 61.1413L56.3993 61.1414L51.6958 62.5707C51.3301 62.6817 50.9786 62.3612 51.0551 61.9872L51.0552 61.987L53.3175 50.9079C53.3175 50.9078 53.3175 50.9078 53.3175 50.9077C53.5369 49.8346 52.5725 48.8946 51.5052 49.1409L43.8899 50.8982L43.8898 50.8982C43.5623 50.9738 43.2534 50.7133 43.2732 50.3767L44.9556 21.9599L44.9556 21.9598C44.9622 21.8482 45.0058 21.7419 45.0794 21.6577C45.153 21.5734 45.2525 21.5161 45.3623 21.4946L45.3624 21.4946L72.7148 16.1351Z" fill="white" stroke="black"/>
</svg>
