<svg width="110" height="110" viewBox="0 0 110 110" fill="none" xmlns="http://www.w3.org/2000/svg">
<g id="Icon" clip-path="url(#clip0_1330_490)">
<mask id="mask0_1330_490" style="mask-type:alpha" maskUnits="userSpaceOnUse" x="5" y="4" width="110" height="110">
<g id="Group">
<path id="Vector" fill-rule="evenodd" clip-rule="evenodd" d="M83.0031 113.53C84.7356 114.208 86.7111 114.165 88.4597 113.319L111.107 102.365C113.487 101.214 115 98.7932 115 96.1373V21.8631C115 19.2072 113.487 16.7862 111.107 15.6352L88.4597 4.68098C86.1648 3.57098 83.4791 3.84286 81.4649 5.31476C81.1772 5.52502 80.9031 5.75978 80.6459 6.0185L37.2906 45.7774L18.4059 31.368C16.6479 30.0267 14.189 30.1366 12.5563 31.6295L6.49933 37.1677C4.50219 38.9938 4.4999 42.152 6.49438 43.9812L22.8718 59L6.49438 74.0188C4.4999 75.8479 4.50219 79.0062 6.49933 80.8323L12.5563 86.3705C14.189 87.8634 16.6479 87.9733 18.4059 86.6319L37.2906 72.2226L80.6459 111.981C81.3317 112.671 82.1371 113.191 83.0031 113.53ZM87.5167 33.8993L54.62 59L87.5167 84.1006V33.8993Z" fill="black"/>
</g>
</mask>
<g mask="url(#mask0_1330_490)">
<g id="Group_2">
<path id="Vector_2" d="M111.174 15.6523L88.5095 4.68302C85.886 3.41333 82.7507 3.94891 80.6919 6.01847L6.4953 74.0189C4.4996 75.8478 4.50189 79.0062 6.50025 80.8322L12.5609 86.3705C14.1946 87.8634 16.655 87.9733 18.414 86.632L107.764 18.498C110.761 16.2122 115.067 18.3613 115.067 22.1433V21.8788C115.067 19.224 113.554 16.804 111.174 15.6523Z" fill="white"/>
<g id="Group_3">
<path id="Vector_3" d="M111.174 102.347L88.5095 113.317C85.886 114.587 82.7507 114.051 80.6919 111.981L6.4953 43.981C4.4996 42.1519 4.50189 38.9936 6.50025 37.1675L12.5609 31.6293C14.1946 30.1364 16.655 30.0265 18.414 31.3678L107.764 99.5017C110.761 101.788 115.067 99.6385 115.067 95.8566V96.121C115.067 98.7757 113.554 101.196 111.174 102.347Z" fill="white"/>
</g>
<g id="Group_4">
<path id="Vector_4" d="M88.5105 113.319C85.8862 114.588 82.751 114.051 80.6919 111.981C83.2289 114.532 87.5669 112.725 87.5669 109.119V8.88098C87.5669 5.27447 83.2289 3.46832 80.6919 6.0185C82.751 3.94875 85.8862 3.41241 88.5105 4.68098L111.171 15.6352C113.553 16.7863 115.067 19.2072 115.067 21.8631V96.1373C115.067 98.7932 113.553 101.214 111.171 102.365L88.5105 113.319Z" fill="white"/>
</g>
<g id="Group_5" style="mix-blend-mode:overlay" opacity="0.25">
<path id="Vector_5" fill-rule="evenodd" clip-rule="evenodd" d="M83.0031 113.53C84.7356 114.208 86.7112 114.165 88.4597 113.319L111.107 102.365C113.487 101.214 115 98.7932 115 96.1372V21.8631C115 19.2071 113.487 16.7862 111.107 15.6352L88.4597 4.68098C86.1649 3.57099 83.479 3.84286 81.4648 5.31475C81.1772 5.52502 80.9031 5.75979 80.6459 6.0185L37.2906 45.7773L18.4059 31.3681C16.648 30.0266 14.189 30.1366 12.5563 31.6294L6.49934 37.1677C4.50219 38.9939 4.4999 42.1521 6.49439 43.9811L22.8718 59L6.49439 74.0189C4.4999 75.848 4.50219 79.0062 6.49934 80.8322L12.5563 86.3705C14.189 87.8634 16.648 87.9733 18.4059 86.632L37.2906 72.2226L80.6459 111.981C81.3317 112.671 82.137 113.191 83.0031 113.53ZM87.5167 33.8993L54.62 59L87.5167 84.1007V33.8993Z" fill="url(#paint0_linear_1330_490)"/>
</g>
</g>
</g>
</g>
<defs>
<linearGradient id="paint0_linear_1330_490" x1="60" y1="4" x2="60" y2="114" gradientUnits="userSpaceOnUse">
<stop stop-color="white"/>
<stop offset="1" stop-color="white" stop-opacity="0"/>
</linearGradient>
<clipPath id="clip0_1330_490">
<rect width="110" height="110" fill="white"/>
</clipPath>
</defs>
</svg>
